<?xml version="1.0" encoding="utf-8"?>
<!-- Generator: Adobe Illustrator 24.0.2, SVG Export Plug-In . SVG Version: 6.00 Build 0)  -->
<svg version="1.1" id="Слой_1" xmlns="http://www.w3.org/2000/svg" xmlns:xlink="http://www.w3.org/1999/xlink" x="0px" y="0px"
	 viewBox="0 0 30 30" style="enable-background:new 0 0 30 30;" xml:space="preserve">
<style type="text/css">
	.st0{fill:#32B9AE;}
</style>
<g>
	<path class="st0" d="M20.7,12.5c0,0.7,0.4,1.3,0.7,1.9c0.5,1.3,1.1,2.6,1.7,3.9c0.6,1.4,1.2,2.9,1.9,4.3c0.1,0.3,0.3,0.7,0.4,1
		s-0.1,0.6-0.5,0.6c-0.6,0-1.1,0-1.7,0c-1.3,0-2.6,0-3.9,0c-0.4,0-0.5,0.1-0.5,0.5c0,0.3-0.1,0.7,0.5,0.7c0.9,0,1.7,0,2.6,0
		c0.3,0,0.7,0,0.7,0.3c0,0.4-0.4,0.3-0.7,0.4c-1.3,0.3-2.5,0.6-3.8,0.8c-0.7,0.1-1.3,0.2-2,0.3c-0.7,0.1-1.3,0.1-2,0.3
		c-0.3,0.1-0.8,0.3-0.9-0.1c-0.1-0.3,0.4-0.4,0.6-0.6c0.6-0.4,1.2-0.8,1.8-1.2c0.2-0.1,0.2-0.2,0.2-0.5c-0.1-0.9-0.7-0.8-1.3-0.8
		c-1.9,0-3.8,0-5.6,0c-0.7,0-0.8-0.1-1.2-1c-0.5-1.4-1.1-2.7-1.7-4.1c-0.6-1.3-1.1-2.6-1.6-4C4,14,3.4,12.9,3,11.7
		c-0.2-0.6,0.2-1.3,0.9-1.2c1.6,0.1,3.3,0.4,4.9,0.5c1.2,0.1,2.3,0.2,3.5,0.4c1.4,0.2,2.8,0.3,4.2,0.5c0.8,0.1,1.6,0.3,2.4,0.2
		c0.6,0,1.1,0.2,1.7,0.2C20.7,12.3,20.7,12.4,20.7,12.5z M19,25.7c-0.2,0-0.2,0-0.2,0.2c0.2,0.4,0.5,0.1,0.7,0.2
		c0.3,0.1,0.5-0.2,0.7-0.3c-0.4,0-0.8,0-1.1,0C19.1,25.7,19.1,25.7,19,25.7z M8.9,18.7c-0.1,0-0.3,0-0.4,0c-0.3,0-0.6,0-0.9,0
		c0.2,0.5,0.4,0.9,0.6,1.4C8.4,20.4,8.3,21,9,20.9C9,21,9,21,9,21.1c-0.1,0-0.3-0.1-0.4,0.1c0,0.1,0,0.2,0.2,0.3
		C9,22,9.2,22.5,9.4,23c0.1,0.1,0,0.4,0.4,0.4c1,0,1.9,0,2.9,0c0.3,0,0.2-0.1,0.1-0.3c0.1,0,0.1-0.1,0.1-0.2
		c0.2,0.6,0.7,0.5,1.2,0.5c0.4,0,0.7,0,1.1,0c0.7,0,1.3,0,2.1,0C17,23.2,17,23,17,22.8c0.1,0,0.1,0,0.2,0c0.2,0.2,0.1,0.6,0.5,0.6
		c1,0,2.1,0,3.1,0c0.1,0,0.3,0,0.3-0.2c0.1,0,0.1,0,0.2,0c0,0.3,0.3,0.2,0.4,0.2c0.8,0,1.6,0,2.4,0c0.3,0,0.7,0.1,0.4-0.4
		c-0.1-0.2-0.2-0.4-0.3-0.6c-0.1-0.5-0.4-0.8-1-0.7c-0.4,0.1-0.9,0-1.3,0c0-0.2,0.2-0.2,0.3-0.2c0.3,0,0.6,0,0.9,0
		c0.2,0,0.4,0.1,0.6,0c0-0.3-0.1-0.6-0.3-0.8c-0.3-0.5-0.2-1.3-1.1-1.1c0-0.3,0.2-0.1,0.3-0.2c0.1,0,0.2,0,0.3-0.1
		c0-0.1,0-0.3-0.2-0.3c0-0.3-0.2-0.4-0.2-0.6c-0.2-0.6-0.3-1.3-1.3-1.1v-0.1c0.2-0.1,0.3-0.1,0.5-0.1c0.1,0,0.2,0,0.3-0.1
		c0-0.1,0-0.3-0.2-0.3c-0.1-0.4-0.3-0.8-0.4-1.2c-0.2-0.4-0.5-0.7-1-0.6c-0.1,0-0.2,0-0.3,0c-0.1,0-0.3,0-0.4,0l0,0
		c0.1-0.4,0.4-0.2,0.6-0.2s0.5,0.1,0.7,0c-0.3-0.3-0.2-0.8-0.7-0.9c-0.1,0,0-0.1,0-0.1c0.2-0.4-0.1-0.6-0.4-0.6
		c-0.7-0.1-1.5-0.1-2.2-0.2c-0.5-0.1-1,0.3-1.4-0.2c-1,0-2.1-0.3-3.1-0.2c-0.1,0-0.3-0.1-0.3,0.2c-0.1,0-0.1,0-0.2,0
		c-0.1-0.3-0.2-0.4-0.5-0.4c-0.4,0-0.8,0-1.2-0.1c-0.8-0.2-1.7-0.1-2.5-0.3c0.1,0.3,0.2,0.4,0.3,0.6c-0.1,0-0.2,0-0.3,0
		c-0.1-0.4-0.3-0.7-0.8-0.6H7.6c-0.9-0.1-1.8-0.2-2.8-0.3c0.3,0.4,0.3,0.7,0.5,1c0.3,0.4,0.2,1.1,0.8,1.3C5.9,14,5.6,14.1,6,14.4
		c0.1,0.4,0.3,0.7,0.4,1.1c0.2,0.5,0.4,1,1.2,0.8c0.1,0,0.2,0.1,0.2,0.1c-0.1,0.1-0.2,0-0.3,0.1c-0.6,0-0.6,0-0.4,0.6
		C6.8,17,6.9,17.2,7,17.4c0.4,1.1,0.4,1.1,1.5,1.1c0.1,0,0.3,0,0.4,0C8.9,18.6,8.9,18.6,8.9,18.7z M15.1,26.7c0.8,0,1.6-0.3,2.4-0.2
		c-0.2-0.3-1.1-0.8-1.4-0.8c-0.1,0-0.2,0.1-0.2,0.1c-0.3,0.2-0.7,0.4-1,0.6c-0.2,0-0.3,0.2-0.4,0.3C14.8,26.8,15,27,15.1,26.7z
		 M17.2,24.1c-0.3,0-0.5,0-0.8,0c-0.1,0-0.3-0.1-0.4,0.1c-0.1,0.1,0.3,0.9,0.5,0.9c0.5,0,1,0,1.4,0.1c0.2,0.1,0.4-0.1,0.4-0.3
		c0.1-0.8,0.1-0.8-0.7-0.8C17.6,24.1,17.4,24.1,17.2,24.1z M17.6,25.8c0.2,0.1,0.4,0.1,0.5,0.2s0.2,0.1,0.2-0.1
		c0-0.1,0.1-0.2-0.1-0.2C18.1,25.7,17.9,25.7,17.6,25.8z"/>
	<path class="st0" d="M25.6,6.5c0,1.3-1.1,2.6-2.6,2.6c-1.4,0-2.5-1.2-2.5-2.5C20.5,5.1,21.8,4,23,4C24.4,4,25.5,5.2,25.6,6.5z
		 M25,6.5c0.1-1-1-2.1-2-2s-2,1-2,2s1,2.1,2,2.1C24,8.5,25,7.8,25,6.5z"/>
	<path class="st0" d="M25.1,14.4c-0.1-0.1-0.3-0.1-0.3-0.3c-0.2-1.2-0.6-2.3-0.8-3.5c-0.1-0.3-0.2-0.6-0.2-0.9c0-0.1,0-0.2,0.1-0.2
		S24,9.6,24,9.7c0.3,1,0.5,2.1,0.8,3.1c0.1,0.3,0.1,0.7,0.3,1C25.2,14.1,25.2,14.2,25.1,14.4L25.1,14.4z"/>
	<path class="st0" d="M25.1,14.4c0.4,0.2,0.3,0.7,0.4,1.1c0.2,0.6,0.3,1.2,0.4,1.9c0,0.2,0.2,0.4,0.2,0.6c0,0.1,0.1,0.2-0.1,0.3
		c-0.2,0-0.2-0.1-0.3-0.2c-0.2-0.9-0.4-1.8-0.6-2.7C25.1,15,24.9,14.7,25.1,14.4L25.1,14.4z"/>
	<path class="st0" d="M11.4,6.8c0.7-0.3,1.4-0.2,2.2-0.2c0,0.2,0.2,0.2,0.3,0.2c0.3,0,0.6,0,0.9,0c-0.5,0.3-1,0.1-1.4,0.2
		c-0.3,0-0.6,0-0.9,0c0-0.2-0.1-0.2-0.2-0.2C11.9,6.9,11.7,6.9,11.4,6.8z"/>
	<path class="st0" d="M8.3,7c0.6-0.3,1.3-0.2,2-0.1c0.1,0,0.2,0,0.4,0c0.2,0.2,0.5,0,0.8,0.1c-0.6,0.3-1.2,0.2-1.9,0.1
		c-0.1,0-0.3-0.1-0.4,0C8.9,7,8.6,7.1,8.3,7z"/>
	<path class="st0" d="M14.7,6.6c0.6-0.3,1.3-0.2,2-0.2c0,0.2,0.2,0.2,0.3,0.2c0.3,0,0.6,0,0.9,0c-0.7,0.3-1.4,0.2-2.2,0.2
		c0-0.2-0.1-0.2-0.2-0.2C15.2,6.7,15,6.7,14.7,6.6z"/>
	<path class="st0" d="M18,10c-0.5,0.4-1,0.7-1.5,1c-0.1,0-0.1,0.2-0.2,0c0-0.1,0-0.2,0.1-0.2c0.5-0.3,1-0.6,1.5-0.9
		C17.8,9.9,17.9,9.9,18,10z"/>
	<path class="st0" d="M8.3,7.2C7.7,7.6,7,7.4,6.3,7.4c-0.1,0-0.1-0.1-0.1-0.2S6.2,7,6.4,7S6.8,7,7,7c0.2,0.4,0.5,0.1,0.8,0.2
		C7.9,7.2,8.1,7.2,8.3,7.2z"/>
	<path class="st0" d="M19,9c0.3-0.2,0.7-0.4,1-0.6c0.1,0,0.2-0.1,0.2,0s0.1,0.2-0.1,0.2c-0.4,0.2-0.6,0.5-1,0.6
		C19.1,9.2,19,9.2,19,9z"/>
	<path class="st0" d="M17.8,6.5c0.6-0.3,1.2-0.2,1.8-0.2c0.1,0,0.1,0.1,0.1,0.2s-0.1,0.2-0.2,0.2c-0.2,0-0.4,0-0.6,0
		c0-0.2-0.2-0.2-0.3-0.2C18.4,6.5,18.1,6.5,17.8,6.5z"/>
	<path class="st0" d="M21,11.5c-0.2-0.2,0-0.5,0.1-0.6c0.2-0.2,0.1-0.6,0.5-0.8l0,0c-0.1,0.4-0.1,0.7-0.3,1.1
		C21.3,11.4,21.2,11.5,21,11.5L21,11.5z"/>
	<path class="st0" d="M17.8,6.5c0.3,0,0.6,0,0.9,0c0.1,0,0.3,0,0.3,0.2c-0.4,0-0.8,0-1.1,0c-0.3,0-0.6,0-0.9,0c-0.1,0-0.3,0-0.3-0.2
		C17.1,6.5,17.4,6.5,17.8,6.5z"/>
	<path class="st0" d="M14.7,6.6c0.3,0,0.5,0,0.8,0c0.1,0,0.2,0,0.2,0.2c-0.3,0-0.6,0-1,0c-0.3,0-0.6,0-0.9,0c-0.1,0-0.3,0-0.3-0.2
		C14,6.7,14.3,6.7,14.7,6.6z"/>
	<path class="st0" d="M19,9c0,0.2,0.1,0.2,0.2,0.2c-0.2,0.3-0.5,0.4-0.8,0.6c0-0.1-0.1-0.2-0.2-0.2C18.4,9.3,18.7,9.2,19,9z"/>
	<path class="st0" d="M20.7,12.5c0-0.1-0.1-0.2-0.2-0.2c0.2-0.3,0.1-0.6,0.5-0.8l0,0C21.2,11.9,21,12.2,20.7,12.5z"/>
	<path class="st0" d="M20.3,4.7c-0.2-0.1-0.4-0.3-0.6-0.4c-0.1-0.1-0.1-0.1-0.1-0.2L19.7,4C20,4,20.3,4.4,20.3,4.7z"/>
	<path class="st0" d="M23.9,3.5c-0.2-0.4,0.1-0.6,0.2-1C24.4,3,24.2,3.3,23.9,3.5z"/>
	<path class="st0" d="M11.4,7.1c-0.3-0.1-0.5,0-0.8-0.1c0.2-0.2,0.5,0,0.8-0.1c0.3,0,0.5,0,0.8,0c0.1,0,0.2,0,0.2,0.2
		C12.1,7,11.8,7,11.4,7.1z"/>
	<path class="st0" d="M26.2,4.3c-0.1,0.1-0.3,0.2-0.4,0.4c-0.1,0.1-0.2,0.1-0.3,0c-0.1-0.1,0-0.2,0.1-0.3C25.8,4.2,26,4.2,26.2,4.3z
		"/>
	<path class="st0" d="M21.6,10.2C21.6,10.2,21.6,10.1,21.6,10.2c-0.2-0.3,0-0.5,0.1-0.6s0.2,0,0.2,0.1C21.9,9.9,21.9,10.1,21.6,10.2
		L21.6,10.2z"/>
	<path class="st0" d="M8.3,7.2c-0.2,0-0.4,0-0.6,0c0-0.1,0-0.1,0-0.2c0.2,0,0.4,0,0.6,0c0.3,0.1,0.6,0,0.9,0.1
		C8.9,7.4,8.6,7.2,8.3,7.2z"/>
	<path class="st0" d="M27,6.5c-0.1,0.1-0.1,0.1-0.2,0.1c-0.2,0-0.5,0.1-0.7,0V6.5C26.5,6.4,26.7,6.4,27,6.5z"/>
	<path class="st0" d="M7.7,7.1c0,0.1,0,0.1,0,0.2C7.5,7.2,7.2,7.4,7,7.1C7.2,7.1,7.5,7.1,7.7,7.1z"/>
	<path class="st0" d="M18.2,9.6c0.1,0,0.2,0,0.2,0.2c-0.2,0-0.2,0.2-0.4,0.2c-0.1,0-0.2-0.1-0.2-0.2C18,9.8,18,9.5,18.2,9.6z"/>
	<path class="st0" d="M9.7,20.9c0.5,0,1,0,1.5,0c0.1,0,0.2,0,0.3,0.1c-0.1,0-0.1,0.1-0.2,0.1c-0.7,0.2-1.4,0.1-2.2,0.1
		c-0.2,0-0.4-0.1-0.4,0.2c-0.2,0-0.2-0.1-0.2-0.3C8.6,21,8.8,21,8.9,21C9.1,21,9.5,21.2,9.7,20.9z"/>
	<path class="st0" d="M22.1,19.5c-0.6,0-1.1,0-1.7,0c-0.1,0-0.2,0-0.3-0.2c0.2-0.1,0.3,0,0.5-0.1c0.5-0.3,1-0.1,1.4-0.1
		c0.2,0,0.4,0.1,0.4-0.2c0.2,0,0.2,0.1,0.2,0.3c0,0.2-0.2,0.1-0.3,0.1C22.3,19.3,22.1,19.2,22.1,19.5z"/>
	<path class="st0" d="M19.7,16.9c0.5-0.2,1-0.1,1.5-0.1c0.2,0,0.4,0,0.4-0.2c0.2,0,0.2,0.1,0.2,0.3c0,0.2-0.2,0.1-0.3,0.1
		c-0.2,0-0.3,0-0.5,0.1c-0.4,0.1-0.9,0.1-1.4,0.1c-0.2,0-0.3,0-0.4-0.2C19.3,16.9,19.5,17,19.7,16.9z"/>
	<path class="st0" d="M19.4,14.8c-0.5,0-1,0-1.5,0c0-0.3,0.2-0.2,0.3-0.2c0.1,0,0.4,0.1,0.4-0.2c0.2,0,0.4,0,0.6,0
		c0.3,0,0.4,0,0.5-0.3c0.1-0.1,0.1-0.3,0.3-0.2c0.2,0.1,0.1,0.3-0.1,0.4c0,0.1,0,0.2,0,0.3C19.8,14.6,19.5,14.5,19.4,14.8z"/>
	<path class="st0" d="M7.4,16.1c0.7-0.2,1.4,0,2-0.1c0,0.3-0.2,0.2-0.4,0.2c-0.1,0-0.3-0.1-0.4,0.2c-0.5,0-1.1,0.2-1.6-0.2
		C7.2,16.1,7.4,16.2,7.4,16.1z"/>
	<path class="st0" d="M5.7,13.6c0.4-0.1,0.9-0.1,1.3-0.1c0.1,0,0.3,0,0.4,0.2c-0.1,0-0.3,0.1-0.4,0.1c-0.4,0.1-0.8,0.1-1.2,0.1
		c-0.2,0-0.2,0.1-0.2,0.2C5.2,13.8,5.5,13.7,5.7,13.6z"/>
	<path class="st0" d="M21.7,21.6c-0.3,0-0.5,0-0.8,0c0-0.2-0.2-0.2-0.2-0.4c0.6,0,1.2,0,1.8,0c0.1,0,0.3,0,0.3,0.1
		c-0.3,0-0.6,0-0.9,0C21.9,21.5,21.7,21.4,21.7,21.6z"/>
	<path class="st0" d="M10.3,18.9c-0.5,0-1,0-1.5,0c-0.1,0-0.2,0-0.3-0.1c0.1,0,0.3,0,0.4,0c0.2-0.1,0.5,0.2,0.6-0.2c0.3,0,0.7,0,1,0
		C10.5,18.7,10.3,18.7,10.3,18.9z"/>
	<path class="st0" d="M20.7,21.8c-0.1,0.4,0.2,0.7,0.3,1c0.1,0.1,0.1,0.3,0.1,0.4c-0.1,0-0.1,0-0.2,0c-0.3-0.1-0.2-0.4-0.3-0.6
		c-0.1-0.1-0.2-0.4-0.2-0.6C20.5,22,20.5,21.8,20.7,21.8z"/>
	<path class="st0" d="M8.5,13.5c0-0.4-0.3-0.7-0.4-1.2c0.1,0,0.2,0,0.3,0c0.2,0.4,0.3,0.8,0.5,1.2C8.8,13.5,8.6,13.5,8.5,13.5z"/>
	<path class="st0" d="M12.7,23.1c-0.1-0.4-0.3-0.7-0.4-1.1c0.1,0,0.2-0.1,0.2-0.2c0.2,0.3,0.4,0.6,0.4,1
		C12.8,22.9,12.8,23,12.7,23.1z"/>
	<path class="st0" d="M19.2,25.7c0.4,0,0.8,0,1.1,0c-0.2,0.2-0.4,0.4-0.7,0.3C19.6,25.8,19.2,26,19.2,25.7z"/>
	<path class="st0" d="M19.8,14.8c0,0.3-0.2,0.4-0.2,0.7c0,0.1-0.2,0.1-0.3,0.1c-0.1,0-0.1-0.2,0-0.2c0.1-0.2,0.2-0.3,0.1-0.5
		C19.5,14.8,19.7,14.8,19.8,14.8z"/>
	<path class="st0" d="M12.8,13.5c-0.1-0.3-0.3-0.6-0.4-1c0.1,0,0.1,0,0.2,0c0.2,0.2,0.4,0.5,0.4,0.8c0,0.1,0,0.1,0,0.2l0,0
		C12.9,13.5,12.9,13.5,12.8,13.5z"/>
	<path class="st0" d="M16.7,22c0.2,0.2,0.3,0.5,0.4,0.8c-0.1,0-0.1,0-0.2,0c-0.3-0.1-0.1-0.4-0.3-0.6C16.6,22.2,16.6,22.1,16.7,22z"
		/>
	<path class="st0" d="M9.7,20.9C9.5,21.2,9.1,21,8.9,21c0-0.1,0-0.1,0-0.2C9.2,20.9,9.4,20.9,9.7,20.9z"/>
	<path class="st0" d="M14.9,26.5c-0.1,0.2,0.1,0.2,0.2,0.2c-0.1,0.3-0.4,0.1-0.6,0.1C14.7,26.7,14.7,26.5,14.9,26.5z"/>
	<path class="st0" d="M9.5,18.5c-0.1,0.3-0.4,0.1-0.6,0.2c0-0.1,0-0.1,0-0.2C9.1,18.5,9.3,18.5,9.5,18.5z"/>
	<path class="st0" d="M19,25.7c0,0.1-0.1,0.2-0.2,0.2C18.8,25.7,18.8,25.7,19,25.7z"/>
	<path class="st0" d="M12.4,14c0.2,0,0.3-0.1,0.4-0.2c0.3,0,0.2-0.2,0.2-0.4l0,0c0.1,0,0.1,0,0.2,0c0.1,0.3,0.4,0.4,0.6,0.6
		c0,0.1,0,0.3,0,0.4c-0.1,0.3,0,0.6,0.2,0.9c0.3,0.9,0.7,1.1,1.6,1.2c0.4,0,0.7-0.1,1.1,0.1c-0.1,0.1-0.2,0-0.3,0.1
		c-0.2,0-0.4,0-0.6,0c-0.3,0-0.7-0.1-0.9,0.2c-0.1,0-0.3,0-0.4,0c-0.5-0.3-0.9-0.4-1.5-0.4c-0.3,0-0.5,0-0.8,0
		c0.1-0.3,0.4-0.1,0.6-0.2c0.3,0,0.5,0,0.8,0c0.5,0,0.6-0.2,0.4-0.6c-0.1-0.3-0.3-0.6-0.4-0.9c-0.2-0.5-0.5-0.7-1-0.7
		c-0.3,0-0.5,0-0.8,0C11.8,13.9,12.2,14.2,12.4,14z"/>
	<path class="st0" d="M18.6,14.4c-0.1,0.3-0.3,0.1-0.4,0.2c-0.1,0-0.3,0-0.3,0.2l0,0c-0.2,0-0.2,0.2-0.4,0.2
		c-0.2-0.2-0.4-0.4-0.8-0.4c0-0.1,0-0.2,0-0.3c0.5-0.2,0.2-0.5,0.1-0.8c0-0.1-0.1-0.2,0-0.2s0.2,0,0.2,0.1
		C17.2,14.2,17.8,14.5,18.6,14.4z"/>
	<path class="st0" d="M16.7,14.3c0,0.1,0,0.2,0,0.3c-0.4,0-0.8,0.2-1.2-0.2c0.1-0.1,0.4,0.1,0.4-0.2C16.2,14.2,16.4,14.2,16.7,14.3z
		"/>
	<path class="st0" d="M13.8,14.4c0-0.1,0-0.3,0-0.4c0.3,0.1,0.7-0.1,1,0.2c-0.1,0-0.2,0-0.2,0.2C14.3,14.4,14,14.4,13.8,14.4z"/>
	<path class="st0" d="M14.5,14.4c0-0.1,0.1-0.1,0.2-0.2c0.4,0,0.8,0,1.2,0c0,0.3-0.3,0.1-0.4,0.2C15.2,14.4,14.9,14.4,14.5,14.4z"/>
	<path class="st0" d="M13.2,13.5c-0.1,0-0.1,0-0.2,0c0-0.1,0-0.1,0-0.2C13.1,13.3,13.2,13.3,13.2,13.5z"/>
	<path class="st0" d="M16.7,22c0,0.1-0.1,0.2-0.2,0.2c-0.1-0.5-0.4-0.7-0.8-0.8c0-0.1,0-0.2,0-0.4c0.3,0,0.2-0.3,0.2-0.4
		s0-0.2,0.2-0.2c0.2,0.5,0.6,0.7,1.1,0.7c0.7,0,1.3,0,2,0c0.8,0,0.8,0,0.5-0.7c0-0.1-0.1-0.2-0.1-0.3c0-0.4-0.3-0.5-0.5-0.8
		c-0.2-0.2-0.5-0.1-0.7-0.3c0.1-0.1,0.3-0.1,0.3-0.3c0.3,0,0.3-0.2,0.3-0.4c0.1,0,0.1,0,0.2,0c0.2,0.4,0.5,0.6,0.9,0.6
		c0.2,0,0.4,0,0.5,0.1c-0.1,0.1-0.3,0-0.5,0.1c-0.4,0.2-0.5,0.4-0.3,0.8c0.2,0.5,0.3,1,0.9,1.1c0,0.2,0.2,0.2,0.2,0.4
		c-0.1,0-0.2,0.1-0.2,0.2c-0.2,0-0.2,0.2-0.3,0.2c-0.2-0.4-0.6-0.5-1-0.5c-0.7,0-1.4,0-2.1,0C16.8,21.4,16.7,21.6,16.7,22z"/>
	<path class="st0" d="M12.4,21.8c0,0.1,0,0.2-0.2,0.2c-0.1-0.6-0.6-0.7-1-0.9c0.1,0,0.1-0.1,0.2-0.1c0.2-0.2,0.2-0.4,0.1-0.6
		c-0.2-0.5-0.3-1.1-0.8-1.4c-0.1-0.1-0.3-0.1-0.4-0.1c0-0.2,0.2-0.2,0.2-0.4c0.2,0,0.2-0.2,0.2-0.4c0-0.1,0.1-0.2,0.2-0.2
		c0,0.3,0.2,0.5,0.4,0.6c0.5,0.3,1,0.1,1.5,0.2c0,0.1,0,0.1,0,0.2c-0.2,0-0.4,0-0.6,0c-0.8,0-0.9,0.1-0.6,0.9c0,0.1,0,0.1,0,0.2
		c0.2,0.6,0.6,1.1,1.3,1.1c0.5,0,0.9,0,1.4,0c0,0.1,0,0.1,0,0.2c-0.3,0-0.6,0-1,0C12.5,21.2,12.5,21.2,12.4,21.8z"/>
	<path class="st0" d="M13.4,21.2c0.3,0,0.6,0,1,0c0.3-0.1,0.6,0.2,0.8-0.2c0.2,0,0.4,0,0.6,0c0,0.1,0,0.2,0,0.4c-0.7,0-1.4,0-2.1,0
		C13.5,21.4,13.4,21.3,13.4,21.2z"/>
	<path class="st0" d="M8.5,13.5c0.1,0,0.3,0,0.4,0c0.7,0.5,1.5,0.4,2.3,0.4c-0.3,0.4-0.7,0.1-1,0.2c-0.1,0-0.3,0-0.4,0
		c-0.4,0-0.5,0.2-0.4,0.6c0.1,0.3,0.2,0.5,0.3,0.7c0,0.1,0,0.2-0.2,0.2c-0.1-0.4-0.2-0.8-0.4-1.1c-0.3-0.4-0.8-0.6-1.3-0.6
		c-0.2,0-0.5,0.1-0.8-0.1c0.1,0,0.3-0.1,0.4-0.1C7.7,13.6,8.2,13.8,8.5,13.5z"/>
	<path class="st0" d="M10.2,14c0.3-0.1,0.7,0.2,1-0.2c0.4,0,0.8-0.1,1.2,0.2c-0.2,0.1-0.6-0.1-0.8,0.2C11.2,14.2,10.7,14.3,10.2,14z
		"/>
	<path class="st0" d="M13,13.5c0,0.1,0.1,0.4-0.2,0.4c0-0.1,0-0.3,0-0.4C12.9,13.5,12.9,13.5,13,13.5z"/>
	<path class="st0" d="M8.7,16.4c0-0.3,0.2-0.1,0.4-0.2c0.2,0,0.4,0.1,0.4-0.2l0,0c0.2,0,0.2-0.2,0.4-0.2c0.3,0.1,0.5,0.5,0.9,0.4
		c0.1,0.2-0.4,0.1-0.3,0.4c-0.1,0.3,0,0.5,0.1,0.8c-0.1,0-0.2,0-0.3,0C10,16.6,9.5,16.3,8.7,16.4z"/>
	<path class="st0" d="M10.3,17.3c0.1,0,0.2,0,0.3,0c0.1,0.2,0.2,0.4,0.3,0.6c-0.1,0-0.1,0.1-0.2,0.2C10.4,17.9,10.4,17.6,10.3,17.3z
		"/>
	<path class="st0" d="M9.9,15.8c-0.2,0-0.2,0.2-0.4,0.2c0-0.1,0-0.3,0-0.4c0.1,0,0.2-0.1,0.2-0.2C9.8,15.5,9.9,15.6,9.9,15.8z"/>
	<path class="st0" d="M19.7,16.9c-0.1,0.1-0.3,0-0.5,0.1c-0.6,0-0.3,0.5-0.4,0.8c0,0.1,0,0.2-0.2,0.2c-0.1-0.6-0.4-0.9-1-1
		c0-0.1,0-0.2,0-0.4c0.1,0,0.1,0,0.2,0c0.3,0,0.1-0.4,0.4-0.4c0.2,0.4,0.5,0.6,1,0.6C19.3,16.8,19.5,16.7,19.7,16.9z"/>
	<path class="st0" d="M18.6,17.9c0.1,0,0.1-0.1,0.2-0.2c0.2,0.2,0.3,0.5,0.4,0.8c-0.1,0-0.1,0-0.2,0C18.7,18.4,18.8,18.1,18.6,17.9z
		"/>
	<path class="st0" d="M18.2,16.2c-0.3,0-0.1,0.4-0.4,0.4c0.1-0.3,0-0.6-0.1-0.9c-0.1-0.2-0.3-0.4-0.3-0.7c0.2,0,0.2-0.2,0.4-0.2
		C17.7,15.3,18.1,15.7,18.2,16.2z"/>
	<path class="st0" d="M10.7,16.2c0.5,0,1,0,1.5,0c0.1,0,0.3,0,0.3,0.1c-0.2,0.1-0.5-0.1-0.6,0.2c-0.5,0-1,0-1.6,0
		C10.4,16.3,10.8,16.4,10.7,16.2z"/>
	<path class="st0" d="M14.7,17c0,0.4,0.3,0.8,0.4,1.2c-0.1,0-0.2,0.1-0.2,0.2c-0.2-0.4-0.5-0.9-0.6-1.3C14.5,17,14.6,17,14.7,17z"/>
	<path class="st0" d="M17.7,16.9c-0.5,0-1,0.1-1.4-0.2c0.1-0.1,0.2,0,0.3-0.1c0.4,0,0.7-0.2,1.1-0.1C17.7,16.7,17.7,16.8,17.7,16.9z
		"/>
	<path class="st0" d="M18.4,19.2c-0.7,0.2-1.5,0.2-2.2-0.1c0.2-0.1,0.6,0.1,0.8-0.2c0.6,0,1.1,0,1.7,0
		C18.7,19.1,18.5,19.1,18.4,19.2z"/>
	<path class="st0" d="M15.7,19.7c0.3,0.2,0.3,0.5,0.4,0.8c-0.1,0-0.2,0.1-0.2,0.2c-0.2-0.2-0.2-0.5-0.4-0.8
		C15.7,19.9,15.7,19.8,15.7,19.7z"/>
	<path class="st0" d="M14.2,19.1c-0.6,0-1.1,0-1.7,0c-0.1,0-0.2,0-0.3-0.1c0.2,0,0.4,0,0.6,0c0.2-0.1,0.5,0.2,0.6-0.2
		c0.5,0,0.9,0,1.4,0c0,0.2-0.2,0.2-0.3,0.2C14.3,18.9,14.2,18.9,14.2,19.1z"/>
	<path class="st0" d="M14.3,21c0.3,0,0.5,0,0.8,0c-0.2,0.4-0.5,0.1-0.8,0.2C14.3,21.2,14.3,21.1,14.3,21z"/>
	<path class="st0" d="M13.4,18.7c-0.1,0.4-0.4,0.1-0.6,0.2c0-0.1,0-0.1,0-0.2C13,18.7,13.2,18.7,13.4,18.7z"/>
	<path class="st0" d="M14.2,19.1c0-0.2,0.2-0.1,0.3-0.2c0.1,0,0.3,0,0.3-0.2c0.3,0,0.2-0.3,0.2-0.4s0-0.2,0.2-0.2
		c0.2,0.5,0.5,0.8,1.1,0.8c0.3,0,0.6,0,0.9,0c-0.2,0.3-0.5,0.1-0.8,0.2c-0.4,0-0.6,0.2-0.6,0.6c0,0.1,0,0.2-0.2,0.2
		C15.3,19.2,15.1,19.1,14.2,19.1z"/>
</g>
</svg>
