<?xml version="1.0" encoding="utf-8"?>
<!-- Generator: Adobe Illustrator 24.0.2, SVG Export Plug-In . SVG Version: 6.00 Build 0)  -->
<svg version="1.1" id="Слой_1" xmlns="http://www.w3.org/2000/svg" xmlns:xlink="http://www.w3.org/1999/xlink" x="0px" y="0px"
	 viewBox="0 0 30 30" style="enable-background:new 0 0 30 30;" xml:space="preserve">
<style type="text/css">
	.st0{fill:#FFFFFF;}
</style>
<g>
	<path class="st0" d="M7.5,27C5.02,27,3,24.98,3,22.5v-15C3,5.02,5.02,3,7.5,3h15C24.98,3,27,5.02,27,7.5v15
		c0,2.48-2.02,4.5-4.5,4.5H7.5z"/>
	<path d="M22.5,3.5c2.21,0,4,1.79,4,4v15c0,2.21-1.79,4-4,4h-15c-2.21,0-4-1.79-4-4v-15c0-2.21,1.79-4,4-4H22.5 M22.5,2.5h-15
		c-2.76,0-5,2.24-5,5v15c0,2.76,2.24,5,5,5h15c2.76,0,5-2.24,5-5v-15C27.5,4.74,25.26,2.5,22.5,2.5L22.5,2.5z"/>
</g>
</svg>
