<?xml version="1.0" encoding="utf-8"?>
<!-- Generator: Adobe Illustrator 24.0.2, SVG Export Plug-In . SVG Version: 6.00 Build 0)  -->
<svg version="1.1" id="Слой_1" xmlns="http://www.w3.org/2000/svg" xmlns:xlink="http://www.w3.org/1999/xlink" x="0px" y="0px"
	 viewBox="0 0 30 30" style="enable-background:new 0 0 30 30;" xml:space="preserve">
<style type="text/css">
	.st0{fill-rule:evenodd;clip-rule:evenodd;fill:#468D9F;stroke:#FFFFFF;stroke-width:0.3;stroke-miterlimit:10;}
	.st1{fill-rule:evenodd;clip-rule:evenodd;fill:#32B9AE;stroke:#FFFFFF;stroke-width:0.3;stroke-miterlimit:10;}
	.st2{fill-rule:evenodd;clip-rule:evenodd;fill:#FCFCFC;stroke:#FFFFFF;stroke-width:0.25;stroke-miterlimit:10;}
	.st3{fill-rule:evenodd;clip-rule:evenodd;fill:#32B9AE;stroke:#FFFFFF;stroke-width:0.5;stroke-miterlimit:10;}
</style>
<path class="st0" d="M25.5,5.2C25.5,5.2,25.4,5.2,25.5,5.2L25.5,5.2z"/>
<path class="st1" d="M28,22.6c0-1,0.1-2.7-0.1-3.5c-1.1-0.5-4.6-0.1-5.6-0.2c-0.5-0.1-0.3,0-0.5-0.5c-0.4,0-1.8,0.1-2-0.2
	c0.4-0.2,1.6-0.1,2.1-0.1c3.1,0,2.9,0.1,2.9-3.9c0-4.1,0.5-3.6-5-3.6h-4.4c-2.5,0-2.1,0.6-2.1,4.2s-0.2,3.3,4.3,3.3
	c0.5,0,0.6-0.1,0.6,0.2c-0.9,0.4-1.5-0.5-2.3,0.6h-4V9c4.3-0.1,9.4,0,13.8,0C28.5,9,28,9.4,28,4.5c0-0.6,0-1.2-0.1-1.7
	c-1-0.5-6.2-0.2-7.7-0.2H3.6C2,2.6,2,2.6,2,4.1v19.3c0,1.6-0.4,2.2,1.4,2.2l0.3,1.8c0.5,0.1,1.6,0.1,2.1-0.1c0.4-0.2,0.4-1,0.4-1.7
	c4.3-0.1,13.2,0,17.7,0c0.1,1.6-0.1,1.8,1.4,1.8c1.3,0,1.1,0.1,1.4-1.8C28.4,25.6,28,25.1,28,22.6z M19.6,5.1v-1h6.8l0.1,2.7
	c-0.1,0.8,0,0.5-0.4,0.6c-0.3-0.2-0.3-0.6-0.1-1.1l-0.1-1c0,0,0,0-0.1-0.1c-0.2,0.1-0.3,0-0.3,0s0,0.1-0.1,0.2
	c-0.1,0.5,0.3,1.5-0.1,1.9h-0.4V5.7c-0.1-0.7,0-0.4-0.4-0.5c-0.5,0.4,0.1,1.5-0.4,2.2h-0.5V6.6c0-1.7,0.1-1.2-0.2-1.3
	c-0.3,0.1-0.1-0.2-0.3,0.4v1.8H22c0.1-0.6,0.8-1.7,0.4-2.2c-0.5,0.1-0.4,0.5-0.6,1c0,0.5-0.1,0.8-0.3,1.2h-1.9V5.1z M10.2,19.1H3.6
	v-7V8.7c1.6,0,4.9-0.1,6.5,0L10.2,19.1L10.2,19.1z M10.4,7.7H3.6v-3L3.5,4.1h6.9V7.7z M11.4,4.1h7.2v3.3h-7.2
	C11.4,7.4,11.4,4.1,11.4,4.1z M14.8,16.4V12h8.3v4.4H14.8z"/>
<polygon class="st2" points="3.6,20.8 3.6,24 10.4,24 10.4,20.1 3.6,20.1 "/>
<rect x="11.4" y="20.4" class="st2" width="7.2" height="3.6"/>
<rect x="19.6" y="20.4" class="st2" width="6.8" height="3.6"/>
<path class="st3" d="M5.9,22.6c0.5,0.2,1.4,0.2,1.9,0l0.1-0.8c-0.4,0-1-0.1-1.5,0C5.6,21.7,5.8,22.1,5.9,22.6L5.9,22.6z"/>
<path class="st3" d="M9.5,17.7c0-0.6,0-0.7-0.3-1.2c-0.5-0.1-0.8-0.1-0.9,0.4C8,18.7,9.5,19.2,9.5,17.7L9.5,17.7z"/>
<path class="st3" d="M22.1,21.7v0.8c0.6,0.2,1.5,0.2,2,0c0.1-0.5,0.3-0.7-0.4-0.8C23.5,21.6,22.3,21.7,22.1,21.7L22.1,21.7z"/>
<path class="st3" d="M9.2,7.2c0.5-0.5,0.6-2.3-0.4-2.1C8.3,5.2,8.4,5.8,8.4,6.3C8.4,6.9,8.5,7.2,9.2,7.2L9.2,7.2z"/>
<path class="st3" d="M14.1,21.7L14,22.5c0.6,0.2,1.5,0.2,2,0l0.1-0.7C15.6,21.7,14.3,21.6,14.1,21.7L14.1,21.7z"/>
</svg>
