<?xml version="1.0" encoding="utf-8"?>
<!-- Generator: Adobe Illustrator 24.0.2, SVG Export Plug-In . SVG Version: 6.00 Build 0)  -->
<svg version="1.1" id="Слой_1" xmlns="http://www.w3.org/2000/svg" xmlns:xlink="http://www.w3.org/1999/xlink" x="0px" y="0px"
	 viewBox="0 0 30 30" style="enable-background:new 0 0 30 30;" xml:space="preserve">
<style type="text/css">
	.st0{fill-rule:evenodd;clip-rule:evenodd;fill:#32B9AE;}
</style>
<g>
	<path class="st0" d="M6.3,6.8V4C3.8,4,2.5,5.3,2.5,7.6v14.1c0,1.3-0.1,2,0.6,2.9c0.4,0.5,1.2,1.2,2.3,1.3h22V6.7H6.3V6.8z
		 M3.3,11.7c0-3.1-0.8-6.5,2.2-6.9v14.9c-0.7,0.1-1.3,0.3-1.8,0.7c-0.2,0.2-0.1,0.2-0.4,0.3C3.4,17.8,3.3,14.7,3.3,11.7z M26.6,25.3
		c-3.5-0.1-7.2,0-10.7,0c-3.3,0-7.3,0.2-10.5-0.1c-1.8-0.1-2.7-2.3-1.7-3.6c0.6-0.8,1.4-1.1,2.6-1.1v-13h20.3L26.6,25.3z"/>
	<path class="st0" d="M17.9,18.6l-0.1-0.7h-1.7l-0.4-2.5c1.7-1,1.2-3.5-1-3.9V9h-0.9v2.4c-1.1,0.5-2.5,1.1-1.9,2.9
		c0.3,0.9,0.9,0.7,0.8,1.5c-0.1,0.7-0.3,1.4-0.4,2.1h-1.7l-0.1,0.8h1.6l-1,5.1l0.8,0.1l1-5.3h2.4l1.1,5.2l0.8-0.1l-1-5.1
		C16.2,18.6,17.9,18.6,17.9,18.6z M14.7,15l0.6,2.9h-2.1l0.5-2.7c-0.2-0.2-0.5-0.4-0.8-0.6c-0.7-0.8-0.1-2.2,1.1-2.3
		C15.8,12,16.6,14.3,14.7,15z"/>
	<path class="st0" d="M22.9,9h-2.5c0.2,3,0,8.4,0,11.8c0,0.8,0.1,0.9,0.5,1.5c0.1,0.2,0.2,0.4,0.3,0.6l0.5,0.7
		c0.3-1.1,1.1-1.5,1.1-2.9C22.9,17.4,22.7,12,22.9,9z M21.3,9.8h0.8v0.4v1.2v0.5h-0.8V9.8z M22,21.2c0,0.3-0.2,0.6-0.5,0.8
		c-0.1-0.5-0.3-0.4-0.3-1v-8.5h0.7c0.1,1.4,0,5.6,0,7.4C22,20.3,22.1,20.9,22,21.2z"/>
</g>
</svg>
