<?xml version="1.0" encoding="utf-8"?>
<!-- Generator: Adobe Illustrator 24.0.2, SVG Export Plug-In . SVG Version: 6.00 Build 0)  -->
<svg version="1.1" id="Слой_1" xmlns="http://www.w3.org/2000/svg" xmlns:xlink="http://www.w3.org/1999/xlink" x="0px" y="0px"
	 viewBox="0 0 30 30" style="enable-background:new 0 0 30 30;" xml:space="preserve">
<style type="text/css">
	.st0{fill:#32B9AE;}
</style>
<g>
	<g>
		<path class="st0" d="M9.6,26.6c-0.1,0-0.1,0-0.2,0c-0.1-0.1-0.2-0.2-0.3-0.3C9,25.9,9,25.5,9,25.1c-0.1-1-0.2-1.9-0.4-2.7
			c-0.3-0.1-1.2-0.1-1.6-0.1c-0.1,0-0.2,0-0.3,0c-0.8,0-0.9,0-1,0.3C5.6,22.9,5.5,24,5.3,26l0,0c0,0.1-0.1,0.3-0.2,0.3
			c-0.1,0.1-0.3,0.1-0.4,0c-1.3-0.4-2.2-1.5-2.5-3c-0.3-1.6,0.3-3.2,1.5-4.2c1-0.9,1.2-1.7,1.2-2.9c0-2,0-4,0-5.9C5,9,5,7.6,5,6.2
			c0-0.8,0.1-1.5,0.4-2c0.4-0.6,1-1,1.8-1c0.7,0,1.2,0.2,1.6,0.6c0.5,0.5,0.7,1.3,0.7,2.3c0,1.4,0,2.9,0,4.3c0,2.1,0,4.3,0,6.4
			c0,0.9,0.2,1.5,0.9,2c1.2,1,1.9,2.4,1.8,3.8c-0.1,1.5-0.9,2.9-2.4,3.8C9.8,26.6,9.7,26.6,9.6,26.6z M6.6,21.3c0.1,0,0.2,0,0.3,0
			s0.2,0,0.3,0c1.4,0,2.2,0,2.3,0.6c0.3,1,0.4,2,0.5,3c0,0.1,0,0.3,0,0.4c0.8-0.7,1.3-1.7,1.4-2.7c0.1-1.2-0.5-2.3-1.5-3.1
			C9,18.8,8.6,18,8.6,16.8c0-2.1,0-4.3,0-6.4c0-1.4,0-2.9,0-4.3c0-0.8-0.1-1.4-0.5-1.7C7.9,4.3,7.6,4.2,7.2,4.2l0,0
			c-0.7,0-1.4,0.3-1.4,2.1c0,1.4,0,2.8,0,4.1c0,1.9,0,3.9,0,5.9c0,1.4-0.2,2.5-1.5,3.6c-1,0.8-1.4,2.1-1.2,3.4
			c0.2,0.9,0.7,1.7,1.4,2.1c0.1-1.8,0.2-2.7,0.5-3.3C5.3,21.3,5.9,21.3,6.6,21.3z"/>
	</g>
	<g>
		<path class="st0" d="M26.2,19.5c-0.9,0-1.8,0-2.8-0.1c-0.1,0-0.3-0.1-0.4-0.2c-0.1-0.2-0.3-1-0.1-1.4c0.3-0.9,0.1-2-0.5-2.9
			c-0.6-0.8-1.4-1.3-2.2-1.4c-0.2,0-0.5,0.1-1,0.5c-1.4,1-2.6,1.1-3.6,0.3c-1.6-1.4-2.8-1.2-4.4,0.6c-0.1,0.1-0.3,0.2-0.5,0.1
			c-0.2-0.1-0.3-0.2-0.3-0.4V8.2c0-0.2,0.1-0.3,0.2-0.4c0.1-0.1,0.3-0.1,0.5,0s0.3,0.2,0.4,0.4c0.2,0.2,0.4,0.3,0.5,0.4
			c0.2,0.1,0.4,0.1,0.6,0.2c0.6,0.2,1.3,0.5,1.6,0.3c0.6-0.3,1-1,1.4-1.6C15.7,7.2,15.9,7,16,6.8c0-0.1,0-0.2,0-0.2
			c0-0.2,0-0.4,0-0.6c0.1-0.3,0.3-0.5,0.4-0.7c0.1-0.1,0.1-0.1,0.2-0.2s0.2-0.2,0.3-0.2c0.1,0,0.3,0,0.3,0.1
			c0.1,0.1,0.1,0.1,0.2,0.2c0.3,0.2,0.6,0.5,0.5,0.9c-0.2,1.4,0.3,2,0.7,2.3c0.6,0.5,1.5,0.8,2.4,1c1.6,0.4,3,1.2,4,2.4
			c0.9,1.1,1.6,2.5,2,4.2c0.1,0.5,0.3,0.9,0.4,1.4c0.1,0.2,0.1,0.4,0.2,0.6l0,0c0.1,0.1,0.2,0.4,0,0.6c0,0-0.1,0.1-0.1,0.2
			c-0.2,0.3-0.4,0.7-0.8,0.8C26.6,19.5,26.4,19.5,26.2,19.5z M23.7,18.5c1.1,0.1,2.1,0.1,3,0.1c0-0.1,0.1-0.2,0.2-0.3l0,0v-0.1
			c-0.1-0.2-0.1-0.4-0.2-0.6c-0.2-0.5-0.3-0.9-0.4-1.4c-0.8-3.3-2.5-5.2-5.3-5.9c-1-0.2-2-0.5-2.8-1.2s-1.1-1.6-1-2.9
			c0,0-0.1-0.1-0.2-0.2c-0.1,0.1-0.1,0.2-0.1,0.2s0,0.2,0,0.3c0,0.2,0,0.6-0.1,0.8c-0.1,0.2-0.2,0.4-0.4,0.6c-0.5,0.8-1,1.5-1.8,1.9
			c-0.6,0.3-1.5,0-2.3-0.3c-0.2-0.1-0.4-0.1-0.6-0.2c-0.2-0.1-0.4-0.2-0.5-0.3v4.5c0.7-0.6,1.4-0.9,2-1c0.9-0.1,1.8,0.3,2.8,1.1
			c0.6,0.6,1.5,0.4,2.5-0.4c0.6-0.5,1.1-0.7,1.5-0.7c1.1,0,2.2,0.7,2.9,1.7c0.8,1.1,1,2.5,0.6,3.7C23.7,18.1,23.7,18.3,23.7,18.5z"
			/>
	</g>
	<g>
		<path class="st0" d="M25.2,27.5c-0.5,0-1-0.1-1.4-0.3c-1.2-0.7-1.5-2.1-0.9-3.5c0.3-0.7,0.8-1.4,1.2-2.2c0.2-0.3,0.4-0.7,0.6-1
			c0.1-0.1,0.2-0.2,0.4-0.2l0,0c0.2,0,0.3,0.1,0.4,0.2c0.2,0.4,0.4,0.7,0.6,1.1c0.5,0.7,0.9,1.4,1.2,2.2c0.7,1.4,0.3,2.8-0.9,3.5
			C26.2,27.4,25.7,27.5,25.2,27.5z M25.2,21.5C25.1,21.7,25,21.8,25,22c-0.4,0.7-0.9,1.4-1.2,2.1c-0.4,0.8-0.4,1.8,0.5,2.4
			c0.4,0.3,1.4,0.3,1.8,0c1-0.6,0.9-1.6,0.6-2.4c-0.3-0.7-0.7-1.4-1.2-2.1C25.4,21.8,25.3,21.7,25.2,21.5z"/>
	</g>
	<g>
		<path class="st0" d="M20.7,5.8c-0.3,0-0.6-0.1-1-0.2c-1.8-0.9-3.6-0.9-5.4,0c-0.5,0.2-1.7,0.2-2-0.3c-0.3-0.6-0.3-1.5,0-2
			c0.3-0.6,1.5-0.6,2-0.4c2.1,0.9,3.8,0.9,5.6-0.1c0.5-0.3,1.1-0.3,1.6,0s0.7,0.8,0.7,1.5c0,0.6-0.3,1.1-0.7,1.3
			C21.2,5.7,21,5.8,20.7,5.8z M18.5,4.2c0.5,0.1,1.1,0.3,1.6,0.6C20.5,5,20.8,5,21,4.9c0.2-0.1,0.3-0.4,0.3-0.6l0,0
			c0-0.3-0.1-0.6-0.3-0.8c-0.2-0.1-0.4-0.1-0.7,0C19.6,3.8,19.1,4,18.5,4.2z M13,4.7c0.2,0.1,0.7,0.1,0.9,0c0.6-0.3,1.1-0.5,1.7-0.6
			C15,4,14.5,3.8,13.9,3.6c-0.2-0.1-0.7-0.1-0.9,0C12.9,3.9,12.9,4.4,13,4.7z"/>
	</g>
</g>
</svg>
