<?xml version="1.0" encoding="utf-8"?>
<!-- Generator: Adobe Illustrator 24.0.2, SVG Export Plug-In . SVG Version: 6.00 Build 0)  -->
<svg version="1.1" id="Слой_1" xmlns="http://www.w3.org/2000/svg" xmlns:xlink="http://www.w3.org/1999/xlink" x="0px" y="0px"
	 viewBox="0 0 30 30" style="enable-background:new 0 0 30 30;" xml:space="preserve">
<style type="text/css">
	.st0{fill:#32B9AE;}
</style>
<g>
	<path class="st0" d="M2.5,15.8c0.6-0.2,1.2-0.4,1.8-0.6C4.5,15.1,4.7,15,5,15c-0.4-0.8-0.8-1.5-1.2-2.3c0.8,0.4,1.5,0.8,2.3,1.2
		C6.4,13,6.7,12.2,7,11.3c0.3,0.9,0.6,1.7,0.8,2.5c0.8-0.4,1.5-0.8,2.3-1.2c-0.3,0.7-0.6,1.3-1,2c0.4-0.2,0.6,0.1,0.8,0.3
		c0.3,0.4,0.7,0.6,1.2,0.7c0.1,0,0.2,0.1,0.3,0.1c-0.2,0.1-0.3,0.1-0.5,0.2c0.3,0.3,0.6,0.6,0.9,0.9c0.1,0,0.1,0,0.2,0
		c0.3-0.1,0.6-0.2,0.9-0.3c-0.4-0.5-0.3-1.1-0.3-1.6c0-3.2,0-6.4,0-9.6c0-1.1,0.5-2,1.4-2.6c0.4-0.3,0.9-0.4,1.4-0.4
		c2.2,0,4.4,0,6.6,0c1.2,0,2.3,0.9,2.6,2c0.1,0.5,0.1,1.1,0.1,1.7c0,2.7,0,5.4,0,8.1c0,0.5,0,0.9,0,1.4c0,0.3-0.1,0.6-0.3,0.9
		c0.3,0.1,0.6,0.2,1,0.3c1.1,0.3,1.9,1,2.1,2.2c0,0.1,0,0.2,0.1,0.3c0,1.3,0,2.6,0,3.9v0.1c-0.1,0.7-0.4,1.2-1,1.5
		c-0.3,0.1-0.6,0.2-1,0.3c0,0.8,0,1.6,0,2.4l0,0c-0.1,0-0.2,0-0.3,0c-0.7,0-1.4,0-2,0c-4.4,0-8.8,0-13.1,0c-0.1,0-0.2,0-0.3,0
		c0-0.1,0-0.2,0-0.3c0-1.7,0-3.4,0-5.1c0-1.1-0.1-2.2,0.1-3.3c-0.7-0.3-1.4-0.7-2.1-1c-0.3,0.8-0.5,1.6-0.8,2.5
		c-0.3-0.9-0.6-1.7-0.8-2.5c-0.8,0.4-1.5,0.8-2.3,1.2c0.4-0.8,0.8-1.6,1.2-2.3c-0.3-0.1-0.5-0.2-0.7-0.3C3.7,16.2,3.1,16,2.5,15.8
		L2.5,15.8z M13.4,10.4L13.4,10.4c0,1.7,0,3.4,0,5.2c0,0.5,0.1,0.6,0.6,0.6c3.1,0,6.1,0,9.2,0c0.6,0,0.7-0.1,0.7-0.7
		c0-3.4,0-6.7,0-10.1c0-0.2,0-0.4-0.1-0.6c-0.3-1-1-1.5-2-1.5c-2.1,0-4.2,0-6.3,0c-0.5,0-0.9,0.1-1.3,0.4c-0.5,0.4-0.8,0.9-0.8,1.6
		C13.4,7,13.4,8.7,13.4,10.4z M26.7,21.4c0-0.6,0-1.2,0-1.9c0-0.9-0.6-1.7-1.6-1.9c-0.6-0.1-1.1-0.3-1.7-0.5c-0.3-0.1-0.6-0.2-1-0.2
		s-0.9,0-1.3,0c-0.2,0-0.3,0-0.3,0.2c-0.4,0.9-1.1,1.4-2.1,1.4s-1.8-0.5-2.3-1.4c0-0.1-0.1-0.2-0.2-0.2c-0.7,0-1.3-0.1-2,0.1
		c-0.6,0.2-1.1,0.3-1.7,0.5c0,0,0,0.1,0.1,0.1c0.9,0.9,1.8,1.8,2.7,2.7c0.1,0,0.2,0,0.3,0c0.6-0.2,1.2-0.1,1.6,0.3
		c0.3,0.3,0.6,0.6,1,0.9c0.1,0.1,0.2,0.1,0.3,0.1c0.3-0.1,0.6-0.2,0.9-0.2c1.2,0,2.4,0,3.5,0c0.3,0,0.7,0,1,0c0-0.4,0-0.8,0-1.2
		c0.3,0,0.5,0,0.8,0c0,0.4,0,0.8,0,1.2C25.4,21.4,26,21.4,26.7,21.4z M18.9,26.6c-0.1-0.1-0.1-0.1-0.2-0.2c-1.2-1.2-2.4-2.4-3.5-3.5
		c-0.5-0.5-0.6-1.1-0.4-1.8c0-0.1,0-0.2-0.1-0.3c-0.9-1-1.9-1.9-2.9-2.9c-0.1-0.1-0.2-0.1-0.3,0c-0.6,0.4-0.9,1-0.9,1.7
		c0,0.6,0,1.2,0,1.8c0,0.2,0,0.5,0,0.7c0.7,0,1.3,0,2,0c0-0.5,0-1,0-1.6c0.3,0,0.6,0,0.8,0c0,2,0,4,0,6C15.3,26.6,17,26.6,18.9,26.6
		z M26.7,22.2c-0.9,0-1.8,0-2.7,0c-1.6,0-3.1,0-4.7,0c-0.6,0-1,0.4-1.1,1c0,0.6,0.4,1,1,1c1,0,2.1,0,3.1,0c1.1,0,2.2,0,3.3,0
		c0.5,0,1-0.4,1-0.9C26.7,22.9,26.7,22.6,26.7,22.2z M10.6,26.6c0.7,0,1.3,0,2,0c0-1.2,0-2.4,0-3.6c-0.7,0-1.3,0-2,0
		C10.6,24.3,10.6,25.4,10.6,26.6z M15.5,21.6L15.5,21.6c-0.1,0.3,0,0.5,0.2,0.7c1.2,1.3,2.5,2.5,3.7,3.8c0.1,0.1,0.3,0.3,0.4,0.4
		c0.2,0.2,0.5,0.2,0.8,0.1s0.4-0.4,0.4-0.7c0-0.4-0.4-0.9-0.9-0.9c-0.3,0-0.6,0-0.9,0c-1.5,0-2.3-1.5-1.7-2.6c0-0.1,0-0.2,0-0.2
		c-0.3-0.3-0.6-0.7-1-1c0-0.2-0.2-0.2-0.5-0.1c0.2,0.1,0.3,0.3,0.5,0.4c-0.2,0.2-0.4,0.4-0.6,0.7C15.8,21.9,15.6,21.8,15.5,21.6z
		 M7,13.9c-0.1,0.2-0.1,0.4-0.2,0.5c-0.1,0.3-0.4,0.4-0.7,0.3c-0.2-0.1-0.3-0.1-0.5-0.2c0,0.3,0.4,0.5,0.2,0.9
		c-0.2,0.4-0.6,0.3-0.8,0.5C5.1,16,5.3,16,5.4,16c0.4,0.1,0.5,0.4,0.3,0.8c-0.1,0.1-0.1,0.3-0.2,0.4C5.8,17,6,17,6.2,16.9
		s0.5,0,0.6,0.3c0.1,0.2,0.1,0.4,0.2,0.6c0.1-0.2,0.1-0.3,0.2-0.5C7.3,16.9,7.7,16.8,8,17c0.1,0.1,0.3,0.1,0.4,0.2
		c-0.1-0.2-0.2-0.3-0.2-0.5C8,16.3,8.1,16.1,8.4,16c0.1-0.1,0.3-0.1,0.4-0.1v-0.1c-0.8-0.1-1.4,0.4-2.2,0.4
		c-0.1-0.3-0.1-0.5-0.2-0.7c0.4-0.1,0.8-0.3,1.3-0.4c0.4-0.1,0.5-0.3,0.6-0.6c-0.2,0.1-0.3,0.1-0.4,0.2c-0.3,0.2-0.6,0.1-0.7-0.3
		C7.1,14.2,7.1,14.1,7,13.9z M24.7,25.1c-1,0-2,0-3.1,0c0.3,0.5,0.3,1,0.1,1.6c1,0,2,0,3,0C24.7,26.1,24.7,25.6,24.7,25.1z
		 M11.1,17.3c-0.3-0.3-0.6-0.6-0.9-0.9l-0.1-0.1c-0.3,0.1-0.7,0.2-1,0.4c0.3,0.7,0.7,1.3,1,2C10.3,18,10.6,17.6,11.1,17.3z M17.3,17
		c0.3,0.5,0.8,0.8,1.4,0.8s1-0.3,1.4-0.8C19.1,17,18.2,17,17.3,17z"/>
	<path class="st0" d="M18.7,4.9c1.2,0,2.4,0,3.5,0c0.6,0,0.9,0.3,0.9,0.9c0,1.3,0,2.5,0,3.8c0,0.7-0.3,0.9-1,0.9c-2.3,0-4.7,0-7,0
		c-0.6,0-0.9-0.3-0.9-0.9c0-1.3,0-2.6,0-3.8c0-0.6,0.3-0.9,0.9-0.9C16.3,4.9,17.5,4.9,18.7,4.9z M15.1,5.7c0,1.4,0,2.7,0,4
		c2.4,0,4.8,0,7.2,0c0-1.3,0-2.7,0-4C19.9,5.7,17.5,5.7,15.1,5.7z"/>
	<path class="st0" d="M19.9,13.4c0,0.7-0.5,1.2-1.2,1.2c-0.6,0-1.2-0.6-1.2-1.2c0-0.7,0.5-1.2,1.2-1.2
		C19.3,12.1,19.9,12.7,19.9,13.4z M18.3,13.4c0,0.2,0.2,0.4,0.4,0.4c0.2,0,0.4-0.2,0.4-0.4S18.9,13,18.7,13
		C18.4,13,18.3,13.1,18.3,13.4z"/>
	<path class="st0" d="M23.1,13.4c0,0.7-0.5,1.2-1.2,1.2c-0.6,0-1.2-0.6-1.2-1.2c0-0.7,0.5-1.2,1.2-1.2
		C22.5,12.2,23.1,12.7,23.1,13.4z M22.3,13.4c0-0.2-0.2-0.4-0.4-0.4c-0.2,0-0.4,0.2-0.4,0.4s0.2,0.4,0.4,0.4S22.3,13.6,22.3,13.4z"
		/>
	<path class="st0" d="M15.4,12.2c0.7,0,1.2,0.6,1.2,1.2c0,0.7-0.6,1.2-1.2,1.2c-0.6,0-1.2-0.6-1.2-1.2
		C14.2,12.7,14.8,12.1,15.4,12.2z M15.4,13.8c0.2,0,0.4-0.2,0.4-0.4S15.6,13,15.4,13S15,13.2,15,13.4C15.1,13.6,15.2,13.8,15.4,13.8
		z"/>
	<path class="st0" d="M18.4,6.3c0.1,0.2,0.3,0.3,0.5,0.5c-0.8,0.8-1.6,1.6-2.4,2.4C16.4,9,16.2,8.8,16,8.7
		C16.8,7.9,17.6,7.1,18.4,6.3z"/>
	<path class="st0" d="M18.9,9.2c-0.2-0.2-0.4-0.4-0.5-0.5c0.4-0.4,0.8-0.8,1.2-1.2c0.2,0.2,0.4,0.4,0.5,0.6
		C19.7,8.4,19.3,8.8,18.9,9.2z"/>
	<path class="st0" d="M20.8,6.3c0.1,0.2,0.3,0.4,0.5,0.5c-0.2,0.2-0.4,0.4-0.7,0.7c-0.2-0.2-0.3-0.4-0.5-0.5
		C20.3,6.8,20.6,6.5,20.8,6.3z"/>
</g>
</svg>
