<?xml version="1.0" encoding="utf-8"?>
<!-- Generator: Adobe Illustrator 24.0.2, SVG Export Plug-In . SVG Version: 6.00 Build 0)  -->
<svg version="1.1" id="Слой_1" xmlns="http://www.w3.org/2000/svg" xmlns:xlink="http://www.w3.org/1999/xlink" x="0px" y="0px"
	 viewBox="0 0 50 50" style="enable-background:new 0 0 50 50;" xml:space="preserve">
<style type="text/css">
	.st0{fill:#FFFFFF;}
</style>
<g>
	<path class="st0" d="M8.71,47C5.56,47,3,44.44,3,41.29V8.71C3,5.56,5.56,3,8.71,3h32.57C44.44,3,47,5.56,47,8.71v32.57
		c0,3.15-2.56,5.71-5.71,5.71H8.71z"/>
	<path d="M41.29,3.5c2.87,0,5.21,2.34,5.21,5.21v32.57c0,2.87-2.34,5.21-5.21,5.21H8.71c-2.87,0-5.21-2.34-5.21-5.21V8.71
		c0-2.87,2.34-5.21,5.21-5.21H41.29 M41.29,2.5H8.71C5.28,2.5,2.5,5.28,2.5,8.71v32.57c0,3.43,2.78,6.21,6.21,6.21h32.57
		c3.43,0,6.21-2.78,6.21-6.21V8.71C47.5,5.28,44.72,2.5,41.29,2.5L41.29,2.5z"/>
</g>
<g>
	<path d="M16.06,19.95c0.01,0.36-0.25,0.65-0.67,0.65c-0.37,0-0.64-0.29-0.64-0.65c0-0.37,0.28-0.66,0.66-0.66
		C15.81,19.29,16.06,19.58,16.06,19.95z M14.89,27.38v-5.8h1.06v5.8H14.89z"/>
	<path d="M21.83,27.17c-0.28,0.14-0.89,0.34-1.67,0.34c-1.75,0-2.89-1.19-2.89-2.96c0-1.79,1.22-3.08,3.12-3.08
		c0.62,0,1.18,0.16,1.46,0.3l-0.24,0.82c-0.25-0.14-0.65-0.28-1.22-0.28c-1.33,0-2.05,0.98-2.05,2.19c0,1.34,0.86,2.17,2.02,2.17
		c0.6,0,1-0.16,1.3-0.29L21.83,27.17z"/>
	<path d="M28.25,24.43c0,2.15-1.49,3.08-2.89,3.08c-1.57,0-2.78-1.15-2.78-2.99c0-1.94,1.27-3.08,2.88-3.08
		C27.13,21.45,28.25,22.66,28.25,24.43z M23.65,24.49c0,1.27,0.73,2.23,1.76,2.23c1.01,0,1.76-0.95,1.76-2.25
		c0-0.98-0.49-2.23-1.74-2.23C24.19,22.24,23.65,23.39,23.65,24.49z"/>
	<path d="M29.59,23.15c0-0.6-0.01-1.09-0.05-1.57h0.94l0.06,0.96h0.02c0.29-0.55,0.96-1.09,1.92-1.09c0.8,0,2.05,0.48,2.05,2.47
		v3.47h-1.05v-3.35c0-0.94-0.35-1.71-1.34-1.71c-0.7,0-1.24,0.49-1.42,1.08c-0.05,0.13-0.07,0.31-0.07,0.49v3.49h-1.05V23.15z"/>
</g>
</svg>
