<?xml version="1.0" encoding="utf-8"?>
<!-- Generator: Adobe Illustrator 24.0.2, SVG Export Plug-In . SVG Version: 6.00 Build 0)  -->
<svg version="1.1" id="Слой_1" xmlns="http://www.w3.org/2000/svg" xmlns:xlink="http://www.w3.org/1999/xlink" x="0px" y="0px"
	 viewBox="0 0 30 30" style="enable-background:new 0 0 30 30;" xml:space="preserve">
<style type="text/css">
	.st0{fill:#32B9AE;}
</style>
<g>
	<path class="st0" d="M26.2,18.1c-0.1,0-0.1,0.1-0.1,0.2c-0.1,0.2-0.2,0.4-0.3,0.5c-0.5,0.5-1,0.9-1.5,1.4c-0.3,0.3-0.7,0.3-1,0
		s-0.2-0.7,0.1-1c0,0,0,0,0.1-0.1c0.3-0.3,0.3-0.4-0.1-0.5c-0.3-0.2-0.5-0.3-0.8-0.5c-0.1-0.1-0.2-0.1-0.4,0c-0.1,0.1-0.2,0-0.3,0
		c-0.1-0.1-0.2-0.3-0.4-0.4c-0.1,0.2-0.2,0.4-0.3,0.6c0.2,0,0.3,0.2,0.3,0.3c0.1,0.3,0.3,0.6,0.5,0.8c0.5,0.5,1,0.9,1.5,1.4
		c0.2,0.2,0.4,0.5,0.7,0.7c0.1,0.1,0.2,0.2,0.4,0.3c-0.2,0.1-0.4,0.2-0.6,0.1c0,0-0.1,0-0.1-0.1c-0.9-0.6-1.7-1.3-2.6-1.9
		c-0.3-0.2-0.6-0.4-0.7-0.8c-0.3,0.3-0.3,0.3,0,0.6c1.1,1,2.1,2,3.2,3c0.1,0.1,0.2,0.1,0.4,0.1c0.1,0,0.1-0.1,0.1-0.2
		s0.3-0.4,0.4-0.4c0,0,0.1,0,0.1,0.1c0.1,0.1,0.2,0.2,0.3,0.2c0.1,0.1,0.3,0.2,0.2,0.3c-0.1,0.2-0.2,0.4-0.4,0.4
		c-0.1,0-0.1,0-0.2,0.1c-0.1,0.3-0.3,0.6-0.6,0.7C24,24,24,24,24,24.1c-0.1,0.3-0.4,0.3-0.7,0.4c-0.1,0-0.1,0-0.1-0.1
		c0.1-0.2,0-0.6,0.3-0.7c0.2-0.1,0.2-0.4,0-0.5c-1.1-1-2.3-2.1-3.4-3.1C20,20,20,20,19.9,20.1c-0.3,0.2-0.3,0.2,0,0.5
		c0.5,0.6,1,1.1,1.5,1.7c0.1,0.1,0.1,0.1,0.2,0.1s0.2,0.1,0.3,0.2c0.3,0.4,0.7,0.8,1,1.2c0.2,0.2,0.2,0.4,0,0.5s-0.3,0.3-0.5,0.4
		c-0.3,0.2-0.7,0.3-1,0.1c-0.4-0.2-0.5-0.5-0.5-0.9c0-0.1,0-0.2-0.1-0.3c0-0.2,0.1-0.4,0.1-0.6c0,0,0,0,0.1,0s0.2,0.1,0.2,0
		c0.1-0.2,0.2-0.3,0.2-0.5c0,0,0-0.1-0.1-0.1c-0.5-0.6-1.1-1.3-1.6-1.9c-0.1-0.1-0.1-0.1-0.2,0c-0.3,0.3-0.7,0.5-1.1,0.6
		c-0.1,0-0.1,0.1-0.1,0.2c0.1,0.3,0.2,0.7,0.4,1c0.2,0.4,0.4,0.6,0.8,0.6c0.1,0,0.2,0,0.2,0.2c0.3,0.7,0.6,1.3,0.9,2
		c0.1,0.1,0,0.2-0.1,0.2c-0.4,0.2-0.9,0.4-1.3,0.6c-0.1,0.1-0.2,0-0.2-0.1c-0.2-0.5-0.4-0.9-0.7-1.4l0,0c0,0.2,0.1,0.3-0.2,0.4
		c-0.3,0-0.6,0.1-1,0.1c0.2,0.2,0.3,0.4,0.4,0.7v0.1c-0.2,0.4-0.1,1-0.6,1.3c-0.4,0.3-1,0.3-1.4,0c-0.5-0.3-0.6-0.8-0.6-1.3
		c0-0.3,0.1-0.5,0.3-0.7v-0.1c-0.2-0.3,0.1-0.5,0-0.8c0-0.3-0.1-0.5-0.1-0.8C15,22.9,15,22.5,15,22.1c0-0.1,0-0.2-0.1-0.2
		S14.8,22,14.8,22c-0.1,0.3-0.2,0.6-0.2,0.9c-0.1,0.2-0.1,0.4,0,0.5c0.1,0.4,0,0.7-0.1,1.1c0,0.1-0.2,0.1-0.3,0.1
		c-0.2-0.1-0.2,0-0.2,0.1s-0.1,0.2-0.1,0.4c0,0.1-0.1,0.1-0.2,0.1c-0.6-0.2-1.1-0.3-1.7-0.5c-0.2-0.1-0.4-0.1-0.7-0.2
		c-0.1,0-0.2,0-0.1-0.2c0.1-0.1,0.1-0.3,0.1-0.5c0-0.1,0-0.2-0.1-0.2c-0.2-0.1-0.1-0.2-0.1-0.3c0.1-0.4,0.2-0.7,0.5-1l0.1-0.1
		c0.1-0.4,0.2-0.7,0.3-1.1c0-0.1,0-0.1-0.1-0.2c-0.3-0.2-0.3-0.2-0.6,0.1c-0.2,0.2-0.3,0.3-0.3,0.6c0,0.3-0.2,0.3-0.4,0.5
		c-0.3,0.2-0.5,0.4-0.8,0.5c-0.3,0.2-0.5,0.3-0.8,0.5s-0.6,0.4-1,0.6c-0.3,0.2-0.7,0.4-1,0.6c-0.2,0.2-0.5,0.3-0.7,0.5
		C6.2,24.9,6.1,24.9,6,25H5.9l-0.1-0.1c-0.3-0.4-0.3-0.4,0-0.8c1.2-1.3,2.3-2.5,3.5-3.8c0.2-0.2,0.3-0.5,0.5-0.8
		c0.1-0.1,0-0.1,0-0.1s-0.1-0.1-0.1,0c-0.1,0.1-0.3,0.2-0.4,0.1c-0.1,0-0.1,0-0.1,0.1c-0.8,0.6-1.6,1.2-2.4,1.8
		c-0.1,0.1-0.1,0.1-0.1,0.2c0,0.4-0.1,0.6-0.6,0.7c0.1-0.1,0.1-0.2,0.2-0.3c0.1-0.1,0-0.2,0-0.2C6,21.6,6,21.6,5.8,21.9
		c0,0.1-0.1,0.1-0.1,0.2c-0.1-0.3-0.1-0.5,0.1-0.7c0.1-0.2,0.3-0.2,0.4-0.2s0.2,0,0.3-0.1c0.9-0.6,1.7-1.3,2.6-1.9
		c0.1,0,0.1-0.1,0.1-0.2s0.1-0.2,0.1-0.3c0,0,0.2-0.1,0.1-0.2c-0.1-0.1-0.1-0.3-0.2-0.1H9.1c-0.1,0-0.2,0-0.2,0.1s-0.1,0.2-0.2,0.1
		c-0.1,0-0.2,0-0.2,0.1C8.6,19,8.6,19,8.5,19s-0.2,0-0.2,0.1s0,0.2-0.2,0.1c-0.1,0-0.2,0-0.2,0.1s-0.1,0.2-0.2,0.1
		c-0.1,0-0.2,0-0.2,0.1s0,0.2-0.2,0.1c-0.1,0-0.2,0-0.2,0.1s0,0.2-0.2,0.1c-0.1,0-0.2,0-0.2,0.1S6.6,20.1,6.5,20s-0.2,0-0.2,0.1
		s-0.1,0.2-0.2,0.1c-0.1,0-0.2,0-0.2,0.1s-0.1,0.2-0.2,0.1s-0.2,0-0.2,0.1s0,0.2-0.2,0.1c-0.1,0-0.2,0-0.2,0.1S5,20.8,5,20.9
		c-0.1,0-0.1-0.1-0.1-0.1c0-0.1-0.1-0.2-0.1-0.3c-0.1-0.4-0.4-0.8-0.6-1.2c0-0.1,0-0.2,0.1-0.2c0.5-0.3,1-0.7,1.5-1
		C6,18,6,17.9,5.8,17.7c-0.1-0.1-0.2-0.1-0.4-0.2c-0.2-0.1-0.3-0.1-0.4-0.3c-0.1-0.1-0.2-0.2-0.1-0.4c0.1-0.1,0.2-0.2,0.3-0.2
		c0.2,0,0.4,0.1,0.5,0.2C5.9,17,6,17.1,6.1,17.3c0.2,0.2,0.3,0.2,0.6,0.1C7.6,17.3,8,17,8.4,16.8c0.1-0.1,0.2-0.2,0.1-0.3
		c0-0.1,0-0.1-0.1-0.2c0-0.1-0.1-0.1-0.2-0.1c-1.1,0.1-2.1,0.1-3.2,0.2c-0.4,0-0.4,0-0.5,0.4c-0.1,0.3-0.2,0.5-0.4,0.7
		c-0.1,0.1-0.2,0.1-0.2,0c0-0.2-0.2-0.3-0.4-0.3C3.5,17,3.2,17,3,16.8c0.2-0.1,0.4-0.2,0.6-0.2c0.1,0,0.1-0.1,0.1-0.2
		C3.5,15.9,3.5,16,3.4,16c-0.3,0.1-0.5,0.2-0.8,0.3c0,0-0.1,0.1-0.1,0v-0.1c0.3-0.4,0.5-0.8,1-1c0.1,0,0.2,0,0.3,0
		c0,0,0.1,0,0.1,0.1c0.6,0.4,1.2,0.4,1.9,0.4c0.8-0.1,1.6-0.1,2.4-0.1c0.1,0,0.2,0,0.2-0.2s0-0.3-0.1-0.4c-0.1-0.1-0.3-0.1-0.4-0.1
		c-0.7-0.1-1.4-0.3-2-0.8C5.8,14,5.7,14,5.6,14c-0.1,0-0.3,0.1-0.3-0.1H5.2c-0.6-0.1-1-0.3-1.5-0.5c-0.1,0-0.1-0.1-0.1-0.2
		c0-0.1,0-0.2,0.2-0.2c0.5,0,1.1,0,1.6,0.1h0.1c0.1-0.2,0.2,0,0.4,0c0.1,0,0.2,0,0.3,0c0.8-0.2,1.5-0.2,2.3,0.1
		c0.2,0.1,0.3,0,0.3-0.2c0-0.1,0-0.1,0.1-0.2c-0.1,0.1-0.3,0.1-0.4,0c-0.1,0-0.1,0-0.2,0c-0.1,0.1-0.3,0-0.4-0.1s-0.1-0.3,0-0.4
		c0.1-0.1,0.1-0.1,0-0.2c-0.1-0.1,0-0.2,0.1-0.3c0.2-0.1,0.5-0.2,0.7-0.5c-0.2-0.2-0.2-0.2,0-0.4c0.3-0.3,0.3-0.5,0-0.8
		S8,9.5,7.7,9.2C7.4,9,7.3,8.9,7.3,8.8c0-0.1,0-0.2,0-0.4s0-0.4,0.2-0.5c0,0,0.1-0.1,0-0.1c-0.1-0.1-0.1,0-0.2,0H7.2
		C7,7.7,6.8,7.5,6.6,7.3l0,0c0.1,0,0.1,0.1,0.2,0.1c0-0.1,0.2-0.1,0.1-0.2c0,0,0-0.1,0,0C7.2,7.2,7,7,7.1,6.9C7.2,7,7.2,6.8,7.3,6.8
		l0,0C7.5,6.9,7.6,7,7.8,7.1c0,0.1,0.2,0.1,0,0.2v0.1h0.1c0.2-0.2,0.3,0,0.4,0.1s0.2,0.2,0.3,0.2l0.1,0.1c0.2-0.1,0.3,0,0.4,0.1
		c0.5,0.5,1,0.9,1.5,1.4c0.1,0.1,0.1,0.1,0.2,0C11,9.2,11.1,9.2,11.3,9c-0.5-0.3-0.9-0.7-1.3-1.2C9.6,7.4,9.3,7,9.1,6.4
		C9,6.4,9,6.3,9,6.3c0-0.1-0.3-0.1-0.1-0.2C9,6,9,5.7,9.2,5.8c0.1,0,0.1,0,0.1-0.1C10,5.2,10.6,5,11.4,5c0.4,0,0.6,0.2,0.9,0.2
		C12.7,5.3,13,5.6,13.2,6c0.2,0.3,0.4,0.7,0.3,1c0,0.3,0,0.7-0.1,1c0.4-0.1,0.7-0.1,1-0.2c0.1,0,0.1-0.1,0.1-0.1
		c0-0.3,0-0.6-0.1-0.9c0-0.1,0-0.2,0.1-0.1c0.1,0,0.2,0,0.1-0.2c0-0.2,0-0.4,0-0.7c0-0.2,0.1-0.3,0.2-0.3c0.6-0.2,1.1-0.4,1.7-0.7
		c0.2-0.1,0.2-0.1,0.2-0.3c0-0.2,0-0.3,0-0.5c0-0.1,0-0.1-0.1-0.1S16.5,4,16.5,4.1c0,0.3-0.1,0.4-0.4,0.4c-1,0-1.9,0.1-2.9,0.1
		c-0.3,0-0.4-0.1-0.4-0.4c0-0.2,0-0.3,0-0.5c0-0.3,0.1-0.4,0.4-0.4c1,0,2-0.1,3-0.1c0.3,0,0.4,0.1,0.4,0.3c0,0.1,0,0.2,0.1,0.2
		s0.2,0.1,0.2,0.2c0,0.2,0,0.4,0,0.7c0,0.2-0.1,0.2-0.2,0.3c-0.6,0.2-1.1,0.4-1.7,0.6c-0.1,0.1-0.2,0.1-0.2,0.3c0,0.2,0,0.4,0,0.5
		s0,0.3,0.2,0.2c0.1,0,0.1,0.1,0.1,0.1c0,0.3,0,0.6,0,0.9c0,0.1,0,0.1,0.1,0.1c0.6,0,1.3,0.1,1.9,0.3c0.1,0,0.1,0,0.2-0.1
		c0-0.1,0.1-0.3,0.1-0.4c0-0.3,0.1-0.5,0.2-0.7c0.2-0.2,0.2-0.4,0.2-0.6c0-0.1,0-0.1-0.1-0.2C17.5,6.1,17.2,6,17,6s-0.3-0.2-0.1-0.3
		c0.4-0.8,0.9-1.6,1.3-2.3l0.1-0.1c0.2-0.4,0.5-0.3,0.7,0c0,0.2,0,0.4,0,0.6c0.1,0.7,0.1,1.5,0.2,2.2c0,0.2-0.1,0.3-0.3,0.3
		c-0.3-0.1-0.5-0.1-0.8-0.2c-0.1,0-0.1,0-0.2,0.1c0,0.2-0.1,0.3-0.1,0.5c0,0.1,0,0.3,0.1,0.4c0,0.1,0,0.2,0,0.3
		c-0.1,0.2-0.2,0.4-0.2,0.6c0,0.1,0,0.2,0.1,0.2c0.2,0.1,0.4,0.2,0.6,0.3c0.1,0,0.1,0.1,0.1,0C18.8,8.4,19,8.2,19.2,8
		c0.3-0.3,0.3-0.4,0-0.6C19.1,7.3,19,7.2,19.1,7c0.3-0.6,0.5-1.2,0.8-1.7C20,5.2,20,5.1,20.2,5.2c0.5,0.3,1,0.7,1.5,1
		c0.1,0.1,0.1,0.1,0,0.2c-0.3,0.4-0.7,0.8-1,1.2l0,0C20.5,8,20.3,8.1,20,7.9c-0.2-0.1-0.3,0-0.4,0.2c-0.1,0.2-0.2,0.4-0.3,0.6
		c-0.1,0.1-0.2,0.3-0.2,0.4c0.1,0.1,0.2,0.2,0.3,0.3c0.3,0.2,0.3,0.2,0.6,0c0.4-0.4,0.7-0.7,1-1c0.1-0.1,0.1-0.1,0.2-0.1v0.1h0.1
		c0,0.1-0.1,0.1-0.2,0.2L21,8.7c0.1,0.1,0.1,0,0.2,0c0.2-0.2,0.4-0.4,0.6-0.6c0,0,0.1-0.1,0-0.1c-0.1-0.1-0.1,0-0.1,0
		c-0.1,0-0.1,0.1-0.1,0.1c-0.1,0.1-0.1,0-0.1,0s0,0-0.1,0l0,0c1.1-1.1,2.2-2.2,3.3-3.3c0.1-0.1,0.1-0.1,0.2,0
		C25,5,25.1,5.2,25.3,5.3c0.1,0.1,0.1,0.2,0,0.3c-0.8,0.8-1.6,1.6-2.4,2.4s-1.5,1.5-2.3,2.3c-0.1,0.1-0.2,0.1-0.1,0.2
		c0.1,0.1,0.1,0.3,0.3,0.2c1.2-0.5,2.4-1,3.6-1.5c0,0,0.1,0,0.1-0.1c0.2-0.1,0.3,0,0.4,0.1s0,0.3-0.2,0.4c-0.2,0.1-0.4,0.2-0.7,0.3
		c-0.1,0-0.1,0-0.1,0.1c0.1,0.1,0.1,0,0.2,0c0.3-0.1,0.7-0.3,1-0.4c0.2-0.1,0.4,0,0.4,0.1c0.1,0.2,0,0.3-0.2,0.4
		c-0.3,0.1-0.7,0.3-1,0.4c-0.1,0-0.1,0.1-0.2,0.1c0,0.1,0.1,0,0.1,0c0.4-0.2,0.8-0.3,1.2-0.5c0.2-0.1,0.4,0,0.4,0.1
		c0.1,0.2,0,0.3-0.2,0.4c-0.4,0.2-0.7,0.3-1.1,0.5c-0.1,0-0.1,0.1-0.2,0.1c0.1,0.1,0.2,0,0.2,0c0.3-0.1,0.6-0.2,0.9-0.4
		c0.2-0.1,0.4,0,0.4,0.1c0.1,0.2,0,0.3-0.2,0.4c-0.6,0.2-1.1,0.5-1.7,0.7c0.2,0.1,0.3,0.1,0.5,0.2c0.2,0.1,0.3,0.2,0.3,0.4
		s-0.2,0.3-0.4,0.2c-0.6,0-1.2,0-1.9-0.1c-0.3,0-0.6,0.2-0.9,0.3c-0.1,0,0,0.2,0,0.3s0.1,0.1,0.1,0.1c1.1-0.1,2.3-0.1,3.4-0.2
		c0.6,0,1.1-0.1,1.7-0.1c0.1,0,0.2,0,0.2,0.2c0,0.7,0.1,1.5,0.1,2.2c0,0.1,0,0.1-0.1,0.1c-0.2,0-0.4,0-0.6,0c-0.1,0-0.1,0-0.2-0.1
		c0-0.5-0.1-0.9-0.1-1.4c0-0.2-0.1-0.2-0.2-0.2c-1.4,0.1-2.8,0.2-4.2,0.3c-0.1,0-0.2,0-0.1,0.1c0,0.1-0.1,0.3,0.1,0.4
		c0.3,0.1,0.6,0.1,0.9,0.2c0.3,0,0.5,0.1,0.7,0.3c0.2,0.1,0.5,0.2,0.7,0.1c0.1-0.1,0.3,0,0.3,0.2c0,0.1,0,0.1,0.1,0.1
		c0.5,0.1,1.1,0.2,1.6,0.3c0.1,0,0.2,0,0.3,0c0.2-0.1,0.4,0.1,0.5,0.1s0.1,0.1,0,0.1c0,0.1,0,0.1-0.1,0.1c-0.2,0-0.4,0-0.6-0.1
		c-0.4-0.2-0.8-0.2-1.2-0.3c-0.1,0-0.2,0-0.3-0.1c-0.2-0.1-0.5-0.1-0.6,0.1c-0.1,0.1-0.2,0-0.2-0.1c-0.1-0.2-0.3-0.2-0.5-0.2
		c-0.6,0.1-1.1-0.1-1.6-0.2c-0.1,0-0.2-0.1-0.2,0s-0.1,0.2,0.1,0.3c0.3,0.1,0.6,0.3,0.9,0.4c0.2,0.1,0.3,0.2,0.2,0.5
		c-0.1,0.3,0.3,0.8,0.6,0.9c0.1,0,0.2,0,0.2-0.1c0.1-0.1,0.2-0.1,0.3,0c0.1,0.2,0.3,0.2,0.5,0.1s0.4-0.3,0.6-0.3c0,0,0.1,0,0,0
		c0-0.1,0.1-0.1,0.1-0.2l0,0c0,0.1-0.2,0.1,0,0.2l0,0c0,0.1,0,0.1,0.1,0.1c0,0,0,0,0,0.1l0,0l0,0l0,0l0,0c0.1,0,0.1,0.2,0.2,0.2
		c0,0,0,0,0.1,0C26.1,18.1,26.1,18.1,26.2,18.1L26.2,18.1z M10.7,5.9c0.1,0,0.1-0.1,0.2-0.1c0.2-0.2,0.4-0.4,0.6-0.6l0,0
		c-0.3,0.1-0.4,0.4-0.5,0.6C10.8,5.8,10.8,5.8,10.7,5.9L10.7,5.9L10.7,5.9z M9.8,10.3C9.8,10.4,9.7,10.3,9.8,10.3
		c-0.2-0.1-0.3-0.2-0.3-0.2s-0.1-0.1-0.1,0c-0.1,0.1,0,0.1,0,0.1c0.1,0.1,0.1,0.1,0.2,0.2c0,0,0.1,0.1,0.2,0.1
		C9.9,10.4,9.7,10.3,9.8,10.3c0.1,0.1,0.1-0.1,0.2-0.1c0.1,0,0.1-0.1,0-0.2C9.9,9.9,9.8,9.9,9.7,9.7C9.9,9.8,10,9.9,10.2,10
		c0-0.2-0.2-0.3-0.3-0.4C10,9.5,10,9.7,10.2,9.7c0-0.2-0.1-0.3-0.2-0.3c-0.1,0,0,0.1-0.1,0.2c-0.2,0-0.2,0.1-0.3,0.2
		c-0.1,0-0.2,0.1,0,0.2C9.6,10.1,9.7,10.2,9.8,10.3z M12.8,7.8c0.6-0.3,0.6-0.4,0.6-0.6C13.2,7.4,13,7.6,12.8,7.8
		c-0.1,0-0.1,0-0.2,0.1C12.7,7.9,12.8,7.8,12.8,7.8z M24.2,6.1c0.1,0,0.1,0.1,0.2,0.1c0-0.3-0.1-0.4-0.4-0.4c0,0.1,0.1,0.1,0.1,0.2
		l0,0C24,6,23.9,5.9,24,6.1c0,0,0.1,0.1,0,0.1c-0.1-0.1-0.1-0.1-0.2-0.2c0,0.3,0.1,0.4,0.4,0.4c-0.1-0.1-0.1-0.1-0.2-0.1
		c0-0.1,0.1,0,0.1,0C24.3,6.3,24.2,6.2,24.2,6.1L24.2,6.1z M6.3,17.7C6.3,17.7,6.4,17.7,6.3,17.7C6.4,17.7,6.4,17.7,6.3,17.7
		c-0.2-0.2-0.3-0.4-0.5-0.6c-0.1,0-0.2-0.1-0.2,0c-0.1,0.1,0,0.1,0.1,0.2C5.9,17.4,6.1,17.5,6.3,17.7z M24,19.9c0.1,0,0.1,0,0.1-0.1
		c-0.1-0.1-0.3-0.3-0.4-0.4s-0.1,0-0.1,0l0,0c-0.3,0.2-0.3,0.2-0.1,0.4c0.1,0.1,0.1,0.2,0.2,0.2c0,0,0.1,0.2,0.2,0.1
		S23.8,20,24,19.9C24,20.1,24,20.1,24,19.9L24,19.9z M9,9h0.1V8.9C9,8.8,8.9,8.7,8.8,8.6C9,8.6,9,8.7,9.1,8.8c0,0,0.1,0.1,0.1,0V8.7
		C9.1,8.6,8.9,8.4,8.7,8.3c-0.1-0.1-0.1,0-0.1,0.1c0,0,0,0-0.1,0s0,0.3-0.2,0.2c0,0.1-0.1,0.2-0.3,0.3c0,0,0,0,0.1,0.1
		c0.2,0.2,0.3,0.3,0.5,0.5c0.1,0.1,0.1,0.1,0.1,0s0-0.1,0.1-0.1s0.1-0.1,0-0.1c0,0,0,0,0.1,0C9,9.2,9,9.1,9,9L9,9z M15.2,21.2
		c3.6,0,6.5-2.9,6.5-6.5s-2.9-6.5-6.5-6.5s-6.5,2.9-6.5,6.5C8.7,18.3,11.6,21.2,15.2,21.2z M18.2,24.1c-0.1-0.2-0.1-0.3-0.2-0.5
		c-0.1-0.1-0.1-0.2,0-0.3c0.2-0.3,0.3-0.6,0.1-1c-0.2-0.3-0.4-0.7-0.6-1c0-0.1-0.1-0.1-0.2,0c-0.4,0.1-0.8,0.2-1.2,0.3
		c-0.1,0-0.1,0.1-0.1,0.2c0.1,0.4,0.2,0.9,0.3,1.3c0.1,0.3,0,0.7,0.3,0.9v0.1c0,0.2,0.1,0.3,0.3,0.2C17.4,24.2,17.8,24.2,18.2,24.1z
		 M14.1,23.6c0-0.2,0.1-0.3,0.1-0.4c0.1-0.2,0-0.3-0.1-0.5c-0.4-0.5-0.9-0.8-1.5-0.7c-0.6,0.1-0.8,0.2-0.9,0.7c0,0.1,0,0.2,0,0.3
		c0,0.1,0.1,0.1,0.2,0.1c0.1,0,0.1-0.1,0.2-0.2c0-0.1,0.1-0.1,0.1-0.1c0.1,0,0.1,0,0.1,0.1c0,0.2,0.2,0.2,0.3,0.2s0.2-0.1,0.2-0.2
		s0.1-0.1,0.1-0.1c0.1,0,0.1,0.1,0.1,0.2s0,0.1,0,0.2s0,0.2,0.1,0.2s0.1-0.1,0.2-0.1c0-0.2,0.1-0.3,0.1-0.5c0-0.1,0.1-0.2,0.2-0.2
		c0.1,0,0.1,0.1,0.1,0.2c-0.1,0.2-0.1,0.3-0.1,0.5c0,0.1,0,0.1,0.1,0.1s0.1,0,0.1-0.1s0-0.2,0.2-0.2C14.1,23.4,14.1,23.6,14.1,23.6z
		 M5.6,13.4c0.2,0.1,0.3,0.2,0.5,0.3c0.6,0.4,1.3,0.6,2,0.7c0.1,0,0.2,0,0.2-0.1c0-0.3,0-0.5,0.1-0.7c0-0.1,0-0.2-0.1-0.2
		c-0.7-0.2-1.3-0.2-2-0.1C6,13.3,5.8,13.4,5.6,13.4z M14.4,22.8c0.1-0.3,0.2-0.7,0.3-1c0-0.1,0.1-0.1-0.1-0.2
		c-0.7-0.1-1.5-0.3-2.1-0.5c0,0-0.1-0.1-0.1,0c-0.1,0.3-0.2,0.7-0.3,1C13,21.7,13.8,22,14.4,22.8z M21.5,24.5c0.4,0,0.6-0.3,0.6-0.6
		c0-0.4-0.3-0.6-0.6-0.6c-0.4,0-0.7,0.3-0.6,0.7C20.9,24.2,21.2,24.5,21.5,24.5z M23.4,21C23.4,20.9,23.4,20.9,23.4,21
		c-0.4-0.4-0.7-0.6-1-0.9c-0.2-0.2-0.5-0.3-0.6-0.6c-0.1-0.2-0.4-0.3-0.5-0.5c-0.2-0.2-0.2,0-0.3,0.1c-0.1,0.1-0.1,0.2,0,0.2
		c0.3,0.2,0.5,0.4,0.8,0.6c0.5,0.3,0.9,0.8,1.4,1.2c0,0,0,0.1,0.1,0.1C23.4,21.1,23.4,21,23.4,21z M6.9,21.3c0.1,0,0.1,0,0.2-0.1
		c0.7-0.5,1.4-1,2.1-1.5c0,0,0.1,0,0.1-0.1v-0.1c0-0.1-0.1-0.1-0.1,0c0,0-0.1,0-0.1,0.1c-0.7,0.5-1.4,1-2,1.5L7,21.2
		C6.8,21.2,6.8,21.3,6.9,21.3z M11.2,20.8c0.1,0,0.2,0,0.3-0.1c0-0.1-0.1-0.1-0.2-0.2c-0.3-0.2-0.6-0.4-0.9-0.7c0,0-0.1-0.1-0.2-0.1
		c-0.1,0-0.1,0.1-0.1,0.2s0,0.1,0,0.2C10.3,20.4,10.9,20.8,11.2,20.8z M15.4,25.6c0,0.5,0.2,0.8,0.6,0.9c0.4,0,0.7-0.3,0.8-0.6
		c0-0.1,0-0.1,0-0.1c-0.1,0-0.1,0.1-0.1,0.1c0,0.1-0.1,0.3-0.3,0.3c-0.5,0.1-0.7,0.2-0.9-0.4C15.4,25.6,15.4,25.6,15.4,25.6z
		 M11.8,7.6L11.8,7.6c0.2,0,0.3-0.1,0.4-0.2c0.4-0.3,0.7-0.5,1.1-0.8c0.1-0.1,0-0.2,0-0.2c-0.1-0.1-0.1,0-0.2,0
		c-0.2,0.1-0.3,0.3-0.5,0.4C12.4,7,12.1,7.3,11.8,7.6z M19.5,24c-0.1,0-0.2,0-0.1,0.2c0.1,0.3,0.3,0.6,0.4,0.9
		c0,0.1,0.1,0.1,0.2,0.1s0.1-0.1,0-0.2C19.8,24.6,19.7,24.3,19.5,24C19.6,24,19.5,23.9,19.5,24z M21.8,16.8
		c-0.2,0.4-0.2,0.4,0.1,0.7c0.1,0.1,0.2,0.1,0.2,0c0.2-0.2,0.2-0.2,0-0.4C22,17,21.9,16.9,21.8,16.8z M20.3,24.9
		C20.3,24.8,20.3,24.8,20.3,24.9c-0.2-0.4-0.3-0.7-0.5-1c0-0.1-0.1,0-0.1,0c-0.1,0-0.1,0.1-0.1,0.1c0.1,0.3,0.3,0.6,0.4,0.9
		c0,0,0,0.1,0.1,0C20.2,24.9,20.3,24.9,20.3,24.9z M11.2,6.5c0.1,0,0.1,0,0.1,0c0.3-0.3,0.6-0.7,0.9-1c0,0,0.1-0.1,0-0.1
		c-0.1-0.1-0.2-0.1-0.3,0C11.8,5.7,11.5,6.1,11.2,6.5z M18.9,24.2c-0.1,0-0.2,0-0.1,0.2c0.1,0.3,0.3,0.6,0.4,0.9
		c0,0.1,0,0.1,0.1,0.1s0.1-0.1,0-0.2C19.3,24.9,19.2,24.6,18.9,24.2C19,24.3,19,24.2,18.9,24.2z M19.7,25.1L19.7,25.1
		c-0.2-0.3-0.3-0.7-0.5-1c0-0.1-0.1,0-0.1,0s-0.1,0,0,0.1c0.2,0.3,0.3,0.6,0.4,0.9C19.6,25.2,19.6,25.2,19.7,25.1
		C19.7,25.2,19.7,25.2,19.7,25.1z M23.2,15.3c0.1,0,0.1,0,0.2,0c0-0.1-0.1-0.1-0.1-0.1c-0.3-0.1-0.7-0.2-1-0.2c0,0-0.1-0.1-0.1,0
		s0,0.1,0.1,0.1C22.5,15.1,22.9,15.2,23.2,15.3z M23.3,15.4c0-0.1-0.1-0.1-0.1-0.1c-0.3-0.1-0.7-0.2-1-0.2c-0.1,0-0.1-0.1-0.2,0
		c0,0.1,0.1,0.1,0.1,0.1c0.3,0.1,0.7,0.2,1,0.2C23.3,15.5,23.3,15.5,23.3,15.4z M9.4,19.1c0,0.1,0,0.1,0.1,0.2s0.3,0.1,0.4,0
		c0.1-0.1,0-0.2-0.1-0.3c0,0,0-0.1-0.1-0.1s-0.1-0.2-0.2-0.1C9.5,18.9,9.4,19,9.4,19.1z M22.1,15.3L22.1,15.3c-0.1,0.1,0,0.1,0,0.1
		c0.3,0.1,0.6,0.1,0.9,0.2c0.1,0,0.2,0.1,0.3,0c0-0.1-0.1-0.1-0.2-0.1l0,0C22.7,15.5,22.4,15.4,22.1,15.3z M14.4,23.2
		c0,0.3-0.3,0.6-0.1,1C14.4,23.9,14.5,23.6,14.4,23.2z M19.1,25.4c-0.1-0.3-0.3-0.6-0.5-1c0,0,0,0-0.1,0c0,0,0,0,0,0.1
		c0.2,0.3,0.3,0.6,0.5,1C19,25.5,19,25.5,19.1,25.4C19.1,25.5,19.1,25.4,19.1,25.4z M11.3,23.5c0.4-0.3,0.3-0.6,0.4-1
		C11.5,22.8,11.4,23.1,11.3,23.5z M3.8,15.8c0,0-0.1,0-0.1,0.1c0.1,0.2,0.1,0.4,0.2,0.6c0,0.1,0,0.1,0.1,0.1s0.1-0.1,0-0.1
		C4,16.3,4,16.1,3.8,15.8C3.9,15.8,3.9,15.8,3.8,15.8z M4.2,15.7c-0.1,0-0.1,0.1-0.1,0.1c0.1,0.2,0.1,0.3,0.2,0.5c0,0,0,0.1,0.1,0.1
		s0.1-0.1,0-0.1C4.4,16.1,4.3,15.9,4.2,15.7C4.3,15.7,4.2,15.7,4.2,15.7z M25,18.1c0-0.1-0.1-0.1-0.2-0.1c-0.1,0.1-0.2,0.2-0.3,0.3
		c-0.1,0.1,0,0.1,0.1,0.2C24.7,18.5,25,18.2,25,18.1z M15.7,25.4c-0.1,0-0.2,0.1-0.2,0.2s0.1,0.2,0.2,0.2c0.1,0,0.2-0.1,0.2-0.2
		S15.9,25.4,15.7,25.4z M16.2,25.2c0.1-0.1,0.3,0.1,0.3-0.1c0-0.1,0-0.2-0.1-0.1c-0.1,0-0.3,0-0.3,0.1S16.1,25.2,16.2,25.2z
		 M15.6,25c0,0,0.2,0.1,0.2-0.1c0-0.1,0-0.2-0.1-0.1c-0.1,0-0.3-0.1-0.3,0.2C15.4,25,15.5,25,15.6,25z M15.6,25.3
		c0.1-0.1,0.3,0.1,0.3-0.1c0-0.1,0-0.2-0.1-0.1c-0.1,0-0.3-0.1-0.3,0.2C15.5,25.3,15.5,25.3,15.6,25.3z M16.2,24.9
		c0,0,0.2,0.1,0.2-0.1c0-0.1,0-0.2-0.1-0.1c-0.1,0-0.3-0.1-0.3,0.2C16,24.9,16,24.9,16.2,24.9z M15.7,22.3c0-0.2-0.1-0.4-0.1-0.6
		c0,0,0-0.1-0.1-0.1c0,0-0.1,0-0.1,0.1c0,0.2,0.1,0.4,0.1,0.6C15.6,22.3,15.6,22.4,15.7,22.3C15.7,22.4,15.7,22.3,15.7,22.3z
		 M15.5,22.3c0-0.2-0.1-0.4-0.1-0.5s0-0.1-0.1-0.1s0,0.1,0,0.1c0,0.2,0.1,0.4,0.1,0.5c0,0,0,0.1,0.1,0.1V22.3z M15.9,22.3
		c0-0.2-0.1-0.4-0.1-0.6c0,0,0-0.1-0.1-0.1s-0.1,0.1,0,0.1c0,0.2,0.1,0.4,0.1,0.5C15.8,22.3,15.8,22.4,15.9,22.3
		C15.9,22.4,15.9,22.3,15.9,22.3z M4.9,13.2c0-0.1-0.1-0.2-0.2-0.2s-0.2,0.1-0.2,0.2c0,0.1,0.1,0.2,0.2,0.2
		C4.9,13.4,4.9,13.3,4.9,13.2z M9.2,11.2c0.1-0.2,0.2-0.3,0.3-0.4C9.2,10.8,9.1,10.9,9.2,11.2z M7.8,12.2c-0.1,0-0.1,0.1-0.1,0.2
		c0,0.1,0.1,0.2,0.2,0.2c0,0,0.1,0,0.1-0.1C8,12.3,7.9,12.3,7.8,12.2z M5.5,13.4L5.5,13.4c-0.1-0.1-0.1-0.1-0.2-0.2
		c-0.1,0-0.1,0-0.1,0.1s0,0.1,0.1,0.1C5.3,13.4,5.4,13.4,5.5,13.4z M10.5,20.8c0-0.1-0.1-0.1-0.1-0.1c-0.1,0-0.1,0-0.1,0.1
		s0.1,0.1,0.1,0.1C10.5,20.9,10.5,20.9,10.5,20.8z M10.8,20.9c-0.1,0-0.1,0-0.1,0.1s0.1,0.1,0.1,0.1c0.1,0,0.1,0,0.1-0.1
		C11,21,10.9,20.9,10.8,20.9z M10.2,20.5c0-0.1-0.1-0.1-0.1-0.1c-0.1,0-0.1,0.1-0.1,0.1c0,0.1,0.1,0.1,0.1,0.1
		C10.2,20.6,10.2,20.5,10.2,20.5z M18.9,9C19,9,19,8.9,18.9,9c0.1-0.2,0-0.2,0-0.2c-0.1,0-0.1,0-0.1,0.1C18.8,8.9,18.9,8.9,18.9,9z
		 M27.3,13.6c0,0,0-0.1-0.1-0.1s-0.1,0-0.1,0.1s0,0.1,0.1,0.1C27.2,13.7,27.3,13.7,27.3,13.6z M27.2,14c-0.1,0-0.1,0-0.1,0.1
		s0.1,0.1,0.1,0.1c0.1,0,0.1,0,0.1-0.1C27.3,14,27.3,14,27.2,14z M17.6,21.2c0.2,0.1,0.3,0.1,0.3-0.1C17.8,21.1,17.7,21.2,17.6,21.2
		z M3.6,13c0,0,0.1,0.1,0.2,0.1h0.1c0-0.1,0-0.1-0.1-0.1C3.7,12.9,3.7,13,3.6,13z M6.5,24.2c-0.1,0-0.1,0-0.1,0.1s0,0.1,0.1,0.1
		s0.1,0,0.1-0.1C6.6,24.3,6.6,24.2,6.5,24.2z M26.8,14.2c0.1,0,0.1,0,0.1-0.1s0-0.1-0.1-0.1s-0.1,0-0.1,0.1
		C26.7,14.2,26.7,14.2,26.8,14.2z"/>
	<path class="st0" d="M6.4,7.1C6.2,6.9,6.2,6.8,6.3,6.6c0.1-0.1,0-0.1,0-0.1c-0.3-0.3-0.7-0.6-1-1c0,0,0,0-0.1-0.1s-0.1-0.1,0-0.2
		s0.1,0,0.2,0C5.6,5.5,5.8,5.7,6.1,6c0.1,0.1,0.2,0.2,0.3,0.3c0.1,0.1,0.1,0.2,0.3,0c0.1-0.1,0.3,0,0.4,0.2l0,0C6.8,6.6,7,6.6,7,6.7
		l0,0c-0.1,0-0.1-0.1-0.2-0.1s0,0.1,0,0.1s-0.2,0-0.1,0.1l0,0C6.6,6.9,6.5,7,6.4,7.1L6.4,7.1z"/>
	<path class="st0" d="M25.8,17.2c0.2-0.2,0.5-0.3,0.8-0.2c0.1,0,0.1,0,0.2-0.1c0.1,0,0.1,0,0.1,0.1c-0.1,0.1,0,0.3,0,0.4
		c0,0.2-0.1,0.4-0.2,0.5s-0.1,0.1-0.2,0.2c0,0,0,0,0-0.1s0.2-0.1,0.1-0.2s-0.2-0.2-0.3,0c0,0,0,0-0.1,0l0,0l0.1-0.1l0,0l0,0
		c0,0,0,0-0.1-0.1c0,0,0,0-0.1-0.1c0-0.1-0.1,0-0.1-0.1C26,17.1,25.9,17.2,25.8,17.2L25.8,17.2z"/>
	<path class="st0" d="M7.2,6.6L7.2,6.6L7.2,6.6C7.3,6.7,7.2,6.7,7.2,6.6L7.2,6.6z"/>
	<path class="st0" d="M7.1,6.5L7.1,6.5L7.1,6.5C7.1,6.6,7.1,6.5,7.1,6.5L7.1,6.5z"/>
	<path class="st0" d="M21.4,8.1C21.4,8.2,21.3,8.2,21.4,8.1C21.3,8.1,21.3,8.1,21.4,8.1L21.4,8.1z"/>
	<path class="st0" d="M6.6,7.2C6.6,7.2,6.5,7.2,6.6,7.2C6.5,7.2,6.5,7.2,6.6,7.2L6.6,7.2L6.6,7.2z"/>
	<path class="st0" d="M6.5,7.2L6.5,7.2C6.5,7.1,6.5,7.1,6.5,7.2C6.5,7.1,6.5,7.2,6.5,7.2L6.5,7.2z"/>
	<path class="st0" d="M6.5,7.2C6.5,7.1,6.4,7.1,6.5,7.2C6.4,7.1,6.5,7.1,6.5,7.2C6.5,7.1,6.5,7.1,6.5,7.2C6.5,7.1,6.5,7.1,6.5,7.2z"
		/>
	<path class="st0" d="M6.4,7.1L6.4,7.1L6.4,7.1C6.4,7.1,6.5,7.1,6.4,7.1C6.5,7.1,6.4,7.1,6.4,7.1z"/>
	<path class="st0" d="M26.4,18C26.4,18,26.3,18,26.4,18C26.3,18.1,26.3,18,26.4,18C26.3,18,26.3,18,26.4,18C26.3,18,26.4,18,26.4,18
		z"/>
	<path class="st0" d="M26.3,18.1L26.3,18.1C26.3,18.1,26.2,18.1,26.3,18.1C26.2,18.1,26.3,18,26.3,18.1C26.3,18,26.3,18.1,26.3,18.1
		z"/>
	<path class="st0" d="M26.3,18.1C26.3,18.1,26.2,18.1,26.3,18.1C26.2,18.1,26.2,18.1,26.3,18.1C26.2,18.1,26.2,18.1,26.3,18.1
		C26.2,18.1,26.3,18.1,26.3,18.1z"/>
	<path class="st0" d="M7.2,6.6L7.2,6.6L7.2,6.6L7.2,6.6L7.2,6.6z"/>
	<path class="st0" d="M7.1,6.4C7.1,6.5,7.1,6.5,7.1,6.4C7.1,6.5,7.1,6.5,7.1,6.4C7,6.5,7,6.5,7.1,6.4C7,6.5,7,6.5,7.1,6.4z"/>
	<path class="st0" d="M26.4,18L26.4,18C26.4,18,26.3,18,26.4,18C26.3,18,26.4,18,26.4,18L26.4,18z"/>
	<path class="st0" d="M6.6,7.3L6.6,7.3C6.6,7.2,6.6,7.2,6.6,7.3C6.6,7.2,6.6,7.2,6.6,7.3L6.6,7.3z"/>
	<path class="st0" d="M25.6,17.3C25.7,17.3,25.7,17.3,25.6,17.3C25.7,17.3,25.7,17.3,25.6,17.3C25.7,17.3,25.7,17.4,25.6,17.3
		C25.7,17.4,25.6,17.3,25.6,17.3z"/>
	<path class="st0" d="M25.7,17.3L25.7,17.3L25.7,17.3L25.7,17.3L25.7,17.3z"/>
	<path class="st0" d="M25.7,17.2L25.7,17.2C25.8,17.2,25.8,17.2,25.7,17.2C25.8,17.3,25.8,17.3,25.7,17.2
		C25.7,17.3,25.7,17.3,25.7,17.2z"/>
	<path class="st0" d="M25.8,17.2L25.8,17.2L25.8,17.2L25.8,17.2L25.8,17.2z"/>
	<path class="st0" d="M25.8,17.7c0,0,0.1-0.1,0.1,0C25.9,17.7,25.9,17.7,25.8,17.7L25.8,17.7z"/>
	<path class="st0" d="M25.8,17.7C25.9,17.7,25.8,17.7,25.8,17.7L25.8,17.7L25.8,17.7z"/>
	<path class="st0" d="M10.7,5.9L10.7,5.9L10.7,5.9z"/>
	<path class="st0" d="M26.1,17.4L26.1,17.4c0.1-0.1,0.1-0.1,0.2,0C26.2,17.4,26.1,17.5,26.1,17.4z"/>
	<path class="st0" d="M26.3,17.5L26.3,17.5L26.3,17.5L26.3,17.5z"/>
	<path class="st0" d="M13.8,21.9c0-0.1,0-0.2,0.2-0.2c0.1,0,0.1,0.1,0.1,0.2s0,0.2-0.2,0.2C13.8,22.1,13.8,22.1,13.8,21.9z"/>
	<path class="st0" d="M8.3,8.9C8.5,9,8.6,9.1,8.7,9.3C8.5,9.2,8.4,9.1,8.3,8.9z"/>
	<path class="st0" d="M8.8,9.2C8.7,9.1,8.6,9,8.5,8.8C8.7,8.9,8.8,9,8.8,9.2C8.9,9.2,8.8,9.2,8.8,9.2z"/>
	<path class="st0" d="M9,9C8.8,9,8.7,8.8,8.7,8.7C8.8,8.8,8.9,8.9,9,9L9,9z"/>
	<path class="st0" d="M8.6,8.3l0.1,0.1C8.6,8.5,8.6,8.4,8.6,8.3C8.6,8.4,8.6,8.3,8.6,8.3z"/>
	<path class="st0" d="M23.7,19.9c-0.1-0.1-0.1-0.1-0.1-0.2C23.7,19.8,23.8,19.8,23.7,19.9C23.8,19.9,23.7,19.9,23.7,19.9z"/>
	<path class="st0" d="M24,20c0-0.1-0.1-0.1-0.1-0.2C24,19.8,24,19.9,24,20C24,19.9,24,19.9,24,20z"/>
	<path class="st0" d="M23.6,19.4l0.1,0.1l0,0C23.6,19.5,23.6,19.5,23.6,19.4C23.5,19.4,23.6,19.4,23.6,19.4z"/>
	<path class="st0" d="M23.6,19.6C23.6,19.6,23.6,19.5,23.6,19.6C23.6,19.5,23.6,19.5,23.6,19.6z"/>
	<path class="st0" d="M23.8,20C23.7,20,23.7,20,23.8,20C23.7,19.9,23.8,19.9,23.8,20z"/>
	<path class="st0" d="M26.2,17.9L26.1,18c0,0,0,0-0.1,0C26.1,17.9,26.1,17.9,26.2,17.9L26.2,17.9z"/>
	<path class="st0" d="M26.2,17.8l0.1-0.1l0,0C26.3,17.8,26.3,17.9,26.2,17.8C26.2,17.9,26.2,17.9,26.2,17.8z"/>
	<path class="st0" d="M26.1,17.7L26.1,17.7L26.1,17.7z"/>
	<path class="st0" d="M26.3,17.8L26.3,17.8L26.3,17.8z"/>
	<path class="st0" d="M6.7,6.9L6.7,6.9C6.8,7,6.7,6.9,6.7,6.9L6.7,6.9z"/>
	<path class="st0" d="M7,6.9C7,6.8,7,6.9,7,6.9C7,7,7,6.9,7,6.9z"/>
	<path class="st0" d="M6.7,7.2C6.7,7.1,6.7,7.1,6.7,7.2C6.7,7,6.7,7.1,6.7,7.2C6.8,7.1,6.8,7.2,6.7,7.2z"/>
	<path class="st0" d="M6.9,6.8C7,6.8,7,6.8,6.9,6.8C6.9,6.9,6.9,6.9,6.9,6.8z"/>
	<path class="st0" d="M6.7,6.9L6.7,6.9C6.7,6.8,6.7,6.8,6.7,6.9C6.7,6.8,6.7,6.8,6.7,6.9L6.7,6.9z"/>
	<path class="st0" d="M6.8,7.2C6.8,7.2,6.9,7.2,6.8,7.2L6.8,7.2L6.8,7.2z"/>
	<path class="st0" d="M6.8,6.7C6.8,6.7,6.9,6.7,6.8,6.7C6.8,6.8,6.8,6.8,6.8,6.7z"/>
	<path class="st0" d="M6.8,7.1C6.8,7.1,6.8,7.2,6.8,7.1C6.8,7.2,6.8,7.2,6.8,7.1C6.8,7.2,6.8,7.2,6.8,7.1C6.8,7.2,6.8,7.1,6.8,7.1z"
		/>
	<path class="st0" d="M6.8,6.8C6.9,6.7,6.9,6.7,6.8,6.8C6.9,6.8,6.8,6.8,6.8,6.8z"/>
	<path class="st0" d="M6.9,6.8C6.9,6.8,7,6.8,6.9,6.8L6.9,6.8z"/>
	<path class="st0" d="M24.1,5.9C24.1,6,24.1,6,24.1,5.9C24.1,6,24.1,6,24.1,5.9C24.1,6,24.1,6,24.1,5.9z"/>
	<path class="st0" d="M25.9,17.4L25.9,17.4C25.9,17.3,26,17.3,25.9,17.4C26,17.4,26,17.4,25.9,17.4z"/>
	<path class="st0" d="M25.7,17.5L25.7,17.5C25.8,17.5,25.8,17.5,25.7,17.5L25.7,17.5z"/>
	<path class="st0" d="M7,6.7L7,6.7L7,6.7L7,6.7z"/>
</g>
</svg>
