<?xml version="1.0" encoding="utf-8"?>
<!-- Generator: Adobe Illustrator 24.0.2, SVG Export Plug-In . SVG Version: 6.00 Build 0)  -->
<svg version="1.1" id="Слой_1" xmlns="http://www.w3.org/2000/svg" xmlns:xlink="http://www.w3.org/1999/xlink" x="0px" y="0px"
	 viewBox="0 0 30 30" style="enable-background:new 0 0 30 30;" xml:space="preserve">
<style type="text/css">
	.st0{fill:#4F535C;}
	.st1{fill:#454952;}
</style>
<g>
	<g>
		<path class="st0" d="M15.02,0.74c7.88,0,14.25,6.37,14.25,14.25c0,7.47-5.74,13.61-13.03,14.2c-0.4,0.07-0.81,0.07-1.21,0.07
			c-1.07,0-2.1-0.11-3.09-0.33C5.52,27.51,0.73,21.8,0.73,14.99C0.73,7.11,7.14,0.74,15.02,0.74 M15.02,0.01
			C6.74,0.01,0,6.74,0,14.99c0,6.95,4.95,13.12,11.77,14.66c1.03,0.23,2.12,0.34,3.25,0.34c0.45,0,0.9,0,1.34-0.07
			C23.98,29.31,30,22.75,30,14.99C30,6.74,23.28,0.01,15.02,0.01L15.02,0.01z"/>
	</g>
	<g>
		<path class="st1" d="M16.64,12c0.22-0.26,0.66-0.45,1.29-0.45c0.59,0,1.29,0.09,1.95,0.27l0.56-2.99
			c-1.14-0.4-2.32-0.51-3.53-0.51c-1.22,0-2.17,0.19-2.95,0.63c-0.77,0.43-1.29,0.91-1.58,1.62c-0.3,0.63-0.44,1.69-0.44,3.02v1.18
			H9.57v3.42h2.36v10.75c0.99,0.23,2.02,0.33,3.09,0.33c0.4,0,0.81,0,1.21-0.07V18.19h3.13v-3.42h-3.13v-1.1
			C16.23,12.82,16.35,12.3,16.64,12z"/>
	</g>
</g>
</svg>
