<?xml version="1.0" encoding="utf-8"?>
<!-- Generator: Adobe Illustrator 24.0.2, SVG Export Plug-In . SVG Version: 6.00 Build 0)  -->
<svg version="1.1" id="Слой_1" xmlns="http://www.w3.org/2000/svg" xmlns:xlink="http://www.w3.org/1999/xlink" x="0px" y="0px"
	 viewBox="0 0 132 207" style="enable-background:new 0 0 132 207;" xml:space="preserve">
<style type="text/css">
	.st0{fill:#FFFFFF;}
	.st1{fill:#353535;}
</style>
<path class="st0" d="M107.2,2.8h-91c-8.3,0-15,6.7-15,15v105c0,8.3,6.7,15,15,15h91c8.3,0,15-6.7,15-15v-105
	C122.2,9.6,115.4,2.8,107.2,2.8z"/>
<path class="st1" d="M107.2,4.8c7.2,0,13,5.8,13,13v105c0,7.2-5.8,13-13,13h-91c-7.2,0-13-5.8-13-13v-105c0-7.2,5.8-13,13-13
	L107.2,4.8 M107.2,2.8h-91c-8.3,0-15,6.7-15,15v105c0,8.3,6.7,15,15,15h91c8.3,0,15-6.7,15-15v-105C122.2,9.6,115.4,2.8,107.2,2.8
	L107.2,2.8z"/>
<path class="st1" d="M37.2,74.8h-5v-5c0-1.1-0.9-2-2-2s-2,0.9-2,2v5h-5c-1.1,0-2,0.9-2,2s0.9,2,2,2h5v5c0,1.1,0.9,2,2,2s2-0.9,2-2
	v-5h5c1.1,0,2-0.9,2-2S38.3,74.8,37.2,74.8z"/>
<path class="st1" d="M36.5,113.4l-3.5-3.5l3.5-3.5c0.8-0.8,0.8-2.1,0-2.8s-2-0.8-2.8,0l-3.5,3.5l-3.5-3.5c-0.8-0.8-2-0.8-2.8,0
	s-0.8,2.1,0,2.8l3.5,3.5l-3.5,3.5c-0.8,0.8-0.8,2.1,0,2.8s2,0.8,2.8,0l3.5-3.5l3.5,3.5c0.8,0.8,2,0.8,2.8,0
	C37.3,115.4,37.3,114.2,36.5,113.4z"/>
<path class="st1" d="M53.2,76.8L53.2,76.8c0-1.1,0.9-2,2-2h14c1.1,0,2,0.9,2,2l0,0c0,1.1-0.9,2-2,2h-14
	C54.1,78.8,53.2,77.9,53.2,76.8z"/>
<path class="st1" d="M101.2,87.8h-14c-1.1,0-2,0.9-2,2s0.9,2,2,2h14c1.1,0,2-0.9,2-2S102.3,87.8,101.2,87.8z"/>
<path class="st1" d="M101.2,93.8h-14c-1.1,0-2,0.9-2,2s0.9,2,2,2h14c1.1,0,2-0.9,2-2S102.3,93.8,101.2,93.8z"/>
<path class="st1" d="M107.2,9.8h-91c-4.4,0-8,3.6-8,8v105c0,4.4,3.6,8,8,8h91c4.4,0,8-3.6,8-8v-105C115.2,13.4,111.6,9.8,107.2,9.8z
	 M43.2,114.8c0,4.4-3.6,8-8,8h-10c-4.4,0-8-3.6-8-8v-10c0-4.4,3.6-8,8-8h10c4.4,0,8,3.6,8,8V114.8z M43.2,81.8c0,4.4-3.6,8-8,8h-10
	c-4.4,0-8-3.6-8-8v-10c0-4.4,3.6-8,8-8h10c4.4,0,8,3.6,8,8V81.8z M75.2,114.8c0,4.4-3.6,8-8,8h-10c-4.4,0-8-3.6-8-8v-10
	c0-4.4,3.6-8,8-8h10c4.4,0,8,3.6,8,8V114.8z M75.2,81.8c0,4.4-3.6,8-8,8h-10c-4.4,0-8-3.6-8-8v-10c0-4.4,3.6-8,8-8h10
	c4.4,0,8,3.6,8,8V81.8z M107.2,114.8c0,4.4-3.6,8-8,8h-10c-4.4,0-8-3.6-8-8v-43c0-4.4,3.6-8,8-8h10c4.4,0,8,3.6,8,8V114.8z
	 M107.2,48.8c0,4.4-3.6,8-8,8h-74c-4.4,0-8-3.6-8-8v-22c0-4.4,3.6-8,8-8h74c4.4,0,8,3.6,8,8V48.8z"/>
<g>
	<path d="M53.4,110.1L53.4,110.1c0-1.1,0.9-2,2-2h14c1.1,0,2,0.9,2,2l0,0c0,1.1-0.9,2-2,2h-14C54.3,112.1,53.4,111.2,53.4,110.1z"/>
	<path d="M62.4,118.6L62.4,118.6c-1.1,0-2-0.9-2-2l0,0c0-1.1,0.9-2,2-2l0,0c1.1,0,2,0.9,2,2l0,0C64.4,117.7,63.5,118.6,62.4,118.6z"
		/>
	<path d="M62.4,105.6L62.4,105.6c-1.1,0-2-0.9-2-2l0,0c0-1.1,0.9-2,2-2l0,0c1.1,0,2,0.9,2,2l0,0C64.4,104.7,63.5,105.6,62.4,105.6z"
		/>
</g>
<path class="st1" d="M80.1,198c-0.5-9.2-6.4-13.9-13.3-19.3c-1-0.8-1.9-1.5-2.9-2.3c-6.6-5.4-12.7-11.6-18.5-17.6l-2.5-2.6
	c-7-7.2-3.9-12.6-1.4-15.1c1.9-2,4.2-3,6.6-3c3.3,0,6.2,1.9,8.5,3.5c1.6,1.2,3.2,2.3,5.1,3.7l-0.5-1.9c-1.5-5.8-2.8-11-4.2-16.2
	c-0.7-2.6-1.4-5.1-2.1-7.7c-1.2-4.5-2.5-9.2-3.6-13.8c-0.8-3.5-0.5-6.3,0.9-8.5c1.3-1.9,3.3-3.1,6-3.6c0.8-0.1,1.5-0.2,2.3-0.2
	c3.2,0,7.4,1.4,9,8.2c1.2,4.7,2.5,9.4,3.9,14c0.3,1,0.6,2.1,0.9,3.1c2.4-1.1,4.4-1.7,6.3-1.7c3.4,0,5.6,2.2,7.4,4.9
	c2.7-1.4,4.7-2,6.6-2c3.7,0,6.1,2.5,8,5.4c2.8-1.3,4.9-1.9,6.9-1.9c5.9,0,8.1,5.5,9.5,10.9c0.4,1.4,0.8,2.8,1.1,4.2
	c1.3,4.6,2.6,9.4,3.6,14.3c1.7,7.6,0.7,14.2-2.9,20.1c-0.7,1.1-0.4,3.6-0.2,5.5l0.1,0.8c0.1,1.5,0.6,3.1,1.1,5c0.3,1,0.5,2,0.8,3.1
	l0.6,2.4l-42.7,11.5L80.1,198z"/>
<path class="st0" d="M60.4,96c3.6,0,5.6,2.3,6.6,6.3c1.7,6.7,3.7,13.3,5.7,20.1c3.5-1.8,5.9-2.8,7.8-2.8c2.6,0,4.3,1.8,6.5,5.8
	c3.2-1.9,5.5-2.9,7.5-2.9c2.7,0,4.6,1.9,7,6.1c3.3-1.8,5.8-2.7,7.8-2.7c3.5,0,5.5,2.8,7.1,9c1.6,6.1,3.3,12.2,4.7,18.4
	c1.4,6.4,1,12.4-2.6,18.3c-1.2,2-0.8,5.2-0.5,7.9c0.2,2.6,1.1,5.1,1.9,8.4c-12.3,3.3-24.3,6.6-37.4,10.1c-0.6-11.8-9.3-17-17.1-23.4
	c-7.4-6-14-13.1-20.7-20c-3.2-3.3-5.4-7.5-1.4-11.6c1.6-1.6,3.2-2.2,4.8-2.2c2.4,0,4.7,1.4,7,3c3,2.2,6,4.3,10.7,7.7
	c-2.4-9.5-4.4-17.1-6.3-24.8c-1.9-7.2-4-14.3-5.7-21.5c-1-4.2-0.3-8.1,4.9-9.1C59.3,96,59.9,96,60.4,96 M60.4,91L60.4,91
	c-0.9,0-1.8,0.1-2.7,0.3c-4.2,0.8-6.5,3-7.6,4.7c-1.8,2.8-2.2,6.3-1.2,10.4c1.1,4.7,2.4,9.4,3.6,13.9c0.7,2.5,1.4,5.1,2.1,7.7
	c1,3.7,1.9,7.4,2.9,11.4c-2.5-1.8-5.7-3.6-9.4-3.6c-2.1,0-5.3,0.6-8.4,3.7c-2,2-7.6,9.2,1.4,18.6c0.8,0.9,1.7,1.7,2.5,2.6
	c5.9,6.1,12,12.4,18.7,17.8c1,0.8,1.9,1.5,2.9,2.3c6.7,5.2,12,9.4,12.4,17.5l0.3,6.2l6-1.6l5.3-1.4l32-8.6l4.7-1.3l-1.1-4.7
	c-0.3-1.1-0.6-2.2-0.8-3.1c-0.5-1.8-0.9-3.3-1-4.6c0-0.3-0.1-0.6-0.1-0.9c-0.1-1.2-0.3-3.3-0.1-4c4-6.5,5-13.7,3.2-21.9
	c-1.1-4.9-2.4-9.7-3.7-14.4c-0.4-1.4-0.8-2.8-1.1-4.2c-1-3.8-3.4-12.7-11.9-12.7c-1.8,0-3.8,0.4-6,1.3c-2.2-2.7-4.9-4.8-8.8-4.8
	c-1.9,0-3.9,0.6-5.8,1.4c-1.8-2.3-4.4-4.3-8.2-4.3c-1.5,0-3,0.3-4.6,0.9c-0.1-0.2-0.1-0.3-0.1-0.5c-1.3-4.5-2.7-9.2-3.8-13.8
	C69.6,91.9,63.1,91,60.4,91L60.4,91z"/>
<path class="st1" d="M77,205.6l-0.4-7.4c-0.4-7.6-5.3-11.4-12-16.7c-1-0.8-2-1.5-2.9-2.3c-6.8-5.5-12.9-11.8-18.8-17.9l-2.5-2.6
	c-9.7-10-3.5-17.8-1.4-20c3.3-3.3,6.7-4,9.1-4c3,0,5.7,1.1,7.8,2.4c-0.8-3-1.5-6-2.3-8.9c-0.7-2.5-1.3-5-2-7.5l0-0.2
	c-1.2-4.5-2.5-9.2-3.6-13.9c-1-4.4-0.6-8.2,1.4-11.2c1.2-1.9,3.7-4.3,8.3-5.2c1-0.2,2-0.3,2.9-0.3l0,0c2.9,0,10,1.1,12.4,10.8
	c1.1,4.4,2.4,8.9,3.7,13.3c1.4-0.4,2.7-0.6,4-0.6c3.3,0,6.1,1.3,8.5,4.1c2-0.8,3.8-1.2,5.5-1.2c3.5,0,6.5,1.5,9.1,4.6
	c2.1-0.8,4-1.1,5.7-1.1c9.3,0,11.9,9.8,12.9,13.5c0.4,1.4,0.8,2.8,1.1,4.2c1.3,4.7,2.6,9.6,3.7,14.4c1.9,8.4,0.8,15.8-3.2,22.6
	c-0.1,0.4,0,1.6,0.2,3.5l0.1,0.9c0.1,1.2,0.5,2.6,1,4.4c0.3,1,0.6,2,0.8,3.2l1.4,5.7L77,205.6z M48.1,136.7c-2,0-4.9,0.6-7.7,3.4
	c-2.3,2.4-6.8,8.7,1.4,17.2l2.5,2.6c5.8,6.1,11.9,12.3,18.6,17.8c0.9,0.8,1.9,1.5,2.9,2.3c6.9,5.4,12.4,9.7,12.8,18.2l0.3,4.9
	l45.9-12.4l-0.9-3.8c-0.3-1.1-0.6-2.2-0.8-3.1c-0.5-1.9-0.9-3.4-1-4.8l-0.1-0.8c-0.2-2.3-0.3-3.7,0-4.4l0.1-0.2
	c3.8-6.3,4.8-13.2,3.1-21.2c-1.1-4.8-2.4-9.6-3.6-14.3c-0.4-1.4-0.8-2.8-1.1-4.2c-1-3.9-3.2-12-11-12c-1.7,0-3.5,0.4-5.7,1.3
	l-0.7,0.3l-0.5-0.6c-2.4-3-4.9-4.4-8-4.4c-1.6,0-3.4,0.4-5.4,1.3l-0.7,0.3l-0.5-0.6c-2.1-2.6-4.6-3.9-7.4-3.9
	c-1.3,0-2.7,0.3-4.3,0.8l-1,0.3l-0.4-1.5c-1.3-4.6-2.7-9.3-3.9-13.9c-2.1-8.4-8-9.3-10.5-9.3c-0.8,0-1.7,0.1-2.5,0.2
	c-3.9,0.7-5.9,2.7-6.9,4.3c-1.7,2.5-2,5.8-1.1,9.7c1.1,4.7,2.4,9.3,3.6,13.9l0,0.2c0.7,2.5,1.4,5,2,7.5c1,3.7,1.9,7.4,2.9,11.4
	l0.7,2.7l-2.2-1.6C54.9,138.7,51.7,136.7,48.1,136.7z M81.7,199.2l-0.1-1.2c-0.5-9.9-7-15-13.9-20.4c-0.9-0.8-1.9-1.5-2.9-2.3
	c-6.6-5.3-12.5-11.5-18.3-17.5l-2.5-2.6c-5.8-6-4-10.4-1.4-13c1.7-1.7,3.5-2.5,5.5-2.5c2.8,0,5.5,1.7,7.6,3.2c2,1.4,3.9,2.9,6.4,4.6
	c0.6,0.5,1.3,0.9,2,1.4l-1.5-6c-1.5-5.8-2.8-11-4.2-16.1c-0.7-2.6-1.4-5.1-2.1-7.7c-1.2-4.5-2.5-9.2-3.6-13.8
	c-0.7-3.1-0.5-5.5,0.7-7.3c1-1.6,2.7-2.6,5-3c5-0.9,8.2,1.4,9.6,6.8c1.2,4.7,2.6,9.4,3.9,14c0.5,1.6,0.9,3.2,1.4,4.8
	c2.9-1.4,5.2-2.4,7.2-2.4c2.9,0,4.8,1.9,6.9,5.4c3.2-1.8,5.3-2.5,7.1-2.5c3.2,0,5.2,2.2,7.4,5.8c3.2-1.7,5.5-2.4,7.4-2.4
	c4.8,0,6.7,4.7,8.1,9.8c0.4,1.4,0.8,2.8,1.1,4.2c1.3,4.6,2.6,9.4,3.6,14.2c1.6,7.2,0.7,13.4-2.7,19c-0.9,1.5-0.7,4.1-0.4,6.4
	l0.1,0.8c0.2,1.7,0.6,3.3,1.1,5.3c0.3,0.9,0.5,1.9,0.8,3l0.2,0.9L81.7,199.2z M48.1,141.7c-1.5,0-2.8,0.6-4.1,1.9
	c-2.9,2.9-2.4,6.2,1.4,10.2l2.5,2.6c5.8,5.9,11.7,12.1,18.2,17.3c0.9,0.8,1.9,1.5,2.8,2.2c6.7,5.2,13.6,10.6,14.6,20.6l35.3-9.5
	c-0.2-0.7-0.4-1.4-0.5-2c-0.6-2-1-3.8-1.2-5.6l-0.1-0.8c-0.3-2.6-0.5-5.6,0.7-7.7c3.2-5.2,4-10.8,2.5-17.6
	c-1.1-4.7-2.3-9.5-3.6-14.1c-0.4-1.4-0.8-2.8-1.1-4.2c-1.8-6.9-3.8-8.3-6.2-8.3c-1.8,0-4.1,0.8-7.3,2.6l-0.9,0.5l-0.5-0.8
	c-2.4-4.1-4.1-5.6-6.2-5.6c-1.6,0-3.7,0.8-7,2.7l-0.9,0.5l-0.5-0.9c-2.3-4-3.7-5.3-5.7-5.3c-1.6,0-3.7,0.8-7.4,2.7l-1.1,0.6
	l-0.3-1.2c-0.6-2-1.2-4-1.8-6c-1.3-4.6-2.8-9.3-3.9-14.1c-1.1-4.4-3.4-6.1-7.3-5.4c-1.7,0.3-3,1-3.7,2.1c-0.9,1.3-1,3.3-0.4,5.8
	c1.1,4.6,2.3,9.2,3.6,13.7c0.7,2.6,1.4,5.2,2.1,7.7c1.4,5.2,2.7,10.4,4.2,16.1l2.9,11.3l-2.2-1.6c-1.6-1.1-3-2.1-4.3-3
	c-2.5-1.8-4.5-3.2-6.5-4.7C52.7,143.2,50.4,141.7,48.1,141.7z"/>
</svg>
