<?xml version="1.0" encoding="utf-8"?>
<!-- Generator: Adobe Illustrator 24.0.2, SVG Export Plug-In . SVG Version: 6.00 Build 0)  -->
<svg version="1.1" id="Слой_1" xmlns="http://www.w3.org/2000/svg" xmlns:xlink="http://www.w3.org/1999/xlink" x="0px" y="0px"
	 viewBox="0 0 30 30" style="enable-background:new 0 0 30 30;" xml:space="preserve">
<style type="text/css">
	.st0{fill:#FFFFFF;}
	.st1{fill-rule:evenodd;clip-rule:evenodd;fill:#FFFFFF;}
</style>
<g>
	<path class="st0" d="M15,0.8c7.8,0,14.2,6.3,14.2,14.2S22.8,29.2,15,29.2C7.2,29.2,0.8,22.8,0.8,15S7.2,0.8,15,0.8 M15,0.1
		C6.8,0.1,0.1,6.8,0.1,15S6.8,29.9,15,29.9c8.2,0,14.9-6.7,14.9-14.9C29.9,6.8,23.2,0.1,15,0.1L15,0.1z"/>
</g>
<g>
	<path class="st1" d="M23.4,13c-0.9-3.9-4.3-6.6-8.4-6.7c-0.5,0-1.1,0.1-1.6,0.2C7.6,7.6,4.7,13.9,7.5,19c0.1,0.1,0.1,0.3,0.1,0.4
		c-0.4,1.3-0.8,2.7-1.1,4c-0.1,0.2-0.1,0.2,0.2,0.2c1.4-0.4,2.8-0.7,4.2-1.1c0.1,0,0.2,0,0.3,0c1.8,0.9,3.7,1.2,5.7,0.8
		C21.4,22.5,24.5,17.6,23.4,13z M16.2,22c-0.4,0.1-0.8,0.1-1,0.1c-1.5,0-2.8-0.3-3.9-1C11.2,21,11,21,10.9,21
		c-0.8,0.2-1.5,0.4-2.3,0.6c-0.2,0-0.2,0-0.1-0.1c0.2-0.7,0.4-1.4,0.6-2.2c0.1-0.2,0-0.4-0.1-0.5c-1.6-2.5-1.5-5.7,0.3-8
		c1.8-2.4,4.3-3.4,7.3-2.8c2.9,0.6,4.8,2.5,5.5,5.4C22.9,17.4,20.2,21.3,16.2,22z"/>
	<path class="st1" d="M17.3,19c-0.3,0-0.6,0-0.9-0.1c-2-0.6-3.5-1.8-4.7-3.4c-0.4-0.6-0.9-1.3-1-2c-0.2-0.9,0.1-1.7,0.8-2.3
		c0.2-0.2,0.9-0.3,1.1-0.2c0.1,0.1,0.1,0.1,0.2,0.2c0.2,0.6,0.5,1.2,0.8,1.8c0,0.1,0,0.2,0,0.4c-0.1,0.3-0.3,0.5-0.5,0.7
		c-0.2,0.1-0.2,0.3-0.1,0.5c0.7,1.2,1.7,2,2.9,2.5c0.2,0.1,0.3,0,0.4-0.1c0.2-0.3,0.4-0.5,0.6-0.8c0.1-0.2,0.3-0.2,0.5-0.1
		c0.4,0.2,0.8,0.4,1.2,0.6c0.1,0.1,0.2,0.1,0.3,0.1c0.4,0.2,0.4,0.2,0.4,0.7c-0.1,0.9-0.8,1.4-1.5,1.6C17.6,19.1,17.4,19.1,17.3,19z
		"/>
</g>
</svg>
