<svg version="1.1" id="Слой_1" xmlns="http://www.w3.org/2000/svg" xmlns:xlink="http://www.w3.org/1999/xlink" x="0px" y="0px"
	 viewBox="0 0 30 30" style="enable-background:new 0 0 30 30;" xml:space="preserve">
<style type="text/css">
	.st0{fill:#FFFFFF;}
</style>
<g>
	<path class="st0" d="M15,0.7c7.9,0,14.3,6.4,14.3,14.3c0,7.5-5.7,13.6-13,14.2c-0.4,0.1-0.8,0.1-1.2,0.1C14,29.3,13,29.2,12,29
		C5.5,27.5,0.7,21.8,0.7,15C0.7,7.1,7.1,0.7,15,0.7 M15,0C6.7,0,0,6.7,0,15c0,6.9,4.9,13.1,11.8,14.7c1,0.2,2.1,0.3,3.3,0.3
		c0.4,0,0.9,0,1.3-0.1C24,29.3,30,22.8,30,15C30,6.7,23.3,0,15,0L15,0z"/>
</g>
<g>
	<path class="st0" d="M15,13.8c1.8,0,3.5,0,5.3,0c0.6,0,1.1,0,1.7,0c1,0.1,1.7,0.5,2.2,1.4c0.2,0.4,0.3,0.8,0.3,1.2
		c0,1.5,0,3.1,0,4.6c0,0.6-0.1,1.1-0.4,1.5c-0.4,0.6-1,0.9-1.7,1.1c-0.4,0.1-0.8,0.1-1.2,0.1c-1.2,0-2.4,0-3.6,0c-1.4,0-2.8,0-4.3,0
		c-1.6,0-3.2,0-4.8-0.1c-0.3,0-0.6,0-1-0.1c-0.8-0.2-1.3-0.7-1.6-1.4c-0.2-0.4-0.3-0.9-0.3-1.4c0-1.4,0-2.8,0-4.2
		c0-0.4,0.1-0.8,0.2-1.2c0.3-0.7,0.8-1.1,1.5-1.4c0.4-0.1,0.8-0.2,1.2-0.2c1.6,0,3.1,0,4.7,0C13.7,13.8,14.4,13.8,15,13.8
		C15,13.8,15,13.8,15,13.8z M15.8,22.9c1.2,0,3.2,0,5.2,0c0.4,0,0.8,0,1.2,0c0.5-0.1,0.9-0.3,1.1-0.7c0.2-0.3,0.3-0.7,0.3-1
		c0-0.6,0-1.1,0-1.7c0-0.8,0-1.5,0-2.3c0-0.3,0-0.6,0-0.9c-0.1-0.4-0.2-0.7-0.5-1c-0.3-0.3-0.7-0.4-1.1-0.4c-0.8,0-1.6,0-2.5,0
		c-1.9,0-3.9,0-5.8,0c-1.7,0-3.4,0-5.1,0c-0.2,0-0.4,0-0.6,0c-0.6,0.1-1.1,0.5-1.2,1.1c-0.1,0.3-0.1,0.5-0.1,0.8c0,1.4,0,2.7,0,4.1
		c0,0.4,0.1,0.8,0.3,1.2c0.3,0.5,0.8,0.8,1.4,0.9c0.4,0,0.8,0,1.2,0C11.3,22.8,13.1,22.9,15.8,22.9z"/>
	<path class="st0" d="M13,10.4c0-0.5,0-0.9,0-1.4c0-0.3,0.1-0.5,0.3-0.7C13.6,8.1,13.8,8,14.2,8c0.2,0,0.4,0,0.6,0
		c0.5,0.1,0.8,0.4,0.8,0.9c0,0.1,0,0.3,0,0.4c0,0.8,0,1.6,0,2.4c0,0.2,0,0.4-0.1,0.6c-0.1,0.3-0.4,0.6-0.8,0.6c-0.3,0.1-0.7,0.1-1,0
		c-0.4-0.1-0.8-0.5-0.8-1c0-0.1,0-0.3,0-0.4C13,11.2,13,10.8,13,10.4C13,10.4,13,10.4,13,10.4z M13.9,10.5c0,0.4,0,0.7,0,1.1
		c0,0.1,0,0.1,0,0.2c0,0.2,0.1,0.3,0.3,0.3c0.1,0,0.2,0,0.3,0c0.2,0,0.3-0.1,0.3-0.3c0-0.1,0-0.1,0-0.2c0-0.7,0-1.4,0-2.1
		c0-0.1,0-0.1,0-0.2c0-0.2-0.1-0.3-0.3-0.3c-0.1,0-0.2,0-0.4,0C14,9,13.9,9,13.9,9.2c0,0.1,0,0.2,0,0.2
		C13.9,9.8,13.9,10.1,13.9,10.5z"/>
	<path class="st0" d="M19.3,13c-0.3,0-0.6,0-0.9,0c0-0.1,0-0.3,0-0.4c0,0,0,0-0.1,0.1c-0.2,0.2-0.4,0.3-0.7,0.4
		c-0.4,0.1-0.7-0.1-0.9-0.4c-0.1-0.2-0.2-0.3-0.2-0.5c0-1.3,0-2.6,0-3.9c0,0,0-0.1,0-0.1c0.3,0,0.6,0,0.9,0c0,0,0,0.1,0,0.1
		c0,1.2,0,2.3,0,3.5c0,0.1,0,0.1,0,0.2c0.1,0.2,0.3,0.4,0.5,0.3c0.2-0.1,0.3-0.2,0.3-0.5c0-1.1,0-2.3,0-3.4c0,0,0-0.1,0-0.1
		c0.3,0,0.6,0,0.9,0C19.3,9.7,19.3,11.3,19.3,13z"/>
	<path class="st0" d="M10.7,12.9C10.7,12.9,10.7,12.9,10.7,12.9c0-0.9,0-1.8,0-2.6c0,0,0-0.1,0-0.1c-0.4-1.3-0.9-2.6-1.3-3.9
		c0,0,0,0,0-0.1c0.1,0,0.1,0,0.2,0c0.2,0,0.4,0,0.7,0c0.1,0,0.1,0,0.1,0.1c0.3,0.8,0.6,1.7,0.8,2.5c0,0,0,0,0,0.1
		c0-0.1,0.1-0.3,0.1-0.4c0.2-0.7,0.5-1.5,0.7-2.2c0-0.1,0-0.1,0.1-0.1c0.2,0,0.5,0,0.7,0c0,0,0.1,0,0.1,0c0,0,0,0.1,0,0.1
		c-0.4,1.3-0.9,2.6-1.3,3.9c0,0,0,0.1,0,0.2c0,0.8,0,1.7,0,2.5c0,0,0,0.1,0,0.1C11.3,12.9,11,12.9,10.7,12.9z"/>
	<path class="st0" d="M16.1,21.9c-0.3,0-0.6,0-0.9,0c0,0,0-0.1,0-0.1c0-2,0-4.1,0-6.1c0-0.1,0-0.1,0.1-0.1c0.2,0,0.5,0,0.7,0
		c0,0,0,0,0.1,0c0,0.6,0,1.2,0,1.8c0.1-0.1,0.2-0.2,0.3-0.3c0.3-0.2,0.6-0.2,1-0.1c0.2,0.1,0.4,0.4,0.4,0.6c0,0.1,0.1,0.3,0.1,0.4
		c0,0.9,0,1.8,0,2.7c0,0.5-0.2,0.8-0.6,1c-0.2,0.2-0.5,0.1-0.8,0c-0.2-0.1-0.3-0.2-0.4-0.3c0,0,0,0-0.1-0.1
		C16.1,21.6,16.1,21.8,16.1,21.9z M16.1,19.4c0,0.4,0,0.9,0,1.3c0,0.1,0,0.2,0.1,0.2c0,0,0.1,0,0.1,0.1c0.4,0.1,0.7-0.1,0.6-0.5
		c0-0.2,0-0.4,0-0.6c0-0.5,0-1.1,0-1.6c0-0.1,0-0.3-0.1-0.4c-0.1-0.1-0.2-0.2-0.4-0.2c-0.2,0-0.4,0.2-0.4,0.5
		C16.1,18.6,16.1,19,16.1,19.4z"/>
	<path class="st0" d="M21.1,19.7c-0.6,0-1.2,0-1.8,0c0,0,0,0,0,0c0,0.3,0,0.6,0,0.9c0,0,0,0.1,0,0.1c0.1,0.2,0.2,0.3,0.4,0.3
		c0.1,0,0.1,0,0.2,0c0.1,0,0.2-0.1,0.2-0.2c0-0.2,0-0.3,0-0.5c0-0.1,0-0.1,0-0.2c0.3,0,0.6,0,0.9,0c0,0.2,0,0.4,0,0.6
		c0,0.1,0,0.3-0.1,0.4c-0.1,0.3-0.3,0.5-0.6,0.6c-0.4,0.1-0.8,0.2-1.2,0.1c-0.4-0.1-0.7-0.4-0.8-0.8c-0.1-0.2-0.1-0.4-0.1-0.6
		c0-0.7,0-1.5,0-2.2c0-0.5,0.3-1.1,1-1.2c0.3,0,0.6-0.1,0.9,0c0.4,0.1,0.6,0.4,0.7,0.8c0,0.1,0,0.2,0,0.3
		C21.1,18.7,21.1,19.2,21.1,19.7C21.1,19.6,21.1,19.7,21.1,19.7z M19.3,18.8C19.3,18.8,19.3,18.8,19.3,18.8c0.3,0,0.6,0,0.8,0
		c0,0,0,0,0,0c0-0.1,0-0.3,0-0.4c0-0.2-0.2-0.4-0.4-0.4c-0.2,0-0.4,0.1-0.5,0.4C19.3,18.4,19.3,18.6,19.3,18.8z"/>
	<path class="st0" d="M13.4,21.5c-0.1,0.2-0.3,0.3-0.5,0.4c-0.5,0.1-0.8,0.1-1.1-0.3c-0.2-0.2-0.2-0.4-0.2-0.6c0-1.3,0-2.6,0-3.9
		c0,0,0-0.1,0-0.1c0.3,0,0.6,0,0.9,0c0,0,0,0.1,0,0.1c0,1.2,0,2.3,0,3.5c0,0.2,0.1,0.4,0.3,0.5c0.2,0.1,0.4,0,0.5-0.2
		c0.1-0.1,0.1-0.3,0.1-0.4c0-1.1,0-2.2,0-3.3c0,0,0-0.1,0-0.1c0.3,0,0.6,0,0.9,0c0,1.6,0,3.3,0,4.9c-0.3,0-0.6,0-0.9,0
		C13.4,21.8,13.4,21.6,13.4,21.5C13.4,21.5,13.4,21.5,13.4,21.5z"/>
	<path class="st0" d="M10.3,21.9c-0.3,0-0.6,0-0.9,0c0-1.8,0-3.6,0-5.4c-0.3,0-0.6,0-0.9,0c0-0.3,0-0.6,0-0.9c0.9,0,1.8,0,2.7,0
		c0,0.3,0,0.6,0,0.9c-0.3,0-0.6,0-0.9,0C10.3,18.3,10.3,20.1,10.3,21.9z"/>
</g>
</svg>
