<?xml version="1.0" encoding="utf-8"?>
<!-- Generator: Adobe Illustrator 24.0.2, SVG Export Plug-In . SVG Version: 6.00 Build 0)  -->
<svg version="1.1" id="Слой_1" xmlns="http://www.w3.org/2000/svg" xmlns:xlink="http://www.w3.org/1999/xlink" x="0px" y="0px"
	 viewBox="0 0 30 30" style="enable-background:new 0 0 30 30;" xml:space="preserve">
<style type="text/css">
	.st0{fill:#FFFFFF;}
	.st1{fill-rule:evenodd;clip-rule:evenodd;fill:#FFFFFF;}
</style>
<g>
	<path class="st0" d="M15,0.7c7.9,0,14.3,6.4,14.3,14.3c0,7.9-6.4,14.3-14.3,14.3C7.1,29.3,0.7,22.9,0.7,15C0.7,7.1,7.1,0.7,15,0.7
		 M15,0C6.7,0,0,6.7,0,15s6.7,15,15,15s15-6.7,15-15S23.3,0,15,0L15,0z"/>
</g>
<g>
	<path class="st1" d="M20.7,7.3c-3.8,0-7.6,0-11.3,0C8,7.3,7.3,8,7.3,9.4c0,1.9,0,3.8,0,5.6c0,1.9,0,3.8,0,5.7c0,1.3,0.7,2,2,2
		c3.8,0,7.6,0,11.4,0c1.3,0,2-0.7,2-2c0-3.8,0-7.6,0-11.4C22.7,8,22,7.3,20.7,7.3z M19.4,9.1c1.5,0,1.5,0,1.5,1.5
		c0,1.5,0,1.5-1.5,1.5c-1.5,0-1.5,0-1.5-1.5C17.9,9.1,17.9,9.1,19.4,9.1z M15,12c1.6,0,3,1.4,3,3c0,1.6-1.4,3-3,3
		c-1.6,0-3-1.4-2.9-3C12,13.4,13.4,12,15,12z M21,20c0,0.7-0.2,0.9-0.9,0.9c-1.7,0-3.4,0-5.1,0c-1.7,0-3.3,0-5,0
		c-0.7,0-0.9-0.2-0.9-0.9c0-1.9,0-3.8,0-5.6c0-0.5,0.1-0.6,0.6-0.6c0.7,0.1,0.7,0,0.6,0.7c-0.3,2.4,1.4,4.7,3.7,5.2
		c2.4,0.5,4.8-1,5.5-3.3c0.2-0.7,0.3-1.5,0.1-2.2c0-0.3,0-0.3,0.3-0.3c1.1-0.1,1.1-0.1,1.1,1C21,16.5,21,18.3,21,20z"/>
</g>
</svg>
