<svg version="1.1" id="Слой_1" xmlns="http://www.w3.org/2000/svg" xmlns:xlink="http://www.w3.org/1999/xlink" x="0px" y="0px"
	 viewBox="0 0 30 20.8" style="enable-background:new 0 0 30 20.8;" xml:space="preserve">
<style type="text/css">
	.st0{fill:#FF8900;}
</style>
<g>
	<path class="st0" d="M0,0.5C0.3,0.1,0.7,0,1.2,0c2.1,0,4.2,0,6.3,0C8,0,8.3,0.1,8.6,0.5c2.7,3.1,5.4,6.2,8.1,9.2
		c0.5,0.6,0.5,0.9,0,1.4c-2.7,3.1-5.4,6.1-8.2,9.2c-0.2,0.3-0.7,0.4-1,0.4c-2.2,0-4.3,0-6.5,0c-0.5,0-0.8-0.2-1.1-0.5
		c0-0.2,0-0.3,0-0.5c0.2-0.2,0.4-0.4,0.6-0.6c2.5-2.8,5-5.5,7.5-8.3c0.3-0.3,0.3-0.5,0-0.9c-1-1.2-2-2.4-3.1-3.5
		C3.4,4.6,1.7,2.8,0,1C0,0.9,0,0.7,0,0.5z M2.6,1.6C2.9,1.9,3,2,3.2,2.2c2.2,2.4,4.4,4.9,6.5,7.4c0.7,0.8,0.7,0.9,0,1.7
		c-2.2,2.5-4.4,4.9-6.6,7.3c-0.2,0.2-0.3,0.4-0.6,0.7c1.7,0,3.2,0,4.8,0c0.2,0,0.4-0.2,0.5-0.3c1.4-1.5,2.7-3,4.1-4.5
		c1.1-1.3,2.3-2.6,3.4-3.8c-0.1-0.1-0.1-0.2-0.1-0.2c-2.5-2.8-5-5.7-7.5-8.5C7.6,1.7,7.5,1.6,7.3,1.6C5.8,1.5,4.3,1.6,2.6,1.6z"/>
	<path class="st0" d="M30,10.6c-0.6,0.7-1.3,1.5-1.9,2.2c-2.2,2.5-4.4,5-6.6,7.4c-0.3,0.4-0.6,0.5-1.1,0.5c-2.1,0-4.3,0-6.4,0
		c-0.4,0-0.8,0-1-0.5c-0.2-0.4,0.1-0.8,0.4-1.1c2.5-2.8,5-5.5,7.5-8.3c0.1-0.2,0.3-0.3,0.4-0.5c-0.9-1-1.7-2.1-2.6-3.1
		c-1.8-1.9-3.6-3.8-5.4-5.7c-0.3-0.3-0.6-0.7-0.4-1.1C13.1,0,13.6,0,14,0c2.1,0,4.2,0,6.3,0c0.5,0,0.8,0.2,1.2,0.5
		c2.7,3.1,5.4,6.2,8.1,9.2c0.1,0.2,0.3,0.3,0.4,0.5C30,10.4,30,10.5,30,10.6z M15.4,19.2c1.6,0,3,0,4.4,0c0.4,0,0.7-0.1,1-0.4
		c2.4-2.7,4.8-5.3,7.1-8c0.1-0.1,0.2-0.2,0.3-0.4c0-0.1-0.1-0.1-0.1-0.2c-2.5-2.8-5-5.7-7.5-8.5c-0.1-0.1-0.4-0.2-0.5-0.2
		c-1.4,0-2.8,0-4.2,0c-0.1,0-0.2,0-0.3,0.1C15.7,1.9,15.8,2,16,2.2c2.2,2.5,4.4,5,6.6,7.4c0.5,0.6,0.5,0.9,0,1.5
		c-2.2,2.5-4.4,5-6.6,7.4C15.8,18.8,15.7,18.9,15.4,19.2z"/>
</g>
</svg>
