<svg version="1.1" id="Слой_1" xmlns="http://www.w3.org/2000/svg" xmlns:xlink="http://www.w3.org/1999/xlink" x="0px" y="0px"
	 viewBox="0 0 30 30" style="enable-background:new 0 0 30 30;" xml:space="preserve">
<style type="text/css">
	.st0{fill:#4F535C;}
	.st1{fill-rule:evenodd;clip-rule:evenodd;fill:#454952;}
</style>
<g>
	<path class="st0" d="M15,0.73c7.89,0,14.27,6.4,14.27,14.27c0,7.89-6.38,14.27-14.27,14.27C7.12,29.27,0.73,22.89,0.73,15
		C0.73,7.13,7.12,0.73,15,0.73 M15,0C6.73,0,0,6.73,0,15C0,23.27,6.73,30,15,30c8.27,0,15-6.73,15-15C30,6.73,23.27,0,15,0L15,0z"/>
</g>
<g>
	<path class="st1" d="M20.67,7.3c-3.78,0-7.57,0-11.34,0c-1.35,0-2.05,0.72-2.05,2.06c0,1.88,0,3.75,0,5.64c0,1.88,0,3.8,0,5.69
		c0,1.3,0.72,2.01,1.98,2.01c3.82,0,7.61,0,11.41,0c1.32,0,2.04-0.71,2.04-2.03c0-3.8,0-7.56,0-11.36
		C22.72,8.02,21.99,7.3,20.67,7.3z M19.42,9.05c1.53,0,1.53,0,1.53,1.53c0,1.49,0,1.49-1.5,1.49c-1.52,0-1.52,0-1.52-1.52
		C17.94,9.05,17.94,9.05,19.42,9.05z M15.01,12.01c1.61,0,2.99,1.39,2.97,2.99c-0.01,1.65-1.38,3.01-3.02,2.98
		c-1.62-0.03-2.99-1.4-2.95-3.01C12.04,13.35,13.4,12.01,15.01,12.01z M20.95,20.04c-0.01,0.72-0.2,0.92-0.92,0.92
		c-1.68,0-3.36,0-5.05,0c-1.67,0-3.35,0-5.03,0c-0.7,0-0.9-0.2-0.9-0.92c0-1.86,0.01-3.75-0.03-5.62c0-0.53,0.15-0.65,0.64-0.63
		c0.7,0.06,0.72,0.03,0.64,0.72c-0.27,2.37,1.38,4.69,3.72,5.15c2.42,0.46,4.84-0.99,5.51-3.31c0.2-0.73,0.26-1.5,0.11-2.21
		c-0.05-0.27,0.01-0.32,0.25-0.32c1.06-0.09,1.06-0.1,1.06,1C20.95,16.53,20.95,18.29,20.95,20.04z"/>
</g>
</svg>
