<?xml version="1.0" encoding="utf-8"?>
<!-- Generator: Adobe Illustrator 24.0.2, SVG Export Plug-In . SVG Version: 6.00 Build 0)  -->
<svg version="1.1" id="Layer_1" xmlns="http://www.w3.org/2000/svg" xmlns:xlink="http://www.w3.org/1999/xlink" x="0px" y="0px"
	 viewBox="0 0 163.2 163.2" style="enable-background:new 0 0 163.2 163.2;" xml:space="preserve">
<style type="text/css">
	.st0{fill:#FECA09;}
</style>
<path class="st0" d="M0,83.4c0-3.9,0-7.7,0-11.6c1.2-1,1-2.6,1.3-3.9c6.8-33.4,26.6-55,59.2-65c3.7-1.2,7.8-1,11.4-2.8
	c6.3,0,12.6,0,18.9,0c0.3,0.9,1.2,0.6,1.8,0.7c35.4,6.3,58.2,26.6,68.3,61.1c1,3.5,0.9,7.3,2.4,10.7c0,6.3,0,12.6,0,18.9
	c-1.3,1-0.9,2.6-1.2,4c-7,34.1-27.3,55.7-60.6,65.4c-3.5,1-7.3,0.9-10.7,2.4c-6.3,0-12.6,0-18.9,0c-3.5-1.8-7.4-1.9-11-2.7
	c-3.6-0.8-4.1-2.3-3.3-5.6c7.2-29.3,23.9-51.3,50.4-65.7c2.5-1.3,4.1-1.5,6.6,0.6c6.1,5.3,15.2,5.1,21.8,0.2
	c6.5-4.8,8.9-13.6,5.8-21.1c-3.1-7.5-10.9-12.1-18.9-11c-8.2,1.1-14.7,7.3-15.5,15.3c-0.2,2.5-1.3,3.1-3.3,3.7
	C81.6,83.7,62.4,96,46.9,113.8c-7.7,8.8-13.8,18.5-18.9,29.1c-4.2-3.6-7.7-7.6-11.1-11.7c-2-2.4-2.6-4.9-2.3-8
	c3.3-28,15.6-51.1,37.4-69.2c1.5-1.3,2.4-1.6,4,0c6.4,6.3,15.5,7,22.6,2.3c6.9-4.7,9.8-13.6,6.8-21.4c-2.8-7.4-11-12.5-18.7-11.5
	C57.9,24.6,51.6,31,50.8,40c-0.2,1.8-0.8,2.7-2.5,3.4c-6.2,2.4-12,5.6-17.6,9.2C18.2,60.6,8.3,71.3,0,83.4z"/>
</svg>
