<svg version="1.1" id="Слой_1" xmlns="http://www.w3.org/2000/svg" xmlns:xlink="http://www.w3.org/1999/xlink" x="0px" y="0px"
	 viewBox="0 0 50 50" style="enable-background:new 0 0 50 50;" xml:space="preserve">
<style type="text/css">
	.st0{fill:#FF8900;}
</style>
<g>
	<path class="st0" d="M39.2,45c-0.5-0.3-0.7-0.7-0.7-1.3c0-2.3,0-4.6,0-6.8c0-1.3-0.5-2.3-1.5-3.1c-0.7-0.5-1.5-0.7-2.3-0.7
		c-6.5,0-12.9,0-19.4,0c-1.9,0-3.2,1-3.6,2.7c-0.1,0.4-0.1,0.7-0.1,1.1c0,2.3,0,4.5,0,6.8c0,0.6-0.2,1-0.7,1.3c-0.2,0-0.4,0-0.5,0
		c-0.5-0.3-0.7-0.8-0.7-1.4c0-2.4,0-4.9,0-7.3c0.1-2.7,2.5-5.1,5.2-5.1c1.9,0,3.8,0,5.7,0c4.7,0,9.5,0,14.2,0c2.7,0,4.8,1.7,5.4,4.2
		c0.1,0.5,0.2,1.1,0.2,1.6c0,2.2,0,4.4,0,6.6c0,0.6-0.1,1.1-0.7,1.4C39.5,45,39.4,45,39.2,45z"/>
	<path class="st0" d="M37.4,23.3c0,0.8,0,1.5,0,2.2c0,0.7-0.4,1.1-1.1,1.1c-0.8,0-1.6,0-2.3,0c-0.3,0-0.5,0.1-0.6,0.3
		c-1.4,1.7-3.2,2.8-5.4,3.4c-3.8,1-7.2,0.2-10.2-2.3c-1.4-1.2-2.4-2.7-3-4.4c-0.1-0.3-0.2-0.4-0.5-0.3c-0.6,0-1.1,0-1.7,0
		c-1.3,0-2-0.8-2-2c0-1.5,0-3,0-4.5c0-0.9,0.4-1.5,1.1-1.8c0.1-0.1,0.2-0.3,0.3-0.4c0.6-2.2,1.6-4.1,3.2-5.7c1.9-1.9,4.3-3,6.9-3.5
		c3.6-0.6,7-0.2,10.1,1.6c3,1.7,4.9,4.2,5.8,7.5c0.1,0.3,0.2,0.4,0.5,0.5c0.8,0.3,1.2,0.9,1.2,1.8c0,1.6,0,3.2,0,4.7
		c0,1.1-0.8,1.9-1.9,1.9C37.7,23.3,37.5,23.3,37.4,23.3z M30.9,26.6c-0.2,0-0.4,0-0.5,0c-2,0-3.9,0-5.9,0c-0.4,0-0.8-0.2-0.9-0.6
		c-0.2-0.4-0.1-0.7,0.2-1c0.3-0.3,0.6-0.3,1-0.3c2.5,0,5,0,7.5,0c0.2,0,0.4,0,0.5-0.2c1.4-2.4,1.8-4.9,0.9-7.5
		c-1.8-5.3-7.6-7.7-12.7-5.3c-4.2,2-6.2,7.4-4.2,11.6c2,4.4,6.8,6.5,11.4,4.9C29.1,27.9,30,27.4,30.9,26.6z M36.1,14.7
		c0-0.1,0-0.2-0.1-0.3c-0.8-2.6-2.4-4.7-4.8-6c-3.9-2.1-7.8-2.1-11.8-0.4c-2.5,1.1-4.3,3.1-5.3,5.7c-0.1,0.3-0.2,0.6-0.3,0.9
		c0.3,0,0.6,0,0.8,0c0.5,0.1,0.7-0.1,0.9-0.5c2.7-4.6,8.5-6.6,13.5-4.6c2.4,1,4.3,2.6,5.5,4.8c0.1,0.1,0.2,0.3,0.3,0.3
		C35.3,14.8,35.7,14.7,36.1,14.7z M35.5,16.7c0.5,1.6,0.5,3.1,0.4,4.7c0.7,0,1.3,0,1.9,0c0-1.6,0-3.1,0-4.7
		C37,16.7,36.3,16.7,35.5,16.7z M12.4,21.4c0.6,0,1.1,0,1.7,0c-0.2-1.6-0.1-3.2,0.3-4.7c-0.7,0-1.4,0-2,0
		C12.4,18.2,12.4,19.8,12.4,21.4z M35.5,23.4C35.4,23.4,35.4,23.4,35.5,23.4c-0.3,0.4-0.4,0.8-0.6,1.2c0.6,0.1,0.6,0.1,0.6-0.4
		C35.5,24,35.5,23.7,35.5,23.4z"/>
</g>
</svg>
