<svg version="1.1" id="Слой_1" xmlns="http://www.w3.org/2000/svg" xmlns:xlink="http://www.w3.org/1999/xlink" x="0px" y="0px"
	 viewBox="0 0 50 50" style="enable-background:new 0 0 50 50;" xml:space="preserve">
<style type="text/css">
	.st0{fill:#FF8900;}
</style>
<g>
	<path class="st0" d="M24.8,45c-0.3-0.1-0.6-0.2-0.9-0.4c-0.2-0.2-0.3-0.3-0.5-0.4c-3.2-2.9-6.3-5.8-9.5-8.6
		c-2.3-2.1-4.6-4.2-6.9-6.2C6.3,28.6,6.4,27.6,7,27c0.3-0.3,0.6-0.4,1-0.5c0.5,0,0.9,0,1.4,0c1.1,0,2.1,0,3.2,0c0,0,0.1,0,0.2,0
		c0-0.1,0-0.1,0-0.2c0-6.6,0-13.2,0-19.7c0-0.5,0.2-0.9,0.5-1.2c0.3-0.3,0.6-0.4,1-0.4c0,0,0.1,0,0.1,0c7.1,0,14.3,0,21.4,0
		c0.7,0,1.2,0.3,1.5,0.9c0.1,0.2,0.1,0.4,0.1,0.5c0,0.1,0,0.2,0,0.2c0,6.5,0,13.1,0,19.6c0,0.1,0,0.1,0,0.2c0.1,0,0.1,0,0.2,0
		c1.4,0,2.9,0,4.3,0c0.5,0,0.9,0.1,1.3,0.5c0.5,0.6,0.5,1.5-0.1,2.1c-0.5,0.5-1.1,1-1.6,1.5c-1.7,1.6-3.5,3.1-5.2,4.7
		c-2.3,2.1-4.6,4.2-7,6.3c-1,0.9-2.1,1.9-3.1,2.8c-0.3,0.2-0.6,0.4-0.9,0.5c0,0,0,0,0,0C25.1,45,24.9,45,24.8,45z M25,41.4
		c4.3-3.9,8.6-7.8,12.9-11.8c-0.1,0-0.1,0-0.2,0c-0.6,0-1.3,0-1.9,0c-0.3,0-0.6-0.1-0.8-0.2c-0.5-0.3-0.8-0.8-0.8-1.4
		c0-6.6,0-13.2,0-19.7c0-0.1,0-0.1,0-0.2c-6.2,0-12.3,0-18.5,0c0,0.1,0,0.1,0,0.2c0,6.6,0,13.1,0,19.7c0,0.1,0,0.3,0,0.4
		c-0.2,0.7-0.8,1.2-1.5,1.2c-0.7,0-1.3,0-2,0c0,0-0.1,0-0.2,0C16.4,33.6,20.7,37.5,25,41.4z"/>
	<path class="st0" d="M26.6,19c0-0.1,0-0.3-0.1-0.4c-0.1-0.3-0.3-0.6-0.7-0.8c-0.6-0.3-1.2-0.3-1.7,0.1c-0.5,0.3-0.7,0.8-0.6,1.4
		c0.1,0.6,0.5,0.9,1.1,1.1c0.3,0.1,0.6,0.1,0.9,0.1c1.7,0.2,3,1,3.8,2.5c1,1.9,0.3,4.3-1.6,5.4c-0.3,0.2-0.7,0.3-1,0.5
		c-0.1,0-0.1,0.1-0.1,0.2c0,0.6,0,1.2,0,1.8c0,0.3-0.1,0.4-0.4,0.4c-0.8,0-1.5,0-2.3,0c-0.3,0-0.4-0.1-0.4-0.4c0-0.5,0-1,0-1.5
		c0-0.1,0-0.1-0.1-0.2c-1.5-0.6-2.5-1.7-2.9-3.3c0-0.1,0-0.3-0.1-0.4c0-0.3,0.1-0.4,0.4-0.4c0.9,0,1.7,0,2.6,0c0,0,0.1,0,0.1,0
		c0,0.1,0,0.2,0,0.3c0.1,0.5,0.4,0.8,0.8,1c0.6,0.2,1.2,0.2,1.7-0.2c0.4-0.3,0.6-0.8,0.5-1.3c-0.1-0.5-0.4-0.9-0.9-1
		c-0.3-0.1-0.5-0.1-0.8-0.1c-0.8,0-1.6-0.2-2.3-0.7c-1.2-0.8-1.9-1.8-2.1-3.2c-0.2-1.5,0.3-2.7,1.4-3.7c0.4-0.4,1-0.7,1.5-0.9
		c0.1,0,0.1-0.1,0.1-0.2c0-0.6,0-1.2,0-1.7c0-0.3,0.1-0.4,0.4-0.4c0.8,0,1.5,0,2.3,0c0.3,0,0.4,0.1,0.4,0.4c0,0.5,0,1.1,0,1.6
		c0,0.1,0,0.1,0.1,0.2c1.5,0.6,2.5,1.6,2.9,3.2c0,0.2,0.1,0.4,0.1,0.6c0,0.2-0.1,0.3-0.3,0.3C28.4,19,27.5,19,26.6,19
		C26.6,19,26.6,19,26.6,19z"/>
</g>
</svg>
