<svg version="1.1" id="Слой_1" xmlns="http://www.w3.org/2000/svg" xmlns:xlink="http://www.w3.org/1999/xlink" x="0px" y="0px"
	 viewBox="0 0 50 50" style="enable-background:new 0 0 50 50;" xml:space="preserve">
<style type="text/css">
	.st0{fill:#FF8900;}
</style>
<g>
	<path class="st0" d="M5,23.2c0-0.1,0-0.2,0-0.3c0.1-0.2,0.2-0.3,0.3-0.5c2.5-2.9,5-5.8,7.5-8.8c0.3-0.3,0.6-0.5,1-0.5
		c0.2,0,0.3,0,0.5,0c1.9,0,3.7,0,5.6,0c0.2,0,0.3,0,0.4-0.2c0.3-0.3,0.5-0.7,0.8-1c0.1-0.1,0.3-0.2,0.4-0.2c0.3,0,0.6,0,0.9,0
		c2.5,0,5,0,7.4,0c0.6,0,1.2,0,1.8,0c0.8,0,1.1,0.5,0.9,1.2c0,0,0,0,0,0.1c0.1,0,0.2,0,0.3,0c0.6,0,1.2,0,1.8,0c2.7,0,5.4,0,8.2,0
		c0.1,0,0.2,0,0.2,0c0.6,0.3,0.9,0.9,0.4,1.5c-1.6,1.8-3.1,3.7-4.6,5.5c-1,1.2-2,2.3-3,3.4c-0.2,0.2-0.4,0.3-0.7,0.3
		c-0.5,0-1,0-1.4,0c-2.7,0-5.4,0-8.2,0c-0.1,0-0.1,0-0.2,0c0,0.6,0,1.2,0,1.9c0.1,0,0.1,0,0.2,0c3.4,0,6.8,0,10.3,0
		c0.1,0,0.2-0.1,0.3-0.1c1.4-1.6,2.7-3.2,4.1-4.8c1.1-1.2,2.2-2.5,3.3-3.7c0.1-0.1,0.2-0.2,0.3-0.2c0.5-0.2,1.1,0.1,1.3,0.7
		c0,0,0,0.1,0,0.1c0,0.1,0,0.2,0,0.2c-0.1,0.1-0.2,0.3-0.3,0.4c-1.6,1.9-3.2,3.8-4.8,5.7c-0.9,1.1-1.9,2.2-2.9,3.3
		c-0.1,0.2-0.3,0.3-0.5,0.3c-0.6,0-1.1,0-1.7,0c-3.1,0-6.2,0-9.3,0c-0.1,0-0.2,0-0.2,0c0,0.8,0,1.7,0,2.5c0.1,0,0.2,0,0.3,0
		c3.4,0,6.8,0,10.1,0c0.2,0,0.3-0.1,0.4-0.2c1.4-1.7,2.8-3.3,4.3-5c1-1.2,2-2.3,3-3.4c0.3-0.4,0.7-0.4,1.1-0.1
		c0.2,0.2,0.3,0.4,0.5,0.6c0,0.1,0,0.2,0,0.2c-0.2,0.4-0.5,0.7-0.7,1.1c-1.1,1.3-2.2,2.6-3.3,3.9c-1.2,1.4-2.5,2.8-3.7,4.3
		c-0.4,0.4-0.8,0.6-1.3,0.6c-3.5,0-6.9,0-10.4,0c-0.1,0-0.2,0-0.3,0c0,0.7,0,1.4,0,2.1c0.1,0,0.1,0,0.2,0c3.4,0,6.9,0,10.3,0
		c0.1,0,0.2-0.1,0.3-0.1c1.4-1.6,2.8-3.2,4.2-4.8c1.1-1.2,2.1-2.4,3.2-3.6c0.4-0.4,0.9-0.4,1.3,0c0.1,0.1,0.2,0.3,0.3,0.5
		c0,0.1,0,0.1,0,0.2c-0.2,0.2-0.3,0.5-0.5,0.7c-2,2.3-4,4.7-6,7c-0.5,0.6-1,1.2-1.6,1.7c-0.1,0.1-0.3,0.3-0.5,0.3c-0.5,0-1,0-1.6,0
		c-3.1,0-6.2,0-9.3,0c-0.1,0-0.2,0-0.3,0c0,0.2,0,0.4,0,0.6c0,0.3,0,0.6-0.1,0.8c-0.1,0.3-0.3,0.5-0.6,0.5c-1,0-2,0.1-3,0.1
		c-0.3,0-0.6,0-1,0c-0.8,0-1.7,0-2.5,0c-0.1,0-0.2,0-0.3,0c-1.2,0-2.5-0.1-3.7-0.1c-0.3,0-0.5-0.2-0.6-0.5c-0.1-0.2-0.1-0.4-0.1-0.6
		c0-0.3,0-0.6,0-0.9c-0.1,0-0.2,0-0.3,0c-1.2,0-2.3,0-3.5,0c-1.2,0-2.5,0-3.7,0c-0.5,0-0.7-0.2-0.9-0.6c0,0,0-0.1-0.1-0.1
		c0-0.1,0-0.2,0-0.3c0,0,0-0.1,0.1-0.1c0.1-0.4,0.3-0.6,0.7-0.6c0.3,0,0.6-0.1,0.9-0.1c2.2,0,4.3,0,6.5,0c0.1,0,0.2,0,0.3,0
		c0-0.7,0-1.4,0-2.1c-0.1,0-0.2,0-0.3,0c-1.7,0-3.3,0-5,0c-0.8,0-1.6,0-2.3-0.1c-0.4,0-0.7-0.3-0.8-0.6c0,0,0-0.1,0-0.1
		c0-0.1,0-0.2,0-0.2c0,0,0,0,0-0.1c0.1-0.4,0.4-0.7,0.8-0.7c0.5,0,1-0.1,1.5-0.1c1.9,0,3.9,0,5.8,0c0.1,0,0.2,0,0.2,0
		c0-0.8,0-1.7,0-2.5c-0.1,0-0.2,0-0.3,0c-2.3,0-4.6,0-6.9,0c-0.6,0-1.1-0.2-1.2-0.8c0-0.1,0-0.2,0-0.3c0,0,0,0,0-0.1
		c0.2-0.4,0.4-0.7,0.9-0.7c0.1,0,0.3,0,0.4,0c2.3,0,4.6,0,6.8,0c0.1,0,0.2,0,0.2,0c0-0.6,0-1.2,0-1.8c-0.1,0-0.1,0-0.2,0
		c-1.3,0-2.6,0-4,0c-1.1,0-2.3,0-3.4-0.1C5.5,23.9,5.2,23.7,5,23.2C5,23.2,5,23.2,5,23.2z M29.6,13.6c-0.1,0-0.2,0-0.3,0
		c-2.4,0-4.7,0-7.1,0c-0.1,0-0.2,0.1-0.3,0.1c-2.2,2.7-4.4,5.4-6.6,8c-0.1,0.1-0.1,0.2-0.1,0.3c0,4.7,0,9.3,0,14c0,0.1,0,0.2,0,0.2
		c2.7,0,5.4,0,8.1,0c0-0.1,0-0.2,0-0.3c0-4.4,0-8.7,0-13.1c0-0.6,0-1.1,0.1-1.7c0-0.1,0.1-0.2,0.1-0.3c1.6-2,3.2-3.9,4.8-5.9
		C28.8,14.6,29.2,14.2,29.6,13.6z M25.3,21.9c0.1,0,0.2,0,0.3,0c3,0,6,0,9,0c0.1,0,0.2,0,0.2-0.1c0.2-0.2,0.4-0.5,0.6-0.7
		c1.7-2,3.3-3.9,5-5.9c0.1-0.1,0.1-0.2,0.2-0.3c-0.1,0-0.2,0-0.2,0c-3.1,0-6.2,0-9.3,0c-0.1,0-0.2,0.1-0.2,0.1c-1.6,2-3.3,4-4.9,6
		C25.8,21.4,25.6,21.6,25.3,21.9z M18.5,15c-0.2,0-0.4,0-0.6,0c-1.2,0-2.4,0-3.6,0c-0.2,0-0.3,0.1-0.5,0.2c-1.9,2.2-3.9,4.5-5.8,6.7
		c0,0,0,0.1,0,0.1c1.8,0,3.6,0,5.4,0c-0.2-0.7,0.2-1.1,0.6-1.5c1.4-1.7,2.8-3.5,4.3-5.2C18.4,15.2,18.4,15.1,18.5,15z"/>
	<path class="st0" d="M19.4,31.3c0,0.3,0,0.6,0,0.9c-0.2,0-0.3,0-0.5,0c0-0.2,0-0.4,0-0.7c0-0.2,0-0.3-0.2-0.3c-0.3,0-0.7-0.2-1-0.3
		c-0.1,0-0.2-0.1-0.1-0.3c0-0.1,0.1-0.3,0.1-0.4c0.3,0.1,0.7,0.2,1,0.3c0.4,0.1,0.8,0.1,1.1-0.2c0.5-0.4,0.5-1,0.1-1.4
		c-0.3-0.2-0.6-0.4-1-0.6c-0.2-0.1-0.5-0.3-0.7-0.4c-0.8-0.6-0.8-1.8,0.1-2.3c0.2-0.1,0.4-0.2,0.6-0.2c0.1,0,0.2-0.1,0.2-0.3
		c0-0.2,0-0.5,0-0.7c0.2,0,0.4,0,0.5,0c0,0.2,0,0.4,0,0.6c0,0.2,0.1,0.2,0.2,0.3c0.3,0.1,0.5,0.1,0.7,0.2c0.1,0,0.2,0.1,0.2,0.3
		c0,0.1,0,0.1-0.1,0.2c0,0.2-0.1,0.2-0.3,0.1c-0.4-0.2-0.8-0.2-1.2-0.2c-0.6,0.1-0.9,0.5-0.7,1c0.1,0.2,0.2,0.4,0.4,0.5
		c0.2,0.2,0.5,0.3,0.8,0.4c0.3,0.2,0.6,0.3,0.8,0.5c0.7,0.4,0.8,1.7,0.2,2.3C20.2,31,19.9,31.2,19.4,31.3z"/>
</g>
</svg>
