<svg version="1.1" id="Слой_1" xmlns="http://www.w3.org/2000/svg" xmlns:xlink="http://www.w3.org/1999/xlink" x="0px" y="0px"
	 viewBox="0 0 50 50" style="enable-background:new 0 0 50 50;" xml:space="preserve">
<style type="text/css">
	.st0{fill:#FF8900;}
</style>
<g>
	<path class="st0" d="M13.2,5c0.3,1.3,0.7,2.6,1,4c0.4,1.5,0.8,3,1.1,4.6c0.5,1.9,1,3.9,1.5,5.8c0.4,1.6,0.8,3.2,1.2,4.8
		c0.4,1.5,0.8,3,1.1,4.6c0.2,0.9,0.5,1.8,0.7,2.7c0,0.1,0.1,0.2,0.2,0.2c0.1,0,0.1,0,0.2,0c5.6,0,11.1,0,16.7,0
		c0.4,0,0.4,0.1,0.5-0.4c0.8-2.5,1.5-5.1,2.3-7.6c0.5-1.7,1-3.4,1.5-5.1c0-0.2,0.1-0.2,0.3-0.2c1,0,2,0,3,0c0.2,0,0.2,0,0.2,0.2
		c-0.5,1.7-1,3.4-1.5,5c-0.5,1.8-1.1,3.5-1.6,5.3c-0.6,2-1.2,3.9-1.7,5.9c-0.1,0.2-0.2,0.3-0.4,0.3c-7.3,0-14.7,0-22,0
		c-0.2,0-0.3-0.1-0.4-0.3c-0.3-1.4-0.7-2.8-1.1-4.3c-0.4-1.6-0.8-3.2-1.2-4.8c-0.6-2.3-1.1-4.5-1.7-6.8c-0.4-1.7-0.9-3.4-1.3-5.1
		c-0.4-1.8-0.9-3.5-1.3-5.3c0-0.2-0.2-0.2-0.3-0.2c-1.4,0-2.8,0-4.2,0c-0.2,0-0.4,0-0.7,0c-0.2,0-0.2-0.1-0.2-0.2c0-0.9,0-1.9,0-2.8
		c0-0.1,0-0.2,0-0.3C7.9,5,10.5,5,13.2,5z"/>
	<path class="st0" d="M25.2,5c0,0.2,0,0.3,0,0.5c0,0.9,0,1.7,0,2.6c0,0.2,0.1,0.3,0.3,0.3c1.2,0,2.5,0,3.7,0c1.3,0,2.5,0.4,3.5,1.2
		c1.1,0.8,1.8,1.8,2.2,3.1c0.2,0.8,0.3,1.6,0.3,2.4c0,2.1,0,4.2,0,6.4c0,0.2-0.1,0.3-0.3,0.3c-0.9,0-1.9,0-2.8,0
		c-0.2,0-0.3-0.1-0.3-0.3c0-2.2,0-4.5,0-6.7c0-0.6-0.1-1.1-0.3-1.6c-0.4-0.8-1-1.2-1.8-1.3c-0.4-0.1-0.8-0.1-1.3-0.1c-1,0-2,0-2.9,0
		c-0.3,0-0.3,0-0.3,0.3c0,0.9,0,1.8,0,2.7c0,0.1,0,0.2,0,0.3c-2.3-1.7-4.5-3.3-6.8-5c0.1-0.1,0.1-0.1,0.2-0.2
		c2.1-1.6,4.2-3.1,6.3-4.7C25,5.1,25.1,5.1,25.2,5C25.2,5,25.2,5,25.2,5z"/>
	<path class="st0" d="M34.4,45c-2.2,0.1-4.2-1.8-4.2-4.1c0-2.3,1.9-4.2,4.2-4.2c2.3,0,4.2,1.9,4.2,4.2C38.6,43.1,36.6,45.1,34.4,45z
		"/>
	<path class="st0" d="M22.7,45c-2.2,0.1-4.2-1.9-4.2-4.2c0-2.3,1.9-4.2,4.2-4.2c2.3,0,4.1,1.9,4.2,4.2C26.9,43.1,24.9,45.1,22.7,45z
		"/>
</g>
</svg>
