<svg version="1.1" id="Слой_1" xmlns="http://www.w3.org/2000/svg" xmlns:xlink="http://www.w3.org/1999/xlink" x="0px" y="0px"
	 viewBox="0 0 50 50" style="enable-background:new 0 0 50 50;" xml:space="preserve">
<style type="text/css">
	.st0{fill:#FF8900;}
</style>
<g>
	<path class="st0" d="M45,34.9c-0.5,1.1-1,1.1-2.4,1c0.4-3.9-3-6.7-6.1-6.6c-3.6,0.1-6.3,3.2-5.9,6.6c-3.3,0-6.6,0-9.9,0
		c0.2-2-0.5-3.7-2-5.1c4.1,0,8.1,0,12.2,0c0-0.2,0-0.3,0-0.5c0-4.4,0-8.7,0-13.1c0-1.2,0.7-2,2-2c1.6,0,3.3,0,4.9,0
		c0.6,0,1,0.2,1.3,0.7c1.5,2.6,2.9,5.1,4.4,7.7c0.2,0.4,0.4,1,0.4,1.5c0,1.7,0,3.4,0,5.2c0,0.1,0,0.3,0,0.5c0.7,0,1.1,0.5,1.3,1
		C45,32.9,45,33.9,45,34.9z M36.7,23.1c0.9,0,1.8,0,2.7,0c0.5,0,0.6-0.2,0.4-0.6c-0.8-1.4-1.6-2.8-2.4-4.3c-0.1-0.2-0.3-0.3-0.5-0.3
		c-1,0-2,0-3,0c-0.4,0-0.5,0.1-0.5,0.5c0,1.4,0,2.8,0,4.2c0,0.4,0.1,0.5,0.5,0.5C34.8,23.1,35.7,23.1,36.7,23.1z"/>
	<path class="st0" d="M29.5,29.5c-1.1,0-2.1,0-3.1,0c-6.6,0-13.2,0-19.8,0C5.5,29.5,5,29,5,27.9C5,23,5,18,5,13c0-1.8,1-2.8,2.9-2.8
		c6.3,0,12.6,0,18.9,0c1.7,0,2.8,1.1,2.8,2.8c0,5.4,0,10.8,0,16.1C29.5,29.2,29.5,29.3,29.5,29.5z M17.3,12.7c-3,0-6,0-9,0
		c-0.7,0-0.7,0.1-0.7,0.7c0,4.2,0,8.5,0,12.7c0,0.6,0.1,0.7,0.7,0.7c6,0,12,0,17.9,0c0.6,0,0.7-0.1,0.7-0.7c0-4.3,0-8.5,0-12.8
		c0-0.6-0.1-0.7-0.7-0.7C23.3,12.7,20.3,12.7,17.3,12.7z"/>
	<path class="st0" d="M14.7,39.8c-2.5,0-4.5-2-4.5-4.5c0-2.5,2-4.5,4.5-4.5c2.5,0,4.5,2,4.5,4.5C19.2,37.8,17.2,39.8,14.7,39.8z
		 M16.6,35.3c0-1.1-0.9-2-1.9-2c-1.1,0-2,0.8-2,1.9c0,1.1,0.9,2,1.9,2C15.7,37.3,16.6,36.4,16.6,35.3z"/>
	<path class="st0" d="M32.1,35.3c0-2.4,2-4.5,4.5-4.5c2.5,0,4.5,2,4.5,4.5c0,2.4-2.1,4.5-4.5,4.5C34.1,39.8,32.1,37.8,32.1,35.3z
		 M36.6,33.4c-1.1,0-2,0.9-2,1.9c0,1.1,0.8,2,1.9,2c1.1,0,2-0.9,2-1.9C38.6,34.2,37.7,33.4,36.6,33.4z"/>
	<path class="st0" d="M8.7,35.9c-0.9,0-1.7,0-2.5,0c-0.6,0-1.1-0.6-1.1-1.2c0-0.9,0-1.8,0-2.7c0-0.6,0.5-1.2,1.2-1.2
		c1.5,0,2.9,0,4.5,0C9.2,32.2,8.5,33.9,8.7,35.9z"/>
	<path class="st0" d="M16.6,21.8c-1.8,0-3.6,0-5.4,0c-0.9,0-1.1-0.2-1.1-1.1c0-0.6,0-1.3,0-1.9c0-0.6,0.3-0.9,0.9-0.9
		c1.7,0,3.4,0,5,0c0.2,0,0.3,0,0.5,0c0-0.2,0-0.3,0-0.5c0-0.9,0-1.9,0-2.8c0-0.2,0.1-0.5,0.3-0.6c0.1-0.1,0.4,0,0.6,0.1
		c2.2,1.7,4.3,3.4,6.5,5.1c0.5,0.4,0.5,0.7,0,1c-2.1,1.7-4.3,3.4-6.4,5c-0.2,0.1-0.4,0.2-0.6,0.2c-0.3-0.1-0.3-0.4-0.3-0.7
		C16.6,23.9,16.6,22.8,16.6,21.8z"/>
</g>
</svg>
