<svg version="1.1" id="Слой_1" xmlns="http://www.w3.org/2000/svg" xmlns:xlink="http://www.w3.org/1999/xlink" x="0px" y="0px"
	 viewBox="0 0 50 50" style="enable-background:new 0 0 50 50;" xml:space="preserve">
<style type="text/css">
	.st0{fill:#FF8900;stroke:#FFFFFF;stroke-width:0.5;stroke-miterlimit:10;}
</style>
<g>
	<path class="st0" d="M5,25.3c0.2-0.1,0.4-0.2,0.6-0.2c2.3,0,4.5,0,6.8,0c0.1,0,0.1,0,0.2,0c0.4,1.2,0.7,2.4,1.1,3.6
		c-0.1,0-0.3,0-0.4,0c-2.5,0-5,0-7.5,0c-0.2,0-0.5-0.1-0.7-0.2C5,27.4,5,26.4,5,25.3z"/>
	<path class="st0" d="M44.9,16.1c0.2,1.7,0.2,3.4-0.1,5.1c-0.4,3-1.2,5.9-2.4,8.6c-2.2,4.7-5.4,8.4-9.8,11.2
		c-1.1,0.7-2.2,1.3-3.4,1.9c-0.1,0.1-0.3,0.1-0.5,0c-3.9-1.9-7.3-4.4-10-7.9c-2.5-3.2-4.2-6.9-5.1-10.9c-0.6-2.7-0.9-5.3-0.6-8.1
		c0.8-0.2,1.6-0.4,2.3-0.6c2.3-0.7,3.8-2.8,3.8-5.1c0-0.5,0-1.1,0-1.6c0-0.1,0.1-0.3,0.2-0.3c3-0.7,6-1.4,9.1-1.5
		c2.1-0.1,4.1,0.3,6.1,0.7c1.2,0.2,2.4,0.5,3.6,0.8c0.3,0.1,0.3,0.2,0.3,0.4c0,0.9,0,1.8,0.1,2.6c0.5,2.4,2,3.7,4.3,4.3
		C43.8,15.8,44.3,16,44.9,16.1z M15.7,18.3c0,0.1,0,0.2,0,0.3c0.1,3.4,0.8,6.6,2.2,9.6c2.3,5.2,5.9,9,10.9,11.7
		c0.1,0.1,0.4,0.1,0.5,0c1-0.6,2-1.1,2.9-1.8c6.5-4.8,9.7-11.4,10.1-19.3c0-0.4-0.1-0.6-0.5-0.7c-1.5-0.4-2.8-1.2-3.8-2.4
		c-1.2-1.4-1.8-3-2-4.8c0-0.2,0-0.3-0.3-0.4c-2.1-0.4-4.2-0.9-6.4-0.9c-2.2-0.1-4.3,0.4-6.5,0.8c-0.9,0.2-0.9,0.2-1.1,1.1
		C21.4,14,20.2,16,18,17.3C17.3,17.7,16.5,17.9,15.7,18.3z"/>
	<path class="st0" d="M15,43.1c-2,0-4,0-6,0c-0.6,0-0.7-0.1-0.7-0.7c0-0.8,0-1.5,0-2.3c0-0.5,0.1-0.6,0.6-0.6c3.9,0,7.8,0,11.7,0
		c0.4,0,0.9,0.5,0.9,0.9c0,0.7,0,1.3,0,2c0,0.6-0.1,0.7-0.7,0.7C18.9,43.1,16.9,43.1,15,43.1z"/>
	<path class="st0" d="M19.6,38.2c-0.2,0-0.3,0-0.4,0c-3.7,0-7.4,0-11.1,0c-0.7,0-0.8-0.1-0.8-0.8c0-0.7,0-1.5,0-2.2
		c0-0.5,0.1-0.6,0.6-0.6c2.9,0,5.7,0,8.6,0c0.1,0,0.3,0.1,0.4,0.2c0.9,1,1.7,2.1,2.5,3.2C19.5,38.1,19.5,38.1,19.6,38.2z"/>
	<path class="st0" d="M15.9,33.5c-0.2,0-0.5,0-0.7,0c-2.1,0-4.1,0-6.2,0c-0.6,0-0.7-0.1-0.7-0.7c0-0.8,0-1.5,0-2.3
		c0-0.5,0.1-0.6,0.6-0.6c1.7,0,3.3,0,5,0c0.1,0,0.3,0.1,0.4,0.1C14.8,31.2,15.3,32.3,15.9,33.5z"/>
	<path class="st0" d="M11.8,20.5c0.2,1.2,0.3,2.3,0.5,3.5c-0.1,0-0.1,0-0.2,0c-0.8,0-1.6,0-2.3,0c-0.5,0-0.6-0.1-0.6-0.6
		c0-0.8,0-1.6,0-2.4c0-0.4,0.1-0.6,0.6-0.6C10.4,20.5,11.1,20.5,11.8,20.5z"/>
	<path class="st0" d="M28.1,18.4c0-0.4,0-0.8,0-1.3c0.7,0,1.3,0,1.9,0c0,0.3,0,0.5,0,0.8c0,0.4,0.1,0.5,0.5,0.5
		c1.1,0.1,2.2,0.4,3.3,0.9c-0.4,0.9-0.7,1.8-1.1,2.6c-0.6-0.2-1.1-0.4-1.7-0.6c-0.8-0.2-1.6-0.4-2.4-0.2c-0.3,0-0.7,0.1-0.8,0.5
		c-0.1,0.4,0.1,0.7,0.5,0.8c0.9,0.4,1.8,0.7,2.7,1.1c0.9,0.4,1.7,0.8,2.3,1.5c1.3,1.6,0.7,4.2-1,5.1c-0.7,0.3-1.4,0.5-2.2,0.8
		c0,0.5,0,1.1,0,1.7c-0.7,0-1.3,0-1.9,0c0-0.6,0-1.1,0-1.7C27.5,31,27,31,26.5,30.9c-0.7-0.2-1.4-0.4-2.1-0.6
		c-0.1,0-0.2-0.2-0.2-0.3c0-0.9,0-1.9,0-2.9c0.6,0.2,1.2,0.5,1.8,0.7c1.1,0.4,2.2,0.7,3.3,0.5c0.2,0,0.4,0,0.5-0.1
		c0.2-0.1,0.4-0.3,0.5-0.5c0.1-0.3,0-0.6-0.3-0.7c-0.3-0.2-0.7-0.4-1.1-0.6c-0.8-0.3-1.6-0.6-2.4-1c-1.1-0.5-2-1.3-2.3-2.6
		c-0.2-1.2-0.1-2.3,0.8-3.2c0.7-0.7,1.5-0.9,2.4-1.1C27.6,18.5,27.8,18.4,28.1,18.4z"/>
</g>
</svg>
