<?xml version="1.0" encoding="utf-8"?>
<!-- Generator: Adobe Illustrator 24.0.2, SVG Export Plug-In . SVG Version: 6.00 Build 0)  -->
<svg version="1.1" id="Слой_1" xmlns="http://www.w3.org/2000/svg" xmlns:xlink="http://www.w3.org/1999/xlink" x="0px" y="0px"
	 viewBox="0 0 30 30" style="enable-background:new 0 0 30 30;" xml:space="preserve">
<style type="text/css">
	.st0{fill:#4F535C;}
	.st1{fill-rule:evenodd;clip-rule:evenodd;fill:#454952;}
</style>
<g>
	<g>
		<path class="st0" d="M15,0.83c7.82,0,14.17,6.34,14.17,14.17S22.82,29.17,15,29.17C7.17,29.17,0.83,22.83,0.83,15
			S7.17,0.83,15,0.83 M15,0.11C6.79,0.11,0.1,6.79,0.1,15c0,8.21,6.68,14.89,14.89,14.89c8.22,0,14.9-6.68,14.9-14.89
			C29.9,6.79,23.21,0.11,15,0.11L15,0.11z"/>
	</g>
	<g>
		<path class="st1" d="M23.4,12.97c-0.94-3.92-4.32-6.6-8.4-6.65c-0.54,0.03-1.12,0.07-1.65,0.16c-5.72,1.16-8.67,7.47-5.9,12.55
			c0.1,0.15,0.1,0.27,0.08,0.43c-0.4,1.32-0.77,2.67-1.13,4.01c-0.06,0.23-0.06,0.23,0.16,0.17c1.4-0.38,2.78-0.74,4.17-1.08
			c0.12-0.04,0.21-0.04,0.31,0.01c1.79,0.91,3.68,1.17,5.66,0.8C21.43,22.46,24.53,17.64,23.4,12.97z M16.21,21.99
			c-0.41,0.07-0.8,0.11-0.99,0.09c-1.52,0-2.75-0.34-3.89-1c-0.16-0.1-0.28-0.13-0.44-0.07c-0.78,0.19-1.54,0.4-2.31,0.59
			c-0.16,0.05-0.17,0.01-0.14-0.14c0.2-0.71,0.4-1.44,0.62-2.18c0.05-0.2,0.04-0.36-0.09-0.51c-1.56-2.55-1.49-5.67,0.25-8.03
			c1.82-2.43,4.32-3.44,7.29-2.8c2.93,0.61,4.8,2.52,5.47,5.43C22.93,17.38,20.23,21.34,16.21,21.99z"/>
		<path class="st1" d="M17.25,19.03c-0.3,0.03-0.6-0.03-0.89-0.11c-1.97-0.58-3.46-1.79-4.66-3.43c-0.45-0.61-0.87-1.26-1-2.03
			c-0.18-0.89,0.1-1.69,0.78-2.3c0.22-0.22,0.88-0.32,1.15-0.17c0.09,0.07,0.14,0.14,0.19,0.22c0.24,0.61,0.51,1.18,0.75,1.76
			c0.04,0.13,0.03,0.24-0.04,0.37c-0.13,0.27-0.33,0.48-0.53,0.71c-0.17,0.14-0.17,0.3-0.05,0.47c0.71,1.18,1.66,2.03,2.94,2.53
			c0.19,0.07,0.33,0.05,0.44-0.1c0.22-0.26,0.44-0.54,0.64-0.81c0.13-0.16,0.29-0.2,0.48-0.11c0.42,0.18,0.84,0.38,1.24,0.57
			c0.11,0.06,0.19,0.1,0.29,0.14c0.43,0.21,0.43,0.24,0.38,0.69c-0.06,0.9-0.75,1.35-1.54,1.58C17.61,19.07,17.44,19.07,17.25,19.03
			z"/>
	</g>
</g>
</svg>
