<?xml version="1.0" encoding="utf-8"?>
<!-- Generator: Adobe Illustrator 24.0.2, SVG Export Plug-In . SVG Version: 6.00 Build 0)  -->
<svg version="1.1" id="Слой_1" xmlns="http://www.w3.org/2000/svg" xmlns:xlink="http://www.w3.org/1999/xlink" x="0px" y="0px"
	 viewBox="0 0 30 30" style="enable-background:new 0 0 30 30;" xml:space="preserve">
<style type="text/css">
	.st0{fill-rule:evenodd;clip-rule:evenodd;fill:#32B9AE;}
</style>
<g>
	<path class="st0" d="M12,8.6v2.9c-1.4,0.1-6.1,0-8,0c-1.1,0-1.5,0-1.5,0.9c0.8,0.5,0.8,0.4,1.9,0.4c1.8,0,6.3-0.1,7.6,0v3h2
		c0,0.8-0.1,1,0.3,1.6c-0.9,0.1-1.8,0.1-1.6,0.8c0.8,1.1,4.9-0.4,5.5,0.8c-0.1,1.1-4.3-0.4-4.3,1.8v0.4c2.3,0,4.7-0.2,4.7,2
		c-0.1,1.5-1.3,2.2-3.3,2l-0.1-3h-1.3v3.9c2.4,0.1,5.8,0.3,6-2.7c0.3-3.6-4.7-2.7-5.5-2.9c0.4-0.8,2.8-0.4,3.7-0.7
		c0.8-0.3,1.6-1.5-1.6-1.5c-1,0-2.5,0.2-3.3-0.1c0.4-0.3,1.6-0.3,2.3-0.5c0.9-0.4,0.6-0.8,0.6-1.8h2v-3c1.1-0.1,5.8,0,7.5,0
		c1.3,0,1.3,0.1,2-0.4c0.1-1.2-1.1-0.9-4.2-0.9c-1.6,0-3.7,0.1-5.3,0v-3L12,8.6z"/>
	<path class="st0" d="M10.4,26.3h1.3c1-0.4,1.8-0.3,2-1.3c0.3-1.3-1-1.5-1.4-1.7c0.6-0.2,1-0.4,1.1-0.9c0.5-1.8-2.9-2-4.1-1.2
		l0.3,0.7c0.6-0.2,2-0.6,2.4,0.1c0.5,0.9-0.9,1-1.8,1v0.7c0.9,0,2.7,0.2,2,1.3c-0.6,1-2,0.3-2.9,0.2L9.2,26L10.4,26.3z"/>
	<path class="st0" d="M22.7,3.7h-0.5c0.1,3.9-6,0.4-7.1,3.5c0,0.1-0.1,0.4-0.1,0.5s0,0.2,0,0.3l0.1,0.3c1.6,0-1.4-2.2,5.1-2.1
		c1.1,0,2.4,0.1,3.4-0.3c0.6-0.2,1.6-1.3,1-2.1c-1,0.1,0,0.6-0.9,1.4c-0.4,0.5-1.1,0.6-2,0.6c0.1,0,0.1-0.1,0.1,0
		C21.8,5.8,22.7,5.3,22.7,3.7L22.7,3.7z"/>
	<path class="st0" d="M18.4,10.2c0.6,0,0.9-0.1,1-0.6c0-0.6-0.4-0.7-1-0.8V10.2z"/>
	<path class="st0" d="M11.5,10.2V8.8c-0.5,0.1-0.9,0.2-1,0.7C10.5,10,10.9,10.2,11.5,10.2L11.5,10.2z"/>
</g>
</svg>
