<?xml version="1.0" encoding="utf-8"?>
<!-- Generator: Adobe Illustrator 24.0.2, SVG Export Plug-In . SVG Version: 6.00 Build 0)  -->
<svg version="1.1" id="Слой_1" xmlns="http://www.w3.org/2000/svg" xmlns:xlink="http://www.w3.org/1999/xlink" x="0px" y="0px"
	 viewBox="0 0 30 30" style="enable-background:new 0 0 30 30;" xml:space="preserve">
<style type="text/css">
	.st0{fill-rule:evenodd;clip-rule:evenodd;fill:#32B9AE;}
</style>
<g>
	<path class="st0" d="M21.2,5.9c-0.1-1.7,0.5-3.4-1.2-3.4h-9.3c-3,0-2.7-0.1-3,1.6c-0.4,0.1-1.1,0-1.4,0.2c-0.2,0.4-0.2,3.5,0,3.8
		l1.4,0.2c0.1,0.4,0,0.6,0.2,1c0.4,0.8,5.4,0.4,6.5,0.4c7.6,0,6.7,1,6.7-3.1c0.9,0,1.2-0.1,1.8,0.2C23.1,7.5,23,9.2,23,10h0.7
		C23.7,6.3,24.2,5.9,21.2,5.9z M20.3,9H8.5C8.4,7.1,8.9,6.7,7.9,6.7c-0.4,0.7,0.2,0.8-1,0.8c0-0.8-0.1-2,0.1-2.6
		c1.1-0.1,0.5,0,0.7,0.2c0.1,0.4-0.2,0.5,0.6,0.4c0.2-0.6,0.1-1.4,0.1-2h11.8L20.3,9L20.3,9z"/>
	<path class="st0" d="M16.4,6c0-2,0.4-2-1.6-2c-0.5,0-0.6,0.1-0.6,0.6c0,0.7-0.1,3.4,0.1,3.8l2,0.1C16.5,7.8,16.4,6.7,16.4,6z
		 M15.6,7.8h-0.7V4.7h0.7V7.8z"/>
	<path class="st0" d="M19.3,4.7c0-0.8,0-0.7-1.7-0.7c-0.5,0-0.5,0.2-0.5,0.7c0,1.2,0,2.5,0.1,3.7c0.4,0.1,0.9,0.1,1.4,0.1
		C19.7,8.5,19.3,7.8,19.3,4.7z M18.6,7.8l-0.7-0.1v-3h0.7V7.8z"/>
	<path class="st0" d="M13.3,4.1L11.8,4c-0.6,0-0.6,0.2-0.6,0.8v2.9c0,0.7,0,0.8,0.7,0.8l1.4-0.1C13.6,7.8,13.4,4.7,13.3,4.1z
		 M12.6,7.8H12V4.7h0.7L12.6,7.8z"/>
</g>
<g>
	<path class="st0" d="M21.2,14.6c-0.1-1.7,0.5-3.4-1.2-3.4h-9.3c-2.9,0-2.6-0.1-2.9,1.6c-0.4,0.1-1.1,0-1.4,0.2
		c-0.2,0.4-0.2,3.5,0,3.8L7.8,17c0.1,0.4,0,0.6,0.2,1c0.4,0.8,5.4,0.4,6.5,0.4c7.6,0,6.7,1,6.7-3.1c0.9,0,1.2-0.1,1.8,0.2
		c0.2,0.7,0.1,2.4,0.1,3.2h0.6C23.7,14.9,24.2,14.6,21.2,14.6z M20.3,17.7H8.5c-0.1-1.9,0.4-2.3-0.6-2.3c-0.4,0.7,0.2,0.8-1,0.8
		c0-0.8-0.1-2,0.1-2.6c1.1-0.1,0.5,0,0.7,0.2c0.1,0.4-0.2,0.5,0.6,0.4c0.2-0.6,0.1-1.4,0.1-2h11.8L20.3,17.7L20.3,17.7z"/>
	<path class="st0" d="M16.4,14.7c0-2,0.4-2-1.6-2c-0.5,0-0.6,0.1-0.6,0.6c0,0.7-0.1,3.4,0.1,3.8l2,0.1
		C16.5,16.5,16.4,15.4,16.4,14.7z M15.6,16.5h-0.7v-3.1h0.7V16.5z"/>
	<path class="st0" d="M19.3,13.4c0-0.8,0-0.7-1.7-0.7c-0.5,0-0.5,0.2-0.5,0.7c0,1.2,0,2.5,0.1,3.7c0.4,0.1,0.9,0.1,1.4,0.1
		C19.7,17.2,19.3,16.5,19.3,13.4z M18.6,16.5l-0.7-0.1v-3h0.7V16.5z"/>
	<path class="st0" d="M13.3,12.8l-1.5-0.1c-0.6,0-0.6,0.2-0.6,0.8v2.9c0,0.7,0,0.8,0.7,0.8l1.4-0.1C13.6,16.5,13.4,13.4,13.3,12.8z
		 M12.6,16.5H12v-3.1h0.7L12.6,16.5z"/>
</g>
<path class="st0" d="M21.2,23.3c-0.1-1.7,0.5-3.4-1.2-3.4h-9.3c-2.9,0-2.6-0.1-2.9,1.6c-0.4,0.1-1.1,0-1.4,0.2
	c-0.2,0.4-0.2,3.5,0,3.8l1.4,0.2c0.1,0.4,0,0.6,0.2,1c0.4,0.8,5.4,0.4,6.5,0.4c7.6,0,6.7,1,6.7-3.1c0.9,0,1.2-0.1,1.8,0.2
	c0.2,0.7,0.1,2.4,0.1,3.2h0.6C23.7,23.7,24.2,23.3,21.2,23.3z M8.5,26.4c-0.1-1.9,0.4-2.3-0.6-2.3c-0.4,0.7,0.2,0.8-1,0.8
	c0-0.8-0.1-2,0.1-2.6c1.1-0.1,0.5,0,0.7,0.2c0.1,0.4-0.2,0.5,0.6,0.4c0.2-0.6,0.1-1.4,0.1-2h11.8l0.1,5.5H8.5z"/>
<polyline class="st0" points="23,10 23.1,27.4 23.8,27.4 23.7,10 "/>
<path class="st0" d="M16.4,23.4c0-2,0.4-2-1.6-2c-0.5,0-0.6,0.1-0.6,0.6c0,0.7-0.1,3.4,0.1,3.8l2,0.1C16.5,25.2,16.4,24.1,16.4,23.4
	z M15.6,25.2h-0.7v-3.1h0.7V25.2z"/>
<path class="st0" d="M19.3,22.1c0-0.8,0-0.7-1.7-0.7c-0.5,0-0.5,0.2-0.5,0.7c0,1.2,0,2.5,0.1,3.7c0.4,0.1,0.9,0.1,1.4,0.1
	C19.7,25.9,19.3,25.2,19.3,22.1z M18.6,25.2l-0.7-0.1v-3h0.7V25.2z"/>
<path class="st0" d="M13.3,21.5l-1.5-0.1c-0.6,0-0.6,0.2-0.6,0.8v2.9c0,0.7,0,0.8,0.7,0.8l1.4-0.1C13.6,25.2,13.4,22.1,13.3,21.5z
	 M12.6,25.2H12v-3.1h0.7L12.6,25.2z"/>
</svg>
