<?xml version="1.0" encoding="utf-8"?>
<!-- Generator: Adobe Illustrator 24.0.2, SVG Export Plug-In . SVG Version: 6.00 Build 0)  -->
<svg version="1.1" id="Слой_1" xmlns="http://www.w3.org/2000/svg" xmlns:xlink="http://www.w3.org/1999/xlink" x="0px" y="0px"
	 viewBox="0 0 30 30" style="enable-background:new 0 0 30 30;" xml:space="preserve">
<style type="text/css">
	.st0{fill-rule:evenodd;clip-rule:evenodd;fill:#32B9AE;}
</style>
<g>
	<path class="st0" d="M2.5,7.1V23c1.3,0.6,1.8,0.4,3-0.1c1.4-0.6,1.9,0,3.1,0.3c1.4,0.4,2-0.3,3.1-0.4c1.3-0.2,2,0.6,3.2,0.6
		c1.2,0.1,1.9-0.8,3.2-0.7c1.1,0.2,1.7,1,3.1,0.6c1.2-0.3,1.7-0.9,3.1-0.3c1.3,0.4,1.7,0.8,3.1,0.1V5.6H25l-1.7,2.9
		c-0.8,1.3-1.6,0.8-2.9,1.7l-1,9.3c-0.9,0.2-4,1.4-4.6,1.3c-0.8,0-3.4-1.1-4.4-1.3c-0.2-1.4-0.4-2.9-0.7-4.3c-0.6-3-0.1-1.9-1.9-3.3
		c-0.4-0.4-1.3-2.7-1.7-3.4c-0.4-1-0.4-0.7-1.7-0.9C3.9,7.3,3.2,7.2,2.5,7.1L2.5,7.1z"/>
	<path class="st0" d="M2.5,25.1v2.4h1.7c0.3-0.1,2-0.7,2.4-0.7s2.1,0.4,2.6,0.7h0.6c0.3-0.1,2-0.7,2.4-0.7c0.4,0,2.1,0.4,2.6,0.7
		h0.6c0.3-0.1,2-0.7,2.4-0.7s2.1,0.4,2.6,0.7H21c0.4-0.2,2.1-0.7,2.6-0.7c0.4,0,2.1,0.6,2.4,0.7h1.7v-2.4c-1.7,0.6-1.6,0.4-3.1-0.1
		c-1.4-0.6-1.9,0-3.1,0.3c-1.4,0.4-2-0.3-3.1-0.6c-1.3-0.1-2,0.7-3.2,0.7s-1.8-0.9-3.2-0.7c-1.1,0.2-1.7,1-3.1,0.6
		C7.7,25,7.2,24.4,5.8,25C3.9,25.6,4.1,25.5,2.5,25.1L2.5,25.1z"/>
	<path class="st0" d="M17.7,11.2l0.3-0.1c0.1-0.1,0.2-0.2,0.3-0.3c0.2-0.2,0.4-0.3,0.7-0.6c-0.3-0.3-1-0.4-1.4-0.6V8.1h0.1
		c0.6-0.2,1-0.7,1.3-1.1c-1.9-0.6-1.4,0-1.4-4.4h-5.2v2l-1.2-0.4c0,0.3,0,0.7,0,0.9l0.1,0.3c0.1,0.6-0.2-0.4,0,0.2
		c0.2,0.4,1,0.2,1.1,0.7v1.4l-1.2-0.4l0.1,1.6c1.4,0.4,1.1,0.4,1.1,2.1l-1.2-0.4c0,0.2,0,0.6,0,0.8c0.1,0.9,0.2,0.7,1.2,1.1v1.7
		l-1.2-0.4l0.1,1.6l1.1,0.3c0,1.9-0.2,1.7,0.8,2.7c0.6,0.6,1.3,1.2,1.8,1.8c0.7-0.3,2-2,2.4-2.3c0.7-0.6,0.3,0.4,1.7-1.1l-1.4-0.6
		v-1.6c0.1-0.1,0.2,0.1,0.8-0.3c0.2-0.2,0.4-0.4,0.7-0.7l-0.1-0.1c-1.4-0.8-1.3,0.2-1.3-2h-0.1C17.7,11.5,17.7,11.2,17.7,11.2z
		 M13.5,3.5h3.1v2.6L13.4,5L13.5,3.5z M13.4,6.4l3.2,1.1v1.7l-3.2-1.1C13.4,8.1,13.4,6.4,13.4,6.4z M15.1,18.4
		c-0.4-0.2-0.8-0.7-1.1-1c-0.7-0.7-0.6-0.4-0.6-1.6c0.6,0.1,1.1,0.3,1.6,0.6c0.4,0.1,1.2,0.2,1.6,0.6L15.1,18.4z M16.6,15.4
		l-3.2-1.1l0.1-1.7l3.1,1.1V15.4z M16.6,12.3c-0.6-0.1-2.7-0.9-3.2-1.1V9.5l2.6,0.9C16.7,10.7,16.6,10.5,16.6,12.3z"/>
</g>
</svg>
