<?xml version="1.0" encoding="utf-8"?>
<!-- Generator: Adobe Illustrator 24.0.2, SVG Export Plug-In . SVG Version: 6.00 Build 0)  -->
<svg version="1.1" id="Слой_1" xmlns="http://www.w3.org/2000/svg" xmlns:xlink="http://www.w3.org/1999/xlink" x="0px" y="0px"
	 viewBox="0 0 30 30" style="enable-background:new 0 0 30 30;" xml:space="preserve">
<style type="text/css">
	.st0{fill:#32B9AE;}
</style>
<g>
	<path class="st0" d="M4.9,15.6c0.3-0.4,0.6-0.7,0.9-1.1c1.2-1.5,2.1-3.2,2.6-5V9.4c-0.1,0-0.2,0-0.2,0c-0.6,0-1.3,0-1.9,0
		s-1-0.4-1-1c0-1.6,0-3.2,0-4.8c0-0.7,0.4-1.1,1.1-1.1c5.9,0,11.8,0,17.7,0c0.7,0,1.1,0.4,1.1,1.1c0,1.6,0,3.2,0,4.7
		c0,0.7-0.4,1.1-1.1,1.1c-0.6,0-1.3,0-1.9,0c-0.1,0-0.1,0-0.2,0c0.1,0.3,0.1,0.6,0.2,0.9c0.5,1.9,1.4,3.5,2.7,4.9
		c0.1,0.1,0.2,0.2,0.2,0.2c0.1,0.2,0.1,0.3,0,0.5c-0.1,0.1-0.3,0.1-0.5,0c-0.4-0.5-0.9-1-1.2-1.5c-0.9-1.2-1.5-2.5-1.9-3.9
		c-0.1-0.3-0.1-0.6-0.2-0.9c0-0.1-0.1-0.2-0.2-0.2c-1.1,0-2.2,0-3.2,0c-2.8,0-5.6,0-8.4,0c-0.2,0-0.2,0-0.3,0.2
		c-0.5,2.1-1.5,3.9-2.9,5.6c-0.2,0.2-0.4,0.4-0.6,0.7s-0.4,0.3-0.6-0.1C4.9,15.7,4.9,15.7,4.9,15.6z M6.6,8.8
		C6.6,8.7,6.6,8.7,6.6,8.8c0-0.3,0-0.6,0-0.9c0-0.4,0.1-0.5,0.5-0.5c5.4,0,10.8,0,16.2,0c0.4,0,0.5,0.1,0.5,0.5c0,0.3,0,0.5,0,0.8
		c0.5,0.1,0.7,0,0.7-0.5c0-1.1,0-2.2,0-3.4c0-0.4,0-0.8,0-1.3c0-0.3-0.1-0.4-0.4-0.4H24c-5.8,0-11.6,0-17.4,0c-0.1,0-0.1,0-0.2,0
		C6,3.2,5.9,3.3,5.9,3.6c0,1.6,0,3.2,0,4.8c0,0.3,0.1,0.4,0.4,0.4C6.4,8.8,6.5,8.8,6.6,8.8z M23.1,8.1c-5.3,0-10.6,0-15.8,0
		c0,0.1,0,0.2,0,0.3s0,0.2,0,0.3c5.3,0,10.6,0,15.8,0C23.1,8.5,23.1,8.3,23.1,8.1z"/>
	<path class="st0" d="M19.8,15.1c0-1.1,0-2.1,0-3.1c0-0.1,0-0.2,0-0.2c0-0.2,0.2-0.3,0.3-0.3c0.2,0,0.3,0.1,0.3,0.3
		c0,0.1,0,0.2,0,0.2c0,1,0,1.9,0,2.9c0,0.1,0,0.2,0,0.3c0.2-0.2,0.4-0.3,0.6-0.5c0.1,0,0.1-0.1,0.2-0.1c0.2-0.1,0.3,0,0.4,0.1
		s0.1,0.3,0,0.4c-0.1,0.1-0.2,0.2-0.4,0.3c-0.3,0.2-0.6,0.5-0.9,0.7c-0.2,0.2-0.3,0.2-0.5,0c-0.4-0.3-0.8-0.6-1.2-0.9
		c-0.2-0.1-0.2-0.3-0.1-0.5s0.3-0.2,0.5,0C19.3,14.7,19.5,14.8,19.8,15.1z"/>
	<path class="st0" d="M9.9,15.1c0-0.5,0-0.9,0-1.3c0-0.6,0-1.3,0-1.9c0-0.1,0-0.2,0-0.2c0.1-0.1,0.2-0.2,0.3-0.2s0.3,0.1,0.3,0.2
		c0,0.1,0,0.2,0,0.3c0,1,0,1.9,0,2.9c0,0.1,0,0.1,0,0.3c0.2-0.2,0.4-0.3,0.7-0.5s0.5-0.2,0.6,0s0.1,0.4-0.2,0.6
		c-0.4,0.3-0.7,0.6-1.1,0.8c-0.2,0.2-0.3,0.2-0.6,0c-0.4-0.3-0.8-0.6-1.2-0.9c-0.2-0.2-0.2-0.3-0.1-0.5c0.1-0.2,0.3-0.2,0.5,0
		C9.4,14.7,9.6,14.8,9.9,15.1z"/>
	<path class="st0" d="M15.2,4.5c-2.7,0-5.3,0-8,0c-0.1,0-0.1,0-0.2,0c-0.3,0-0.4-0.1-0.4-0.3c0-0.2,0.2-0.3,0.5-0.3
		c5.4,0,10.8,0,16.3,0c0.1,0,0.1,0,0.2,0c0.2,0,0.3,0.2,0.3,0.3c0,0.2-0.1,0.3-0.3,0.3c-0.1,0-0.2,0-0.3,0
		C20.5,4.5,17.9,4.5,15.2,4.5z"/>
	<path class="st0" d="M13.2,5.1c2,0,4,0,6.1,0c0.1,0,0.1,0,0.2,0c0.2,0,0.4,0.1,0.4,0.3c0,0.2-0.2,0.3-0.4,0.3h-0.1
		c-4.1,0-8.1,0-12.2,0c-0.1,0-0.2,0-0.3,0c-0.2,0-0.2-0.2-0.2-0.3c0-0.2,0.1-0.3,0.3-0.3c0.1,0,0.2,0,0.2,0
		C9.1,5.1,11.1,5.1,13.2,5.1z"/>
	<path class="st0" d="M22.1,5.1c0.2,0,0.3,0.2,0.3,0.3c0,0.2-0.2,0.3-0.3,0.3c-0.2,0-0.3-0.2-0.3-0.3C21.8,5.3,21.9,5.1,22.1,5.1z"
		/>
	<path class="st0" d="M23.1,5.5c0-0.2,0.2-0.3,0.3-0.3c0.2,0,0.3,0.2,0.3,0.3c0,0.2-0.2,0.3-0.3,0.3C23.2,5.8,23.1,5.6,23.1,5.5z"/>
	<path class="st0" d="M20.8,5.8c-0.2,0-0.3-0.2-0.3-0.3c0-0.2,0.1-0.3,0.3-0.3c0.2,0,0.3,0.1,0.3,0.3C21.1,5.7,21,5.8,20.8,5.8z"/>
</g>
<g>
	<path class="st0" d="M20.7,21c0,0.2,0,0.4,0,0.7v0.1c0,0.2-0.1,0.5-0.1,0.7c-0.3,1.4-1,2.5-2.1,3.3c-1.4,1-2.9,1.4-4.6,1
		c-1.4-0.3-2.5-1-3.4-2.1c-0.9-1.2-1.3-2.5-1.1-4c0.1-1.2,0.6-2.3,1.4-3.2c0.9-1,2-1.6,3.3-1.8c0.2,0,0.4-0.1,0.6-0.1
		c0.2,0,0.4,0,0.7,0h0.1c0.9,0.1,1.7,0.3,2.5,0.8c1.5,0.9,2.4,2.2,2.7,3.9C20.6,20.6,20.7,20.8,20.7,21z M19.3,21.3
		c0-2.4-1.9-4.3-4.3-4.3s-4.3,1.9-4.3,4.3s1.9,4.3,4.3,4.3C17.4,25.6,19.3,23.7,19.3,21.3z M13.4,26.3c0.4,0.1,0.9,0.2,1.4,0.2
		c0-0.2,0-0.4,0-0.5c-0.4-0.1-0.8-0.1-1.2-0.2C13.5,26,13.5,26.2,13.4,26.3z M15.2,26.6c0.5,0,0.9-0.1,1.4-0.2
		c-0.1-0.2-0.1-0.3-0.2-0.5C16,26,15.6,26,15.2,26.1C15.2,26.2,15.2,26.4,15.2,26.6z M17.9,25.1c-0.4,0.2-0.7,0.4-1.1,0.6
		c0.1,0.1,0.1,0.3,0.2,0.5c0.4-0.2,0.8-0.4,1.2-0.7C18.1,25.3,18,25.2,17.9,25.1z M12.1,25.1c-0.1,0.1-0.2,0.3-0.3,0.4
		c0.4,0.3,0.8,0.5,1.2,0.7c0.1-0.2,0.1-0.3,0.2-0.5C12.8,25.5,12.5,25.3,12.1,25.1z M11.8,24.8c-0.3-0.3-0.5-0.6-0.8-0.9
		c-0.1,0.1-0.3,0.2-0.4,0.2c0.3,0.4,0.5,0.8,0.9,1.1C11.6,25,11.7,24.9,11.8,24.8z M19.4,24.1c-0.2-0.1-0.3-0.2-0.4-0.2
		c-0.3,0.3-0.5,0.6-0.8,0.9c0.1,0.1,0.2,0.3,0.3,0.4C18.9,24.9,19.2,24.5,19.4,24.1z M19.2,23.5c0.1,0.1,0.3,0.2,0.4,0.3
		c0.2-0.4,0.4-0.8,0.5-1.3c-0.2,0-0.3-0.1-0.5-0.1c-0.1,0.2-0.1,0.4-0.2,0.6C19.4,23.1,19.3,23.3,19.2,23.5z M10.8,23.5
		c-0.1-0.4-0.3-0.8-0.4-1.1c-0.2,0-0.3,0.1-0.5,0.1c0.1,0.5,0.2,0.9,0.5,1.3C10.5,23.6,10.6,23.6,10.8,23.5z M9.8,22
		c0.2,0,0.3-0.1,0.5-0.1c0-0.4,0-0.8,0-1.2c-0.1,0-0.3-0.1-0.5-0.1C9.7,21.1,9.7,21.5,9.8,22z M20.2,22c0.1-0.5,0.1-0.9,0-1.4
		c-0.2,0-0.3,0.1-0.5,0.1c0,0.4,0,0.8,0,1.2C19.9,21.9,20,22,20.2,22z M10.3,20.3c0.1-0.4,0.3-0.8,0.4-1.1c-0.1-0.1-0.3-0.1-0.4-0.2
		c-0.2,0.4-0.4,0.8-0.5,1.3C10.1,20.2,10.2,20.2,10.3,20.3z M19.6,18.9c-0.1,0.1-0.3,0.2-0.4,0.2c0.1,0.4,0.3,0.8,0.4,1.1
		c0.1,0,0.3-0.1,0.5-0.1C20,19.7,19.8,19.3,19.6,18.9z M10.6,18.5c0.2,0.1,0.3,0.2,0.4,0.2c0.3-0.3,0.5-0.6,0.8-0.9
		c-0.1-0.1-0.2-0.2-0.3-0.4C11.2,17.8,10.9,18.1,10.6,18.5z M19.4,18.5c-0.3-0.4-0.5-0.7-0.9-1c-0.1,0.1-0.2,0.2-0.3,0.3
		c0.3,0.3,0.5,0.6,0.8,0.9C19.1,18.7,19.3,18.6,19.4,18.5z M17.9,17.5c0.1-0.1,0.2-0.2,0.3-0.4c-0.4-0.3-0.8-0.5-1.2-0.7
		c0,0.1-0.1,0.2-0.1,0.3c0,0.1,0,0.1,0.1,0.1c0.2,0.1,0.4,0.2,0.5,0.3C17.6,17.3,17.7,17.4,17.9,17.5z M11.8,17.2
		c0.1,0.1,0.2,0.2,0.3,0.3c0.4-0.2,0.7-0.4,1-0.6c0-0.1-0.1-0.3-0.1-0.4C12.6,16.6,12.1,17,11.8,17.2z M14.8,16.1
		c-0.5,0-0.9,0.1-1.3,0.2c0.1,0.2,0.1,0.3,0.2,0.4c0.4-0.1,0.8-0.1,1.2-0.2C14.8,16.4,14.8,16.3,14.8,16.1z M15.2,16.1
		c0,0.2,0,0.3,0,0.4c0.4,0.1,0.8,0.1,1.2,0.2c0-0.1,0.1-0.3,0.1-0.4C16.1,16.2,15.7,16.1,15.2,16.1z"/>
	<path class="st0" d="M14.6,21.7c-0.1,0.1-0.2,0.2-0.4,0.2c-0.4,0.2-0.7,0.4-1.1,0.6c-0.4,0.2-0.9,0.1-1.2-0.3
		c-0.5-0.6-0.5-1.3-0.3-2.1c0-0.1,0.1-0.2,0.1-0.3c0.2-0.4,0.6-0.5,0.9-0.2c0.4,0.3,0.7,0.6,1.1,0.9c0.3,0.2,0.5,0.4,0.7,0.6
		c0.1-0.1,0.2-0.1,0.2-0.2c-0.1-0.1-0.1-0.2-0.2-0.3c-0.2-0.4-0.4-0.7-0.6-1.1c-0.2-0.4-0.1-0.9,0.2-1.1c0.5-0.4,1-0.5,1.6-0.5
		c0.3,0,0.6,0.1,0.8,0.3c0.3,0.2,0.4,0.6,0.2,0.9c-0.2,0.3-0.4,0.5-0.6,0.8c-0.2,0.3-0.5,0.6-0.7,0.9c-0.1,0.1-0.2,0.2-0.2,0.3
		c0.1,0.1,0.1,0.1,0.2,0.2c0.1-0.1,0.2-0.1,0.4-0.2c0.4-0.2,0.7-0.4,1.1-0.6s0.9-0.1,1.2,0.3c0.5,0.6,0.5,1.3,0.3,2.1
		c0,0.1-0.1,0.2-0.1,0.2c-0.2,0.5-0.6,0.6-1,0.3c-0.4-0.3-0.8-0.6-1.1-0.9c-0.2-0.2-0.5-0.4-0.7-0.6L15.3,22
		c0.2,0.1,0.2,0.2,0.3,0.4c0.2,0.4,0.4,0.7,0.6,1.1s0.1,0.9-0.2,1.1c-0.5,0.4-1,0.5-1.6,0.4c-0.3,0-0.6-0.1-0.9-0.3
		c-0.3-0.2-0.4-0.6-0.2-0.9c0.3-0.4,0.5-0.7,0.8-1c0.2-0.3,0.4-0.5,0.6-0.8C14.7,21.8,14.7,21.7,14.6,21.7z M18.2,21.8
		c0-0.4-0.1-0.8-0.4-1.2c-0.2-0.3-0.6-0.4-0.9-0.2c-0.4,0.2-0.8,0.4-1.2,0.6c-0.2,0.1-0.2,0.3-0.1,0.4l0,0c0.5,0.4,1.1,0.9,1.6,1.3
		c0.3,0.2,0.6,0.2,0.7-0.2C18.2,22.4,18.2,22.1,18.2,21.8z M11.8,21.1c0,0.3,0.1,0.7,0.4,1c0.2,0.3,0.7,0.4,0.9,0.2
		c0.4-0.2,0.7-0.4,1.1-0.6c0.3-0.2,0.3-0.3,0.1-0.5c-0.5-0.4-1.1-0.9-1.6-1.3c-0.3-0.2-0.6-0.2-0.7,0.2
		C11.8,20.3,11.8,20.6,11.8,21.1z M14.8,24.6c0.3,0,0.7-0.1,1-0.4c0.3-0.2,0.4-0.6,0.2-0.9c-0.2-0.4-0.4-0.7-0.6-1.1
		c-0.2-0.3-0.3-0.3-0.5,0s-0.4,0.5-0.6,0.8c-0.2,0.3-0.4,0.5-0.7,0.8c-0.2,0.3-0.1,0.5,0.2,0.7l0,0C14.1,24.5,14.4,24.6,14.8,24.6z
		 M15.5,18c-0.5,0-0.9,0.1-1.2,0.4C14,18.7,14,19,14.1,19.3c0.2,0.4,0.4,0.8,0.7,1.2c0.1,0.2,0.2,0.2,0.4,0.1l0.1-0.1
		c0.2-0.3,0.5-0.6,0.7-0.9c0.2-0.3,0.4-0.5,0.6-0.8s0.1-0.5-0.2-0.6h-0.1C16,18.1,15.7,18,15.5,18z M15,21.6c0.2,0,0.3-0.1,0.3-0.3
		c0-0.2-0.1-0.3-0.3-0.3s-0.3,0.1-0.3,0.3S14.8,21.6,15,21.6z"/>
</g>
<path class="st0" d="M4.9,23.1c-0.1,0-0.1-0.1-0.2-0.1c0,0,0,0,0-0.1c0-0.2,0-0.4,0-0.6c0,0,0,0,0-0.1c-0.1,0.1-0.2,0.1-0.3,0.2H4.3
	c-0.1-0.1-0.2-0.1-0.1-0.3c0-0.1,0-0.1,0.1-0.2c0.2-0.1,0.3-0.2,0.5-0.3c0,0,0,0,0-0.1s0-0.3,0-0.4c-0.1,0.1-0.2,0.1-0.2,0.1
	c-0.1,0-0.1,0.1-0.2,0.1c0-0.2,0-0.3,0-0.5C4.2,20.9,4.1,21,4,21c0,0,0,0,0,0.1c0,0.2,0,0.4,0,0.6v0.1c-0.1,0-0.1,0.1-0.2,0.1
	l-0.1-0.1c0,0,0,0,0-0.1s0-0.2,0-0.4c0,0,0,0,0-0.1c0,0,0,0-0.1,0c-0.2,0.1-0.4,0.2-0.6,0.3H2.9c-0.1,0-0.1-0.1-0.2-0.1
	c0,0,0,0,0-0.1s0-0.2,0-0.2C2.7,21,2.8,21,2.9,21c0.1-0.1,0.3-0.2,0.4-0.2c0,0,0,0,0.1,0C3,21,2.9,20.9,2.8,20.9c0,0,0,0,0-0.1
	s0-0.1,0-0.2c0,0,0,0,0-0.1c0.1,0,0.1-0.1,0.2-0.1h0.1c0.2,0.1,0.4,0.2,0.5,0.3h0.1c0.1-0.1,0.2-0.1,0.4-0.2
	c-0.1-0.1-0.3-0.2-0.4-0.3C3.8,20.1,4,20,4.1,19.9l0,0c-0.1-0.1-0.2-0.1-0.3-0.2H3.7C3.3,19.9,3.2,20,3,20.1H2.9
	c-0.1,0-0.2-0.1-0.2-0.1c0-0.1,0-0.1,0-0.2v-0.1c0.1-0.1,0.2-0.1,0.4-0.2l0,0c0,0,0,0-0.1,0c-0.2-0.1-0.4-0.2-0.6-0.3c0,0,0,0,0-0.1
	s0-0.1,0-0.2l0,0c0.1,0,0.1-0.1,0.2-0.1c0,0,0,0,0.1,0C3,18.9,3.2,19,3.4,19.1c0,0,0,0,0.1,0c0-0.1,0-0.2,0-0.3c0-0.1,0-0.2,0.1-0.2
	s0.1-0.1,0.1,0l0,0c0.1,0,0.2,0.1,0.1,0.3c0,0.2,0,0.3,0,0.5c0,0,0,0,0,0.1c0.1,0.1,0.3,0.1,0.4,0.2l0,0c0-0.2,0-0.3,0-0.5
	c0.2,0.1,0.3,0.2,0.5,0.3c0-0.2,0-0.3,0-0.5l0,0c-0.2-0.1-0.3-0.2-0.5-0.3c0,0,0,0,0-0.1l0,0c0-0.1,0-0.2,0.2-0.3c0,0,0,0,0.1,0
	c0.1,0.1,0.2,0.1,0.3,0.2c0,0,0,0,0.1,0c0,0,0,0,0-0.1c0-0.2,0-0.4,0-0.6v-0.1c0.1,0,0.1-0.1,0.2-0.1s0.1,0.1,0.2,0.2c0,0,0,0,0,0.1
	c0,0.2,0,0.4,0,0.6c0,0,0,0,0,0.1c0.1-0.1,0.3-0.1,0.4-0.2c0.1,0,0.1,0,0.1,0l0.1,0.1c0,0,0.1,0,0,0.1c0,0.1,0,0.1,0,0.2
	c0,0-0.1,0.1-0.2,0.1c-0.2,0.1-0.3,0.2-0.5,0.2c0,0,0,0,0,0.1s0,0.3,0,0.4c0.2-0.1,0.3-0.2,0.5-0.3c0,0.2,0,0.3,0,0.5c0,0,0,0,0.1,0
	c0.1-0.1,0.2-0.1,0.4-0.2c0,0,0,0,0-0.1c0-0.2,0-0.4,0-0.7c0,0,0,0,0-0.1c0.1-0.1,0.2-0.1,0.3,0c0,0,0,0,0,0.1s0,0.2,0,0.4
	c0,0,0,0,0,0.1c0,0,0,0,0.1,0C6.8,19.2,7,19.1,7.2,19h0.1c0.1,0,0.1,0.1,0.2,0.1c0,0,0,0,0,0.1s0,0.1,0,0.2c0,0,0,0,0,0.1
	c-0.2,0.1-0.4,0.2-0.5,0.3c0,0,0,0-0.1,0C7,19.9,7.1,19.9,7.3,20c0,0,0.1,0,0,0.1c0,0.1,0,0.1,0,0.2c0,0,0,0,0,0.1
	c-0.1,0-0.1,0.1-0.2,0.1S7,20.4,6.9,20.4c-0.1-0.1-0.3-0.2-0.4-0.2c0,0,0,0-0.1,0C6.2,19.9,6,20,5.9,20.1c0.1,0.1,0.3,0.2,0.4,0.3
	c-0.1,0.1-0.3,0.2-0.4,0.3C6,20.7,6,20.8,6,20.8c0.1,0,0.2,0.1,0.3,0.1h0.1c0.2-0.1,0.4-0.2,0.5-0.3H7l0,0c0.1,0,0.1,0.1,0.2,0.1
	c0,0.1,0,0.1,0,0.2c0,0,0,0,0,0.1c-0.2-0.1-0.3,0-0.4,0.1l0,0c0,0,0,0,0.1,0c0.2,0.1,0.3,0.2,0.5,0.3c0,0,0,0,0,0.1s0,0.1,0,0.2v0.1
	c-0.1,0-0.1,0.1-0.2,0.1H7.1c-0.2-0.1-0.4-0.2-0.5-0.3c0,0,0,0-0.1,0c0,0,0,0,0,0.1s0,0.2,0,0.3c0,0.2,0,0.2-0.1,0.3l0,0l0,0
	c-0.1-0.1-0.2-0.1-0.1-0.3c0-0.2,0-0.3,0-0.5v-0.1c-0.1-0.1-0.3-0.1-0.4-0.2c0,0.2,0,0.3,0,0.5c-0.2-0.1-0.3-0.2-0.5-0.3
	c0,0.2,0,0.3,0,0.5l0,0c0.2,0.1,0.3,0.2,0.5,0.3c0,0,0,0,0,0.1s0,0.1,0,0.2c0,0,0,0,0,0.1c-0.2,0.1-0.2,0.1-0.3,0
	c-0.1,0-0.2-0.1-0.3-0.2c0,0,0,0,0,0.1c0,0.2,0,0.4,0,0.6v0.1C5.1,23,5,23.1,4.9,23.1L4.9,23.1z M5,20.7c0.1,0,0.1,0,0.2,0
	c0,0,0,0,0.1,0c0.1-0.1,0.1-0.2,0.1-0.3v-0.1c0-0.1-0.1-0.2-0.2-0.3c0,0,0,0-0.1,0s-0.2,0-0.3,0c0,0,0,0-0.1,0
	c-0.1,0.1-0.1,0.2-0.2,0.3c0,0,0,0,0,0.1s0.1,0.2,0.2,0.3l0.1,0.1C4.9,20.7,4.9,20.7,5,20.7z"/>
<g>
	<path class="st0" d="M24.8,17.4c0,0.3,0,0.6,0,0.9c-0.1,0-0.2,0-0.4,0c0-0.3,0-0.6,0-0.9C24.6,17.4,24.7,17.4,24.8,17.4z"/>
	<path class="st0" d="M27.5,20.5c-0.3,0-0.6,0-0.9,0c0-0.1,0-0.2,0-0.4c0.3,0,0.6,0,0.9,0C27.5,20.2,27.5,20.4,27.5,20.5z"/>
	<path class="st0" d="M24.5,23.2c0-0.3,0-0.6,0-0.9c0.1,0,0.2,0,0.4,0c0,0.3,0,0.6,0,0.9C24.7,23.2,24.6,23.2,24.5,23.2z"/>
	<path class="st0" d="M24.7,22.2c-1,0-1.8-0.8-1.8-1.9c0-1,0.8-1.9,1.8-1.9s1.8,0.8,1.8,1.8C26.5,21.3,25.7,22.2,24.7,22.2z
		 M24.7,18.8c-0.8,0-1.5,0.7-1.5,1.5s0.6,1.5,1.5,1.5c0.8,0,1.5-0.7,1.5-1.5S25.5,18.8,24.7,18.8z"/>
	<path class="st0" d="M21.8,20.5c0-0.1,0-0.2,0-0.4c0.3,0,0.6,0,0.9,0c0,0.1,0,0.2,0,0.4C22.4,20.5,22.1,20.5,21.8,20.5z"/>
	<path class="st0" d="M22.5,18.4c0.1-0.1,0.2-0.2,0.2-0.2c0.2,0.2,0.4,0.4,0.6,0.6c-0.1,0.1-0.2,0.2-0.2,0.2
		C22.9,18.8,22.7,18.6,22.5,18.4z"/>
	<path class="st0" d="M26.2,19c-0.1-0.1-0.2-0.2-0.2-0.2c0.2-0.2,0.4-0.4,0.6-0.6c0.1,0.1,0.2,0.2,0.2,0.2
		C26.6,18.6,26.4,18.8,26.2,19z"/>
	<path class="st0" d="M22.5,22.2c0.2-0.2,0.4-0.4,0.6-0.6c0.1,0.1,0.2,0.2,0.2,0.2c-0.2,0.2-0.4,0.4-0.6,0.6
		C22.7,22.4,22.6,22.3,22.5,22.2z"/>
	<path class="st0" d="M26,21.9c0.1-0.1,0.2-0.2,0.2-0.2c0.2,0.2,0.4,0.4,0.6,0.6c-0.1,0.1-0.2,0.2-0.2,0.2
		C26.4,22.3,26.2,22.1,26,21.9z"/>
</g>
</svg>
