<?xml version="1.0" encoding="utf-8"?>
<!-- Generator: Adobe Illustrator 24.0.2, SVG Export Plug-In . SVG Version: 6.00 Build 0)  -->
<svg version="1.1" id="Слой_1" xmlns="http://www.w3.org/2000/svg" xmlns:xlink="http://www.w3.org/1999/xlink" x="0px" y="0px"
	 viewBox="0 0 30 30" style="enable-background:new 0 0 30 30;" xml:space="preserve">
<style type="text/css">
	.st0{fill:#32B9AE;}
</style>
<g>
	<g>
		<path class="st0" d="M15,12.4L15,12.4c-1.6,0-3.1-0.9-3.9-2.3C11,10,11,10,10.9,10c-0.4,0-0.8,0-1.2,0c-0.2,0-0.3,0-0.5,0
			S8.8,9.8,8.8,9.6C8.6,7.8,9.2,6,10.4,4.7s2.7-2.1,4.4-2.2c3.6-0.1,6.4,2.9,6.5,7c0,0.1,0,0.2-0.1,0.3S21,9.9,20.9,9.9
			c-0.2,0-0.3,0-0.5,0c-0.4,0-0.8,0-1.3,0c0,0.1-0.1,0.1-0.1,0.2C18.1,11.5,16.6,12.4,15,12.4z M10.9,9.1c0.4,0,0.7,0.2,0.9,0.5
			c0.7,1.2,1.9,1.9,3.2,1.9l0,0c1.3,0,2.6-0.7,3.3-1.9c0.2-0.3,0.5-0.5,0.9-0.5s0.9,0,1.3,0c0,0,0,0,0.1,0c-0.3-3.4-2.7-5.9-5.7-5.8
			C12,3.4,9.6,6,9.5,9.1h0.1C10,9.1,10.4,9.1,10.9,9.1C10.8,9.1,10.8,9.1,10.9,9.1z"/>
	</g>
	<g>
		<path class="st0" d="M14.6,7.3c-0.2,0.7-0.4,1.4-0.6,2h0.1C15,8.3,15.9,7.2,17,6c-0.6,0-1,0-1.5,0c0.4-0.6,0.8-1.2,1.1-1.8
			c-0.9-0.2-1.7-0.1-2.1,0.9c-0.3,0.8-0.9,1.4-1.4,2.2C13.6,7.3,14.1,7.3,14.6,7.3z"/>
	</g>
	<g>
		<path class="st0" d="M16.7,24.8c0.5-1.2,1.4-1.6,2.6-1.6c0.6,0,1.1,0,1.7,0c0,0.2,0,0.4,0.1,0.6c0.6,0,1.3,0,1.9,0
			c0.4,0,0.6,0.1,0.6,0.5s-0.3,0.5-0.6,0.5c-0.6,0-1.3,0-1.9,0c0,0.4,0,0.7,0,1.1c0.6,0,1.2,0,1.9,0c0.3,0,0.7,0,0.7,0.5
			c0,0.4-0.3,0.5-0.7,0.5c-0.6,0-1.2,0-1.8,0c0,0.2,0,0.4-0.1,0.6c-0.9,0-1.9,0.1-2.8,0c-0.7-0.1-1.1-0.5-1.6-1.5
			c-3.4,0-6.8,0-10.2,0c0-0.4,0-0.8,0-1.2C9.9,24.8,13.3,24.8,16.7,24.8z"/>
	</g>
	<g>
		<path class="st0" d="M18.6,20.1h-7.1c-0.2,0-0.4-0.2-0.4-0.4v-5.1c0-0.2,0.1-0.3,0.2-0.4c0.1-0.1,0.3,0,0.4,0.1
			c2.2,2.1,4.4,2.1,6.6,0c0.1-0.1,0.3-0.1,0.4-0.1s0.3,0.2,0.3,0.4v5.2C19,19.9,18.8,20.1,18.6,20.1z M11.9,19.3h6.3v-3.9
			c-1,0.8-2.1,1.2-3.2,1.2l0,0c-1.1,0-2.1-0.4-3.1-1.2C11.9,15.4,11.9,19.3,11.9,19.3z"/>
	</g>
	<g>
		<path class="st0" d="M10,22.9H6.4c-0.1,0-0.2,0-0.3-0.1S6,22.6,6,22.5c0.1-3.3,1.3-5.9,3.7-8c0.1-0.1,0.3-0.1,0.4-0.1
			c0.1,0.1,0.2,0.2,0.2,0.4v7.7C10.4,22.7,10.2,22.9,10,22.9z M6.8,22.1h2.7v-6.4C7.9,17.4,7,19.5,6.8,22.1z"/>
	</g>
	<g>
		<path class="st0" d="M23.6,22.9H20c-0.2,0-0.4-0.2-0.4-0.4v-7.6c0-0.1,0.1-0.3,0.2-0.4c0.1-0.1,0.3-0.1,0.4,0
			c1.8,1.1,3.7,4.3,3.7,8c0,0.1,0,0.2-0.1,0.3C23.8,22.9,23.7,22.9,23.6,22.9z M20.4,22.1h2.7c-0.1-1.8-0.6-3.3-1.1-4.2
			s-1-1.7-1.6-2.2C20.4,15.7,20.4,22.1,20.4,22.1z"/>
	</g>
</g>
</svg>
