<svg version="1.1" id="Слой_1" xmlns="http://www.w3.org/2000/svg" xmlns:xlink="http://www.w3.org/1999/xlink" x="0px" y="0px"
	 viewBox="0 0 60 60" style="enable-background:new 0 0 60 60;" xml:space="preserve">
<style type="text/css">
	.st0{fill:#F0861A;}
</style>
<g>
	<path class="st0" d="M16.1,55c-2.6-0.9-3.6-2.7-3.5-5.4c0.1-6.5,0-13,0-19.4c0-3.6,0.8-4.7,4.4-5.7c0-2.1,0-4.2,0-6.3
		c0-6.9,4.9-12.4,12-13.1c6.3-0.6,12.3,3.5,13.8,10c0.2,1,0.3,2.1,0.3,3.2c0.1,2.1,0,4.1,0,6.2c0.3,0.1,0.6,0.1,0.8,0.2
		c2.2,0.5,3.5,2,3.5,4.3c0,7.2,0,14.4,0,21.5c0,2.4-1.4,3.7-3.5,4.4C34.7,55,25.4,55,16.1,55z M43.1,29c-8.8,0-17.4,0-26.1,0
		c0,7.2,0,14.4,0,21.6c8.7,0,17.4,0,26.1,0C43.1,43.4,43.1,36.2,43.1,29z M38.8,24.5c0-2.3,0.1-4.5,0-6.7c-0.2-4.4-3.5-7.9-7.7-8.4
		c-4.4-0.5-8.6,2.2-9.4,6.5c-0.6,2.8-0.4,5.7-0.5,8.6C27.1,24.5,32.9,24.5,38.8,24.5z"/>
	<path class="st0" d="M34.4,37.8c-0.1,1.1-0.5,2.2-1.5,3c-0.5,0.4-0.7,0.9-0.7,1.5c0,0.7,0,1.3,0,2c-0.1,1.1-1,1.9-2.1,2
		c-1.1,0-2.1-0.8-2.2-2c0-0.3,0-0.6,0-0.9c0.1-1.2-0.1-2.2-1.1-3.1c-1.4-1.3-1.4-3.5-0.4-5.1c1.1-1.6,3.1-2.4,5-1.8
		C33.1,34,34.4,35.8,34.4,37.8z"/>
</g>
</svg>
