<svg version="1.1" id="Слой_1" xmlns="http://www.w3.org/2000/svg" xmlns:xlink="http://www.w3.org/1999/xlink" x="0px" y="0px"
	 viewBox="0 0 60 60" style="enable-background:new 0 0 60 60;" xml:space="preserve">
<style type="text/css">
	.st0{fill:#F0861A;}
</style>
<g>
	<path class="st0" d="M38,5c3,0.7,4.4,2.7,5.1,5.6c1,4.5,2.2,9,3.3,13.6c-0.5,0-0.9,0-1.3,0c-7.5,0-15,0-22.5,0
		c-6,0-10.1,4.1-10.1,10.1c0,1,0,1.9,0,3c-1.8-0.8-2.9-2-3.4-3.7c-1.3-5.1-2.6-10.3-3.8-15.4c-0.7-3.1,1.3-6,4.5-6.8
		c8.6-2.1,17.3-4.2,25.9-6.3c0.2,0,0.3-0.1,0.5-0.2C36.8,5,37.4,5,38,5z M34.3,21.4c2.2-0.5,4.3-1,6.5-1.6c-0.5-2.2-1-4.4-1.6-6.6
		c-2.2,0.6-4.4,1.1-6.6,1.6C33.3,17.1,33.8,19.2,34.3,21.4z"/>
	<path class="st0" d="M35.6,55c-4.3,0-8.6,0-12.9,0c-4,0-6.3-2.3-6.3-6.3c0-4.8,0-9.6,0-14.3c0-3.9,2.4-6.3,6.3-6.3
		c8.7,0,17.3,0,26,0c3.9,0,6.2,2.3,6.2,6.3c0,4.8,0,9.6,0,14.4c0,3.9-2.3,6.2-6.2,6.2C44.3,55,39.9,55,35.6,55z M19.4,41.6
		c0,2.6,0,5,0,7.4c0,1.9,1.1,2.9,3,2.9c3.8,0,7.6,0,11.4,0c5,0,10.1,0,15.1,0c1.5,0,2.8-0.9,2.8-2.2c0.1-2.7,0-5.4,0-8.1
		C41,41.6,30.3,41.6,19.4,41.6z M51.8,35.8c0-0.4,0-0.7,0-0.9c0.3-2.6-1.1-3.8-3.7-3.7c-5,0.1-9.9,0-14.9,0c-3.6,0-7.3,0-10.9,0
		c-1.3,0-2.4,0.7-2.7,1.8c-0.2,0.9-0.1,1.8-0.2,2.8C30.3,35.8,41,35.8,51.8,35.8z"/>
</g>
</svg>
