<svg version="1.1" id="Слой_1" xmlns="http://www.w3.org/2000/svg" xmlns:xlink="http://www.w3.org/1999/xlink" x="0px" y="0px"
	 viewBox="0 0 60 60" style="enable-background:new 0 0 60 60;" xml:space="preserve">
<style type="text/css">
	.st0{fill:#F0861A;}
</style>
<g>
	<path class="st0" d="M5,32.3c0-6.2,0-12.5,0-18.7c0-0.1,0.1-0.2,0.1-0.3c0.4-1.6,1.5-2.8,3.1-3.3C8.4,9.9,8.7,9.8,9,9.7
		c8.3,0,16.5,0,24.8,0c0,0,0.1,0.1,0.1,0.1c2.6,0.7,3.9,2.3,3.9,5c0,0.9,0,1.8,0,2.8c0.2,0,0.4,0,0.6,0c1.9,0,3.8,0,5.7,0
		c1.6,0,2.9,0.7,3.9,2c2.1,3.1,4.2,6.3,6.3,9.5c0.5,0.8,0.8,1.6,0.8,2.5c0,3.2,0,6.3,0,9.5c0,2.2-1.6,4.1-3.7,4.5
		c-0.7,0.1-1.5,0.1-2.3,0.1c-0.3,0-0.5,0.1-0.6,0.4c-0.8,2.5-3.2,4.3-5.8,4.3c-2.7,0-5.1-1.6-6-4.2c-0.1-0.3-0.3-0.4-0.6-0.4
		c-2.4,0-4.8,0-7.3,0c-0.4,0-0.5,0.1-0.7,0.5c-1,2.9-3.9,4.7-6.9,4.1c-2.4-0.4-4-1.9-4.9-4.2c-0.1-0.3-0.2-0.4-0.5-0.4
		c-0.5,0-1,0-1.5,0c-2.2,0-4.1-1.6-4.5-3.7c-0.1-0.4-0.1-0.8-0.1-1.2c0-1.5,0-2.9,0-4.4c-0.1,0-0.2,0-0.2,0
		c-2.1-0.1-3.8-1.5-4.3-3.5C5.1,32.6,5,32.5,5,32.3z M21.4,33.1c3.8,0,7.7,0,11.5,0c1.2,0,1.8-0.6,1.8-1.8c0-5.6,0-11.1,0-16.7
		c0-1.2-0.6-1.8-1.8-1.8c-7.6,0-15.3,0-22.9,0c-1.2,0-1.8,0.6-1.8,1.8c0,5.5,0,11.1,0,16.6c0,1.2,0.6,1.8,1.9,1.8
		C13.8,33.1,17.6,33.1,21.4,33.1z M37.8,20.6c0,0.2,0,0.4,0,0.6c0,3.4,0,6.8,0,10.2c0,2.8-2,4.8-4.8,4.8c-6.5,0-13.1,0-19.6,0
		c-0.2,0-0.4,0-0.6,0c0,1.6,0,3.2,0,4.8c0,0.8,0.7,1.4,1.6,1.5c0.4,0,0.8,0,1.2,0c0.4,0,0.6-0.1,0.7-0.5c0.9-2.6,3.2-4.2,5.9-4.2
		c2.7,0,5,1.7,5.9,4.3c0.1,0.3,0.2,0.4,0.6,0.4c2.4,0,4.8,0,7.2,0c0.4,0,0.6-0.1,0.8-0.5c0.8-2.3,3-4,5.3-4.2c2.7-0.1,4.7,1,6.1,3.4
		c0.2,0.4,0.3,1,0.7,1.2c0.4,0.2,1,0.1,1.5,0c1,0,1.6-0.7,1.6-1.7c0-3.1,0-6.1,0-9.2c0-0.3-0.1-0.7-0.3-1c-2.1-3.1-4.2-6.3-6.2-9.4
		c-0.3-0.4-0.7-0.7-1.2-0.7C42.1,20.6,40,20.6,37.8,20.6z M25.3,44.1c0-1.7-1.4-3.1-3.1-3.1c-1.7,0-3.1,1.4-3.1,3.1
		c0,1.7,1.4,3.2,3.1,3.2C23.9,47.2,25.3,45.8,25.3,44.1z M42.5,47.2c1.7,0,3.1-1.4,3.1-3.1c0-1.7-1.4-3.1-3.1-3.1
		c-1.7,0-3.1,1.4-3.1,3.1C39.4,45.8,40.8,47.2,42.5,47.2z"/>
	<path class="st0" d="M39.4,28.4c0-1.5,0-3,0-4.5c0-1.1,0.6-1.7,1.7-1.7c0.5,0,0.9,0,1.4,0c0.6,0,1,0.2,1.4,0.7
		c1.6,2.3,3.1,4.7,4.7,7c0.4,0.5,0.4,3.4,0.1,4c-0.3,0.5-0.7,0.8-1.3,0.8c-2.1,0-4.2,0-6.3,0c-0.9,0-1.5-0.7-1.5-1.6
		C39.4,31.5,39.4,30,39.4,28.4z M47.2,33.1c0-0.7,0-1.5,0-2.2c0-0.1-0.1-0.3-0.2-0.4c-1.4-2.2-2.9-4.4-4.3-6.5
		c-0.1-0.1-0.2-0.3-0.4-0.3c-0.4,0-0.9,0-1.3,0c0,3.2,0,6.2,0,9.4C43,33.1,45.1,33.1,47.2,33.1z"/>
</g>
</svg>
