<?xml version="1.0" encoding="utf-8"?>
<!-- Generator: Adobe Illustrator 24.0.2, SVG Export Plug-In . SVG Version: 6.00 Build 0)  -->
<svg version="1.1" id="Слой_1" xmlns="http://www.w3.org/2000/svg" xmlns:xlink="http://www.w3.org/1999/xlink" x="0px" y="0px"
	 viewBox="0 0 30 30" style="enable-background:new 0 0 30 30;" xml:space="preserve">
<style type="text/css">
	.st0{clip-path:url(#SVGID_2_);}
	.st1{fill:#32B9AE;}
	.st2{clip-path:url(#SVGID_4_);}
</style>
<g>
	<g>
		<defs>
			<rect id="SVGID_1_" width="30" height="30"/>
		</defs>
		<clipPath id="SVGID_2_">
			<use xlink:href="#SVGID_1_"  style="overflow:visible;"/>
		</clipPath>
		<g class="st0">
			<path class="st1" d="M21.6,22.8l-0.2-1c-0.3-0.8-0.2-1.9-2.1-3.4c-0.5-0.4-1.1-0.9-1.6-1.3c-0.4-0.3-0.6-0.8-0.5-1.3
				c0.2-1.3,0.7-2.4,1.5-3.4l0.1-0.1c0.3-0.3,0.6-0.4,0.9-0.5c0.5-0.1,0.6,0.3,0.9,0.5c-0.3,0-0.5,0-0.7,0.1c-0.4,0-0.6,0.3-0.6,0.7
				s0.3,0.6,0.7,0.6c0.2,0,0.5,0,0.7,0c-0.2,0.3-0.4,0.6-0.5,0.9c-0.2,0.5-0.5,1-0.7,1.6c-0.1,0.2,0,0.3,0.1,0.4
				c0.7,0.5,1.3,1.1,2,1.6c0.5,0.4,0.5,0.9,0.7,1.4c0,0.1,0.5,1.5,0.5,1.6c0.1,0.4,0.2,0.7,0.3,1.1c0.1,0.4-0.1,0.9-0.5,1
				C22.2,23.5,21.8,23.3,21.6,22.8L21.6,22.8"/>
			<path class="st1" d="M22,12.4c-0.1-0.7-0.1-1.3-0.2-1.9c0-0.4,0.1-0.7,0.5-0.7c0.3,0,0.5,0.2,0.6,0.6c0.1,0.8,0.2,1.6,0.3,2.4
				c0,0.4-0.1,0.7-0.5,0.7c-0.8,0-1.6,0.1-2.4,0.1c-0.3,0-0.6-0.2-0.6-0.5s0.2-0.5,0.6-0.5C20.7,12.4,21.4,12.4,22,12.4z"/>
			<path class="st1" d="M18.7,5.6C19,5.8,19,5.9,18.8,6.2c-0.2,0.2-0.3,0.4-0.5,0.6c1.2,1,2.4,2,3.6,2.9c-0.1,0.1-0.1,0.3-0.2,0.4
				c-1.2-1-2.4-2-3.6-3c-0.2,0.2-0.4,0.4-0.6,0.7C17.3,8,17.2,8,17,7.8c-0.4-0.3,0,0-0.4-0.3c-0.3-0.2-0.3-0.2,0-0.5
				c0.5-0.6,0.9-1.1,1.4-1.7"/>
			<path class="st1" d="M20.2,19.6c0.2,0.6-0.1,1.1-0.3,1.4c-0.2,0.4-0.4,0.9-0.6,1.2c-0.1,0.3-0.3,0.8-0.7,1
				c-0.3,0.2-0.8,0.1-1-0.1c-0.2-0.3-0.3-0.6-0.1-1c0.2-0.5,0.5-0.9,0.7-1.3c0.4-0.7,0.5-0.9,0.5-1.4s-0.4-1.4-0.5-1.7
				C18.6,18,20,19,20.2,19.6z"/>
			<path class="st1" d="M32.6,15.7c-0.1,0-0.1-0.1-0.2-0.1c0.1-0.2,0.2-0.3,0.3-0.4c0.1-0.1,0.2-0.2,0.3-0.4
				c0.6,0.5,1.2,0.9,1.7,1.3c-0.2,0.3-0.4,0.5-0.6,0.8c-0.3-0.2-0.6-0.5-0.9-0.7c0,0.2,0,0.3,0,0.6c-0.7,0-1.5,0-2.2,0
				c0-0.3,0-0.6,0-1c0.5,0,1,0,1.5,0C32.6,15.8,32.6,15.7,32.6,15.7z"/>
			<path class="st1" d="M21.4,13.6c0.4,0,0.8,0,1.2-0.1c0.5,0,0.8-0.3,0.7-0.7c-0.1-0.4,0.1-0.7,0.4-0.9c-0.3-0.3-0.7-0.5-0.6-1.1
				c0.2,0.2,0.5,0.4,0.7,0.6c0.1,0.1,0.2,0.1,0.4,0.1c0.3-0.1,0.7,0.1,0.7,0.4c0,0.4,0.2,0.5,0.4,0.7c-0.1,0.1-0.2,0.2-0.3,0.4
				c-0.2-0.1-0.3-0.2-0.5-0.4c-0.4,0.5-0.8,0.9-1.2,1.4c-0.4,0.5-0.5,0.5-1.1,0.2C21.9,13.9,21.7,13.8,21.4,13.6z"/>
			<path class="st1" d="M25.8,23.9c-0.1,0-0.3-0.1-0.4-0.2c0-0.3,0-0.6,0-1c0.9,0,1.8,0,2.8,0c0,0.4,0,0.7,0,1.1
				c-0.4-0.1-0.6,0.1-0.8,0.3"/>
			<path class="st1" d="M34.6,18.2c-0.9,0-1.8,0-2.7,0c0-0.3,0-0.7,0-1c0.9,0,1.8,0,2.7,0C34.6,17.5,34.6,17.9,34.6,18.2z"/>
			<path class="st1" d="M34.6,20c0,0.3,0,0.7,0,1c-0.9,0-1.8,0-2.7,0c0-0.3,0-0.7,0-1C32.8,20,33.7,20,34.6,20z"/>
			<path class="st1" d="M31.4,20c0,0.4,0,0.7,0,1c-0.9,0-1.8,0-2.7,0c0-0.3,0-0.7,0-1C29.5,20,30.4,20,31.4,20z"/>
			<path class="st1" d="M32.7,21.4c0,0.3,0,0.7,0,1c-0.9,0-1.8,0-2.7,0c0-0.3,0-0.7,0-1C30.9,21.4,31.8,21.4,32.7,21.4z"/>
			<path class="st1" d="M26.8,22.4c0-0.3,0-0.7,0-1c0.9,0,1.8,0,2.7,0c0,0.3,0,0.7,0,1C28.6,22.4,27.7,22.4,26.8,22.4z"/>
			<path class="st1" d="M32.7,19.6c-0.9,0-1.8,0-2.7,0c0-0.3,0-0.7,0-1c0.9,0,1.8,0,2.7,0C32.7,18.9,32.7,19.2,32.7,19.6z"/>
			<path class="st1" d="M31.4,22.8c0,0.3,0,0.6,0,1c-0.9,0-1.8,0-2.7,0c0-0.3,0-0.6,0-1C29.5,22.8,30.4,22.8,31.4,22.8z"/>
			<path class="st1" d="M31.8,23.8c0-0.3,0-0.7,0-1c0.9,0,1.8,0,2.7,0c0,0.3,0,0.7,0,1C33.7,23.8,32.8,23.8,31.8,23.8z"/>
			<path class="st1" d="M20.2,10.4c0.5,0.1,0.9,0.2,1.4,0.3l0.1,0.1c0.1,0.5,0.1,0.9,0.1,1.4c-0.6,0.2-1.1,0.1-1.4-0.4
				C20.1,11.4,20,10.9,20.2,10.4z"/>
			<path class="st1" d="M31.1,15c0.5-0.6,0.9-1.1,1.4-1.7c0.3,0.2,0.5,0.4,0.8,0.6c-0.5,0.6-0.9,1.1-1.4,1.7
				C31.6,15.4,31.4,15.2,31.1,15z"/>
			<path class="st1" d="M28.9,17.5c0.1-0.3,0.3-0.6,0.4-0.9c0.7,0.3,1.3,0.6,2,0.9c-0.1,0.3-0.3,0.6-0.4,0.9
				C30.2,18,29.6,17.8,28.9,17.5z"/>
			<path class="st1" d="M33.2,12.8c0.3-0.1,0.6-0.1,1-0.2c0.2,0.7,0.3,1.4,0.5,2.1c-0.3,0.1-0.6,0.1-1,0.2
				C33.5,14.2,33.4,13.5,33.2,12.8z"/>
			<path class="st1" d="M34.6,22.4c-0.4,0-0.9,0-1.4,0c0-0.3,0-0.7,0-1c0.4,0,0.9,0,1.4,0C34.6,21.7,34.6,22,34.6,22.4z"/>
			<path class="st1" d="M33.2,19.6c0-0.3,0-0.7,0-1c0.5,0,0.9,0,1.4,0c0,0.3,0,0.7,0,1C34.1,19.6,33.7,19.6,33.2,19.6z"/>
			<path class="st1" d="M28.5,19.7c-0.1-0.3-0.2-0.6-0.2-1c0.4-0.1,0.8-0.2,1.2-0.3c0.1,0.3,0.2,0.6,0.3,1
				C29.3,19.5,28.9,19.6,28.5,19.7z"/>
			<path class="st1" d="M23.3,10.8c-0.1-0.1-0.2-0.3-0.2-0.4c-0.1-0.6-0.3-0.8-0.9-0.7c-0.1,0-0.1,0-0.2,0c-0.2-0.2-0.5-0.4-0.7-0.6
				c0.9-0.4,1.8,0.2,1.9,1.1c0,0.2,0,0.3,0.2,0.4C23.4,10.6,23.4,10.7,23.3,10.8L23.3,10.8z"/>
			<path class="st1" d="M26.9,20.1c0.4-0.1,0.8-0.2,1.2-0.3c0.1,0.3,0.2,0.6,0.2,0.9C27.7,21.1,27.2,20.8,26.9,20.1z"/>
			<path class="st1" d="M20.6,9.5c0.3,0.3,0.7,0.6,1.1,0.9c0,0,0,0.1-0.1,0.1c-0.5-0.1-1-0.2-1.5-0.4C20,10.1,20,10,20,9.9
				s0.1-0.1,0.1-0.2C20.3,9.7,20.5,9.6,20.6,9.5z"/>
			<path class="st1" d="M21.6,24.1v-0.3c0.1-0.1,0.3-0.2,0.5-0.1c0.1,0,0.2,0.2,0.3,0.3"/>
			<path class="st1" d="M28,19.1c-0.3,0.1-0.5,0.1-0.7,0.2l-0.1-0.2c0.1-0.2,0.2-0.3,0.5-0.3C27.8,18.8,27.8,18.9,28,19.1z"/>
			<path class="st1" d="M24.2,23.3C24.1,23.2,24,23.1,24,23c0-0.2,0.2-0.3,0.3-0.3c0.2,0,0.3,0,0.3,0.3
				C24.6,23.3,24.3,23.2,24.2,23.3z"/>
			<path class="st1" d="M25,22.2c0.1,0,0.1,0,0.2,0c0-0.2-0.1-0.5,0.2-0.6c0,0.2,0,0.4,0,0.7c-0.1,0-0.2,0.1-0.3,0.1
				c-0.1,0-0.2-0.1-0.3-0.1C24.9,22.4,25,22.3,25,22.2C25.1,22.2,25,22.2,25,22.2z"/>
			<path class="st1" d="M26.5,20.6c0.1,0.1,0.2,0.2,0.2,0.3c-0.3,0.4-0.4,0.4-0.5,0.1C26.3,20.9,26.4,20.8,26.5,20.6z"/>
			<path class="st1" d="M30.8,16.4c-0.1,0.1-0.2,0.2-0.3,0.2c0,0-0.2-0.1-0.2-0.2s0.1-0.2,0.2-0.2C30.5,16.3,30.6,16.3,30.8,16.4z"
				/>
			<path class="st1" d="M28.3,17.6c0.1,0.2,0.2,0.3,0.2,0.3c0,0.1-0.2,0.1-0.2,0.2c-0.1-0.1-0.2-0.1-0.2-0.2
				C28.1,17.8,28.2,17.8,28.3,17.6z"/>
			<path class="st1" d="M26.6,19.1c0.1,0.1,0.2,0.2,0.2,0.3c-0.1,0.1-0.2,0.1-0.3,0.2c0-0.1-0.1-0.3-0.1-0.4
				C26.5,19.2,26.6,19.1,26.6,19.1z"/>
			<path class="st1" d="M29,18.3c-0.1-0.1-0.2-0.2-0.2-0.3c0-0.1,0.1-0.2,0.2-0.2c0.1,0.1,0.2,0.1,0.3,0.2
				C29.2,18.1,29.1,18.2,29,18.3z"/>
			<path class="st1" d="M29,16c0.1,0.1,0.2,0.2,0.2,0.2c0,0.1-0.1,0.2-0.2,0.2c0,0-0.2-0.1-0.2-0.2s0.1-0.2,0.1-0.3
				C28.9,16,28.9,16,29,16z"/>
			<path class="st1" d="M26.1,22.1c0.1,0.1,0.2,0.2,0.3,0.3c-0.2,0-0.3,0.1-0.4,0.1c0-0.1,0-0.3-0.1-0.4
				C26,22.1,26.1,22.1,26.1,22.1z"/>
			<path class="st1" d="M21.3,23.6c-0.1,0-0.2,0.1-0.2,0.1c-0.1,0-0.1-0.1-0.2-0.1c0.1-0.1,0.1-0.2,0.2-0.2
				C21.1,23.4,21.2,23.5,21.3,23.6L21.3,23.6z"/>
			<path class="st1" d="M20.4,23.6c-0.2,0.1-0.2,0.1-0.3,0.1c-0.1,0-0.1-0.1-0.2-0.1c0.1-0.1,0.2-0.1,0.2-0.2
				C20.2,23.4,20.3,23.5,20.4,23.6z"/>
			<path class="st1" d="M24.8,23.4c0.1,0.1,0.1,0.2,0.2,0.2c-0.1,0.1-0.1,0.1-0.2,0.2l-0.2-0.1C24.6,23.5,24.7,23.5,24.8,23.4z"/>
			<path class="st1" d="M25.1,22.2c-0.1,0-0.2,0-0.3-0.1c0.1-0.2,0.2-0.3,0.3-0.4C25.2,22,25.1,22.1,25.1,22.2
				C25,22.2,25.1,22.2,25.1,22.2z"/>
			<path class="st1" d="M23.8,23.4c0.1,0.1,0.2,0.2,0.2,0.2c-0.1,0.1-0.1,0.1-0.2,0.2c0,0-0.2-0.1-0.1-0.1
				C23.7,23.5,23.7,23.5,23.8,23.4z"/>
		</g>
	</g>
</g>
<g>
	<defs>
		<rect id="SVGID_3_" width="30" height="30"/>
	</defs>
	<clipPath id="SVGID_4_">
		<use xlink:href="#SVGID_3_"  style="overflow:visible;"/>
	</clipPath>
	<g class="st2">
		<path class="st1" d="M12.5,13.2c0.6-1.2,1.3-2.3,1.9-3.5c-2-1.1-3.9-2.1-5.9-3.2C7.9,7.7,7.2,8.8,6.6,10
			C8.6,11.1,10.5,12.2,12.5,13.2z"/>
		<path class="st1" d="M3.8,20.4c0.3,0,0.5-0.1,0.7-0.3c0.6-0.7,1.1-1.4,1.7-2.1c0.2-0.2,0.3-0.3,0.6-0.3c0.6,0,1.1-0.1,1.7-0.1
			c0.5,0,1.1-0.1,1.6-0.2c0.4-0.1,0.6-0.3,0.6-0.7c0-0.4-0.1-0.8-0.2-1.2c0-0.1,0-0.1,0-0.2c0-0.2-0.2-0.4-0.4-0.5
			C9.5,14.5,9,14.3,8.4,14c-0.1,0-0.1,0-0.2,0C8,14.1,7.9,14.3,8,14.6c0.1,0.2,0.1,0.3,0.2,0.5c0.1,0.1,0.1,0.3,0.2,0.4
			c0.1,0.2,0,0.3-0.2,0.3c-0.4,0-0.8,0-1.2,0.1c-0.3,0-0.7,0.1-1,0.1c-0.2,0-0.3,0.1-0.4,0.2C5.4,16.5,5.2,16.7,5,17
			c-0.6,0.7-1.1,1.4-1.7,2.2c-0.3,0.3-0.2,0.9,0,1.1C3.4,20.3,3.6,20.4,3.8,20.4z"/>
		<path class="st1" d="M6.3,11.9c0,0.3,0.1,0.6,0.4,0.7c1.2,0.6,2.3,1.3,3.5,1.9c0.5,0.3,1,0.5,1.4,0.8c0.5,0.2,0.9,0.1,1.1-0.4
			c0.1-0.1,0.1-0.3,0.2-0.4c0.1-0.4-0.1-0.7-0.4-0.9c-0.9-0.5-1.9-1-2.8-1.5C9,11.7,8.3,11.4,7.6,11c-0.5-0.3-1-0.1-1.1,0.4
			C6.4,11.5,6.3,11.7,6.3,11.9z"/>
		<path class="st1" d="M11.9,23.3c0.3,0,0.7-0.3,0.8-0.7c0.1-0.2,0-0.4,0-0.6c-0.5-1.1-0.9-2.2-1.4-3.3c-0.1-0.2-0.2-0.4-0.3-0.6
			c-0.1-0.3-0.4-0.5-0.7-0.4c-0.3,0-0.6,0.1-0.8,0.2s-0.3,0.2-0.2,0.4c0.1,0.2,0.2,0.5,0.3,0.7c0.5,1.2,1,2.4,1.5,3.5
			c0.1,0.3,0.3,0.5,0.6,0.7C11.7,23.3,11.8,23.3,11.9,23.3z"/>
		<path class="st1" d="M6.3,23.1c-0.1,0-0.1,0-0.2,0c-2,0-4,0-6,0c-0.9,0-1.8,0-2.7,0h-0.1c-0.1,0-0.2,0.1-0.2,0.2s0.1,0.2,0.2,0.2
			h0.1c3,0,5.9,0,8.9,0c0.2,0,0.2,0,0.2-0.2c0-0.8,0-1.7,0-2.5c0-0.2,0-0.3-0.2-0.3c-1.2,0-2.3,0-3.5,0c0,0-0.1,0-0.2,0
			c0-0.1,0-0.1,0-0.1c0-0.7,0-1.4,0-2.1c0-0.2,0-0.2-0.2-0.2c-1.2,0-2.3,0-3.5,0h-0.1c0-0.2,0-0.3,0-0.4c0-0.6,0-1.2,0-1.8
			c0-0.2-0.1-0.2-0.2-0.2c-0.5,0-0.9,0-1.4,0h-0.1c-0.1,0-0.2,0.1-0.2,0.2s0.1,0.2,0.2,0.2c0.1,0,0.2,0,0.3,0c0.3,0,0.7,0,1.1,0
			c0,0.1,0,0.1,0,0.1c0,0.7,0,1.4,0,2c0,0.2,0,0.3,0.3,0.3c1.2,0,2.3,0,3.5,0h0.1c0,0.1,0,0.1,0,0.1c0,0.7,0,1.4,0,2.1
			c0,0.2,0,0.2,0.2,0.2c1.2,0,2.3,0,3.5,0c0.2,0,0.2,0,0.2,0.2C6.3,21.8,6.3,22.4,6.3,23.1C6.3,23,6.3,23.1,6.3,23.1z"/>
		<path class="st1" d="M5.1,12.1c0.7,0,1.2-0.5,1.2-1.2S5.8,9.7,5.1,9.7c-0.6,0-1.2,0.5-1.2,1.2C3.9,11.5,4.5,12.1,5.1,12.1z"/>
	</g>
</g>
</svg>
