<?xml version="1.0" encoding="utf-8"?>
<!-- Generator: Adobe Illustrator 24.0.2, SVG Export Plug-In . SVG Version: 6.00 Build 0)  -->
<svg version="1.1" id="Layer_1" xmlns="http://www.w3.org/2000/svg" xmlns:xlink="http://www.w3.org/1999/xlink" x="0px" y="0px"
	 viewBox="0 0 286.3 209.76" style="enable-background:new 0 0 286.3 209.76;" xml:space="preserve">
<style type="text/css">
	.st0{clip-path:url(#SVGID_2_);fill:url(#SVGID_3_);}
	.st1{fill:#ED6E3F;}
	.st2{fill:#020204;}
	.st3{fill:none;stroke:#020204;stroke-miterlimit:10;}
	.st4{fill:#FFFFFF;}
</style>
<g>
	<defs>
		<path id="SVGID_1_" d="M247.61,174.81c5.06,0,9.17-4.12,9.17-9.17v-33.07c0-5.06-4.11-9.17-9.17-9.17H54.04
			c-5.06,0-9.17,4.12-9.17,9.17v33.07c0,5.06,4.11,9.17,9.17,9.17H247.61z"/>
	</defs>
	<clipPath id="SVGID_2_">
		<use xlink:href="#SVGID_1_"  style="overflow:visible;"/>
	</clipPath>
	
		<linearGradient id="SVGID_3_" gradientUnits="userSpaceOnUse" x1="30.5663" y1="150.5478" x2="206.5773" y2="150.5478" gradientTransform="matrix(-1 0 0 -1 292.9288 298.1972)">
		<stop  offset="0" style="stop-color:#E9463C"/>
		<stop  offset="0.1788" style="stop-color:#F4AA41"/>
		<stop  offset="0.3492" style="stop-color:#F0E85A"/>
		<stop  offset="0.5335" style="stop-color:#00A86E"/>
		<stop  offset="0.7123" style="stop-color:#8DD0ED"/>
		<stop  offset="0.8687" style="stop-color:#404695"/>
		<stop  offset="1" style="stop-color:#80559E"/>
	</linearGradient>
	<rect x="86.35" y="97.19" class="st0" width="176.01" height="100.92"/>
</g>
<path class="st1" d="M130.23,49.53l0.4-2.16c0.44-2.54,0.04-3.45,0.04-3.45s0.61-0.35,2.09-0.35c3.1,0,3.45,1.17,2.96,3.97l-0.35,2
	h3.97c0,0,0.28,0.33,0.28,0.85c0,0.68-0.47,1.17-1.36,1.17H135l-1.86,10.43c-0.49,2.73,0.33,4.13,1.88,4.13
	c1.6,0,2.25-1.13,2.25-1.13c0.45,0,0.73,0.44,0.64,1.03c-0.21,1.76-2.37,3.57-5.14,3.57c-2.65,0-4.86-2-4.86-5.21
	c0-0.92,0.07-2.32,0.44-4.37l1.48-8.48h-2.58c0,0-0.28-0.33-0.28-0.85c0-0.68,0.49-1.17,1.36-1.17h1.9V49.53z"/>
<path class="st1" d="M144.28,43.52c0.51,0,1.03,0.12,1.53,0.37c0.66,0.35,1.15,0.87,1.48,1.55c0.23,0.49,0.35,1.03,0.35,1.6
	c0,1.03-0.4,1.88-1.17,2.54c-0.61,0.49-1.29,0.75-2.07,0.75c-0.84,0-1.57-0.28-2.18-0.85c-0.71-0.66-1.06-1.53-1.06-2.63
	c0-1.08,0.33-1.9,0.96-2.51C142.7,43.81,143.41,43.52,144.28,43.52 M144.13,45.24c-0.35,0-0.54,0.31-0.54,0.92
	c0,0.8,0.17,1.5,0.44,2.14c0.12,0.23,0.28,0.37,0.47,0.37c0.35,0,0.52-0.31,0.52-0.94c0-0.35-0.05-0.7-0.12-1.1
	c-0.07-0.4-0.16-0.71-0.28-0.96C144.53,45.4,144.37,45.26,144.13,45.24"/>
<path class="st1" d="M141.27,59.94c0.75-1.53,2-2.84,3.76-3.31c2.32-0.61,2.79,0.47,5.33,2.32c1.46,1.06,2.07,1.74,4.11,1.76
	c3.36,0.02,6.06-1.5,7.52-4.56c0.26-0.54-0.54-1.01-0.8-0.47c-2.35,4.88-6.67,4.7-10.69,1.78c-1.29-0.94-1.74-1.85-3.59-1.97
	c-2.77-0.19-5.24,1.57-6.44,3.97C140.19,60.01,140.99,60.48,141.27,59.94"/>
<path class="st1" d="M141.27,65.15c0.75-1.53,2-2.84,3.76-3.31c2.32-0.61,2.79,0.47,5.33,2.32c1.46,1.06,2.07,1.74,4.11,1.76
	c3.36,0.02,6.06-1.5,7.52-4.56c0.26-0.54-0.54-1.01-0.8-0.47c-2.35,4.88-6.67,4.7-10.69,1.78c-1.29-0.94-1.74-1.85-3.59-1.97
	c-2.77-0.19-5.24,1.57-6.44,3.97C140.19,65.22,140.99,65.69,141.27,65.15"/>
<path class="st1" d="M129.22,38.92c-0.19,0.21-0.66,0.61-0.66,0.61c-3.71,2.39-7.23,4.91-10.9,7.14c-1.17,0.73-2.56,1.24-3.92,1.55
	c-0.75,0.16-2.04-0.05-2.39-0.56c-0.71-1.03,0.45-1.57,1.2-2.09c8.59-5.9,15.92-13.05,21.32-22.03c0.96-1.6,1.39-3.64,1.62-5.54
	c0.35-2.75,1.62-3.64,4.02-2.18c1.06,0.63,1.99,1.53,2.82,2.46c1.03,1.17,0.92,1.88-0.19,3.76c7.89,7.68,16.18,14.77,27,17.96
	c0.82,0.24,1.69,0.52,2.42,0.99c0.44,0.26,0.89,0.89,0.89,1.36c0,0.47-0.49,1.22-0.92,1.34c-4.02,0.99-8.08,2.18-12.21,1.39
	c-1.6-0.31-3.24-1.6-4.42-2.86c-4.46-4.79-8.73-9.74-13.08-14.6c-0.61-0.68-1.36-1.25-2.02-1.81
	C136.57,29.9,132.72,34.48,129.22,38.92"/>
<polygon class="st2" points="30.86,95.16 29.31,95.16 29.31,92.36 30.86,92.36 30.86,87.95 34.01,87.95 34.01,92.36 35.91,92.36 
	35.91,95.16 34.01,95.16 34.01,105.49 30.86,105.49 "/>
<path class="st2" d="M40.3,100.33c0.4,1.62,1.76,2.61,3.43,2.61c1.01,0,2.16-0.28,2.93-1.22h3.54c-1.76,4.18-5.75,4.23-6.36,4.23
	c-4.72,0-6.95-3.87-6.95-6.9c0-3.01,2.25-7.09,7-7.09c3.99,0,6.74,3.07,6.74,7c0,0.47,0,0.92-0.07,1.41H40.3V100.33z M47.37,97.53
	c-0.44-1.67-1.85-2.61-3.45-2.61c-1.74,0-3.12,1.03-3.64,2.61H47.37z"/>
<path class="st2" d="M52.65,92.36h2.89v1.71h0.05c1.1-1.83,3.19-2.14,4.23-2.14c3.57,0,6.57,2.75,6.57,7c0,3.59-2.42,7-6.57,7
	c-1.06,0-2.73-0.28-3.95-1.85h-0.04v5.8h-3.15V92.36H52.65z M55.61,98.92c0,2.51,1.62,3.99,3.73,3.99c2.25,0,3.88-1.71,3.88-4.02
	c0-1.76-1.1-3.97-3.76-3.97C57.16,94.92,55.61,96.62,55.61,98.92"/>
<rect x="68.26" y="87.95" class="st2" width="3.15" height="17.52"/>
<path class="st2" d="M87.21,98.94c0,3.8-2.96,6.97-6.97,6.97c-3.99,0-6.97-3.15-6.97-6.97c0-3.83,2.93-7.02,6.97-7.02
	C84.28,91.92,87.21,95.11,87.21,98.94 M76.44,98.94c0,2.14,1.5,3.97,3.8,3.97c2.32,0,3.81-1.86,3.81-3.97
	c0-2.11-1.46-4.02-3.81-4.02C77.92,94.92,76.44,96.8,76.44,98.94"/>
<rect x="89.54" y="96.54" class="st2" width="6.58" height="2.79"/>
<polygon class="st2" points="97.8,92.36 101.3,92.36 104.33,100.98 107.36,92.36 110.86,92.36 105.55,105.49 103.09,105.49 "/>
<path class="st2" d="M124.93,98.94c0,3.8-2.96,6.97-6.97,6.97c-3.99,0-6.97-3.15-6.97-6.97c0-3.83,2.93-7.02,6.97-7.02
	C121.99,91.92,124.93,95.11,124.93,98.94 M114.15,98.94c0,2.14,1.5,3.97,3.8,3.97c2.32,0,3.8-1.86,3.8-3.97
	c0-2.11-1.48-4.02-3.8-4.02C115.63,94.92,114.15,96.8,114.15,98.94"/>
<path class="st2" d="M139.91,105.47h-2.89v-1.79h-0.05c-0.82,1.15-2.21,2.21-4.32,2.21c-3.5,0-6.48-2.93-6.48-6.95
	c0-4.13,2.98-7.05,6.58-7.05c2.42,0,3.57,1.32,3.94,1.79h0.05v-5.75h3.14v17.54H139.91z M129.32,98.92c0,2.28,1.55,3.99,3.78,3.99
	c2.23,0,3.83-1.69,3.83-3.99c0-2.32-1.64-3.99-3.83-3.99C130.99,94.92,129.32,96.52,129.32,98.92"/>
<path class="st2" d="M155.55,105.47h-2.89v-1.78h-0.05c-1.53,2.09-3.69,2.21-4.39,2.21c-3.33,0-6.41-2.63-6.41-6.88
	c0-4.13,2.89-7.12,6.5-7.12c1.88,0,3.34,0.78,4.3,2.28h0.05v-1.85h2.89V105.47z M144.96,99.03c0,2.23,1.57,3.88,3.85,3.88
	c2.25,0,3.76-1.64,3.76-4.02c0-2.28-1.5-3.97-3.76-3.97C146.53,94.93,144.96,96.66,144.96,99.03"/>
<rect x="158.55" y="102.32" class="st2" width="3.15" height="3.15"/>
<path class="st2" d="M177.9,101.22c-0.96,2.77-3.22,4.7-6.48,4.7c-4.93,0-7.26-3.81-7.26-7.09c0-3.05,2.23-6.9,7.14-6.9
	c3.31,0,5.73,1.95,6.6,4.79h-3.54c-0.61-1.2-1.74-1.81-3.1-1.81c-2.51,0-3.92,1.85-3.92,3.95c0,2.25,1.53,4.04,3.92,4.04
	c0.54,0,2.23-0.09,3.1-1.71h3.54V101.22z"/>
<path class="st2" d="M193.16,98.94c0,3.8-2.96,6.97-6.97,6.97s-6.97-3.15-6.97-6.97c0-3.83,2.93-7.02,6.97-7.02
	C190.23,91.92,193.16,95.11,193.16,98.94 M182.39,98.94c0,2.14,1.5,3.97,3.8,3.97c2.3,0,3.81-1.86,3.81-3.97
	c0-2.11-1.48-4.02-3.81-4.02S182.39,96.8,182.39,98.94"/>
<path class="st2" d="M195.04,92.36h2.89v1.2h0.05c0.91-1.29,2.42-1.64,3.41-1.64c1.31,0,2.93,0.56,3.82,2.04
	c0.75-1.03,2.07-2.04,4.2-2.04c3.19,0,5.35,2.18,5.35,5.87v7.68h-3.15v-6.97c0-1.17-0.14-3.59-2.58-3.59
	c-2.42,0-2.56,2.42-2.56,3.59v6.97h-3.15v-6.97c0-1.17-0.14-3.59-2.58-3.59c-2.42,0-2.56,2.42-2.56,3.59v6.97h-3.15V92.36z"/>
<rect x="217.77" y="102.32" class="st2" width="3.15" height="3.15"/>
<path class="st2" d="M235.59,105.47h-2.89v-1.2h-0.05c-1.12,1.43-2.6,1.64-3.4,1.64c-4.96,0-5.31-4.39-5.31-6.44v-7.11h3.15v6.67
	c0,1.48,0.14,3.87,2.68,3.87c2.54,0,2.68-2.42,2.68-3.87v-6.67h3.15V105.47z"/>
<path class="st2" d="M251.23,105.47h-2.89v-1.78h-0.05c-1.53,2.09-3.69,2.21-4.39,2.21c-3.33,0-6.41-2.63-6.41-6.88
	c0-4.13,2.89-7.12,6.51-7.12c1.88,0,3.34,0.78,4.3,2.28h0.05v-1.85h2.89V105.47z M240.64,99.03c0,2.23,1.57,3.88,3.85,3.88
	c2.25,0,3.76-1.64,3.76-4.02c0-2.28-1.5-3.97-3.76-3.97S240.64,96.66,240.64,99.03"/>
<g>
	<path class="st2" d="M42.43,197.75h0.99v3.57h-1.27v-2.42h-8.15v2.42h-1.27v-3.57h0.99l3.69-8.29h1.38L42.43,197.75z M41.07,197.75
		l-2.98-6.86l-2.99,6.86H41.07z"/>
	<path class="st2" d="M54.2,194.18c0,2.82-2.16,4.93-4.93,4.93c-2.77,0-4.93-2.11-4.93-4.93s2.14-4.95,4.93-4.95
		C52.06,189.22,54.2,191.36,54.2,194.18 M45.6,194.18c0,2.14,1.53,3.78,3.66,3.78c2.14,0,3.66-1.64,3.66-3.78
		c0-2.14-1.53-3.8-3.66-3.8C47.13,190.37,45.6,192.04,45.6,194.18"/>
	<path class="st2" d="M65.26,196.13c-0.63,1.41-2,2.98-4.6,2.98c-3.21,0-5.05-2.49-5.05-4.95c0-2.25,1.74-4.93,5.05-4.93
		c2.19,0,3.88,1.22,4.6,3.1h-1.41c-0.94-1.86-2.75-1.93-3.17-1.93c-2.18,0-3.76,1.67-3.76,3.76c0,2.16,1.71,3.8,3.76,3.8
		c1.29,0,2.51-0.63,3.17-1.83H65.26z"/>
	<polygon class="st2" points="72.44,189.46 72.44,190.61 70,190.61 70,198.9 68.73,198.9 68.73,190.61 66.29,190.61 66.29,189.46 	
		"/>
	<polygon class="st2" points="81.77,189.46 76.32,202.21 74.96,202.21 76.53,198.45 72.82,189.43 74.35,189.43 77.31,196.79 
		80.41,189.43 81.77,189.43 	"/>
	<polygon class="st2" points="90.83,189.46 90.83,198.9 89.56,198.9 89.56,190.61 84.28,190.61 84.28,198.9 83.01,198.9 
		83.01,189.46 	"/>
	<polygon class="st2" points="94.28,189.46 94.28,193.47 99.57,193.47 99.57,189.46 100.83,189.46 100.83,198.9 99.57,198.9 
		99.57,194.62 94.28,194.62 94.28,198.9 93.01,198.9 93.01,189.46 	"/>
	<path class="st2" d="M112.64,198.9h-1.2v-1.76h-0.05c-0.54,0.82-1.62,2-3.69,2c-2.84,0-5.05-2.07-5.05-5
		c0-2.25,1.64-4.88,5.03-4.88c0.82,0,2.56,0.12,3.71,1.85h0.05v-1.64h1.2V198.9z M103.93,194.22c0,2.16,1.76,3.76,3.78,3.76
		c2.07,0,3.71-1.67,3.71-3.73c0-2.14-1.6-3.85-3.76-3.85C105.62,190.37,103.93,192.02,103.93,194.22"/>
	<polygon class="st2" points="120.11,189.46 120.11,193.47 125.4,193.47 125.4,189.46 126.66,189.46 126.66,198.9 125.4,198.9 
		125.4,194.62 120.11,194.62 120.11,198.9 118.84,198.9 118.84,189.46 	"/>
	<path class="st2" d="M138.47,198.9h-1.2v-1.76h-0.02c-0.54,0.82-1.62,2-3.69,2c-2.84,0-5.05-2.07-5.05-5
		c0-2.25,1.64-4.88,5.02-4.88c0.82,0,2.58,0.12,3.71,1.85h0.02v-1.64h1.2V198.9z M129.76,194.22c0,2.16,1.76,3.76,3.78,3.76
		c2.07,0,3.71-1.67,3.71-3.73c0-2.14-1.6-3.85-3.76-3.85C131.45,190.37,129.76,192.02,129.76,194.22"/>
	<path class="st2" d="M141.93,189.46v7.63l5.64-7.63h1.27v9.44h-1.27v-7.63l-5.64,7.63h-1.29v-9.44H141.93z M143.2,186.12
		c0.14,0.82,0.82,1.2,1.53,1.2c0.7,0,1.39-0.37,1.53-1.2h1.08c-0.17,0.96-0.89,2.18-2.63,2.18s-2.44-1.2-2.63-2.18H143.2z"/>
	<path class="st2" d="M154.39,189.46c2.21,0,2.79,1.39,2.79,2.51c0,0.89-0.49,1.62-1.27,1.95c0.96,0.26,1.6,1.15,1.6,2.25
		c0,1.46-1.03,2.72-3.03,2.72h-3.5v-9.44H154.39z M152.28,193.48h2.02c1.01,0,1.6-0.59,1.6-1.5c0-1.39-1.32-1.36-1.6-1.36h-2.02
		V193.48z M152.28,197.75h2.07c1.5,0,1.9-0.89,1.9-1.55c0-0.4-0.12-1.55-1.9-1.55h-2.07V197.75z"/>
	<polygon class="st2" points="160.57,189.46 160.57,197.09 166.21,189.46 167.47,189.46 167.47,198.9 166.21,198.9 166.21,191.27 
		160.57,198.9 159.3,198.9 159.3,189.46 	"/>
	<polygon class="st2" points="170.93,189.46 170.93,197.75 174.99,197.75 174.99,189.46 176.26,189.46 176.26,197.75 180.32,197.75 
		180.32,189.46 181.59,189.46 181.59,197.75 183.16,197.75 183.16,201.32 181.89,201.32 181.89,198.9 169.61,198.9 169.61,189.46 	
		"/>
	<path class="st2" d="M194.13,198.9h-1.22v-1.76h-0.03c-0.54,0.82-1.62,2-3.68,2c-2.84,0-5.05-2.07-5.05-5
		c0-2.25,1.64-4.88,5.02-4.88c0.82,0,2.59,0.12,3.71,1.85h0.03v-1.64h1.22V198.9z M185.42,194.22c0,2.16,1.76,3.76,3.78,3.76
		c2.07,0,3.71-1.67,3.71-3.73c0-2.14-1.6-3.85-3.76-3.85C187.11,190.37,185.42,192.02,185.42,194.22"/>
	<path class="st2" d="M207.11,198.9h-1.27v-8.29h-2.54c-0.28,0-2.21,0.02-2.21,2.02c0,1.06,0.61,1.9,2.21,1.9h1.29l-3.15,4.37h-1.46
		l2.59-3.36c-1.62-0.12-2.75-1.34-2.75-2.96c0-1.6,1.22-3.1,3.5-3.1h3.81v9.41H207.11z"/>
	<path class="st2" d="M209.3,189.46h1.27v9.44h-1.27V189.46z M211.31,194.11l3.69-4.65h1.5l-3.62,4.56l3.87,4.88h-1.64
		L211.31,194.11z"/>
	<path class="st2" d="M217.94,186.12h1.27v2.18h-1.27V186.12z M217.94,189.46h1.27v9.44h-1.27V189.46z"/>
	<path class="st2" d="M230.66,196.13c-0.63,1.41-2,2.98-4.6,2.98c-3.22,0-5.05-2.49-5.05-4.95c0-2.25,1.74-4.93,5.05-4.93
		c2.18,0,3.88,1.22,4.6,3.1h-1.43c-0.94-1.86-2.75-1.93-3.17-1.93c-2.18,0-3.76,1.67-3.76,3.76c0,2.16,1.71,3.8,3.76,3.8
		c1.29,0,2.51-0.63,3.17-1.83H230.66z"/>
	<polygon class="st2" points="237.83,189.46 237.83,190.61 235.38,190.61 235.38,198.9 234.12,198.9 234.12,190.61 231.67,190.61 
		231.67,189.46 	"/>
	<path class="st2" d="M240.41,189.46v3.62h2.54c2.56,0,3.22,1.83,3.22,2.91s-0.66,2.91-3.22,2.91h-3.83v-9.44H240.41z
		 M240.41,197.75h2.51c1.34,0,1.95-0.85,1.95-1.76c0-0.92-0.61-1.76-1.95-1.76h-2.51V197.75z"/>
</g>
<path class="st1" d="M139.13,74.75l7.72-0.63c1.88-0.19,3.71-0.33,5.52-0.54c4.98-0.56,9.91-1.53,14.96-1.41
	c1.76,0.05,3.48,0.24,5.12,0.89c2.56,1.03,4.18,3.59,3.85,6.03c-21.58-1.81-42.95-0.4-63.87,4.18c-0.85-0.49-1.55-0.92-2.28-1.29
	c-0.38-0.21-0.82-0.31-1.2-0.49c-0.94-0.47-1.22-1.25-1.06-2.28C118.28,77.76,128.68,76.26,139.13,74.75"/>
<path class="st3" d="M36.57,140h3.3v18.58h-3.3c-3,0-5.43-2.43-5.43-5.43v-7.73C31.14,142.43,33.57,140,36.57,140z"/>
<path class="st2" d="M68.2,146.6c3.88,0,7.38,0,11.36,0c-6.17,6.83-12.07,13.36-17.97,19.89c-0.12-0.05-0.25-0.1-0.37-0.15
	c1.58-4.66,3.17-9.33,4.82-14.17c-3.72,0-7.27,0-11.4,0c6.27-6.94,12.2-13.51,18.13-20.08c0.11,0.05,0.22,0.1,0.32,0.16
	C71.49,136.93,69.9,141.62,68.2,146.6z"/>
<rect x="219.86" y="118.39" transform="matrix(-1 -1.224647e-16 1.224647e-16 -1 445.7883 295.2989)" class="st4" width="6.06" height="58.52"/>
<rect x="185.35" y="118.39" transform="matrix(-1 -1.224647e-16 1.224647e-16 -1 376.7508 295.2989)" class="st4" width="6.06" height="58.52"/>
<rect x="150.83" y="118.39" transform="matrix(-1 -1.224647e-16 1.224647e-16 -1 307.7133 295.2989)" class="st4" width="6.06" height="58.52"/>
<rect x="116.31" y="118.39" transform="matrix(-1 -1.224647e-16 1.224647e-16 -1 238.6758 295.2989)" class="st4" width="6.06" height="58.52"/>
<rect x="81.79" y="119.02" transform="matrix(-1 -1.224647e-16 1.224647e-16 -1 169.6382 295.2987)" class="st4" width="6.06" height="57.27"/>
<path class="st3" d="M54.04,118.39h193.58c7.83,0,14.17,6.35,14.17,14.17v33.07c0,7.83-6.35,14.17-14.17,14.17H54.04
	c-7.83,0-14.17-6.35-14.17-14.17v-33.07C39.87,124.73,46.21,118.39,54.04,118.39z"/>
</svg>
