<?xml version="1.0" encoding="utf-8"?>
<!-- Generator: Adobe Illustrator 24.0.2, SVG Export Plug-In . SVG Version: 6.00 Build 0)  -->
<svg version="1.1" id="Слой_1" xmlns="http://www.w3.org/2000/svg" xmlns:xlink="http://www.w3.org/1999/xlink" x="0px" y="0px"
	 viewBox="0 0 30 30" style="enable-background:new 0 0 30 30;" xml:space="preserve">
<style type="text/css">
	.st0{fill:#32B9AE;}
</style>
<g>
	<path class="st0" d="M25.2,17c0.5-0.2,1.1-0.4,1.7-0.6c0.4-0.1,0.6,0.1,0.6,0.6c-0.1,1.2-0.8,2-1.9,2.4c-0.2,0.1-0.4,0.1-0.6,0.2
		c0,0.5,0,0.9,0,1.5c0.6,0,1.3,0,1.9,0c0.2,0,0.5,0.2,0.5,0.3c0.1,0.4-0.3,0.4-0.6,0.4c-2.5,0-5.1,0-7.6,0c-0.3,0-0.6,0-1,0
		c0,0.4,0,0.8,0,1.3c1,0.3,1.1,0.4,1.1,1.5c0,0.7,0,1.4,0,2.1c0,0.4-0.2,0.6-0.6,0.6c-2.4,0-4.8,0-7.3,0c-0.1,0-0.4,0-0.4-0.1
		c-0.2-0.6-0.7-0.4-1.1-0.4c-2.3,0-4.6,0-6.9,0c-0.7,0-0.8-0.1-0.8-0.7c0-0.4,0-0.7,0-1.1c0-0.5,0.2-0.7,0.7-0.7c2.4,0,4.8,0,7.2,0
		c0.2,0,0.4,0,0.6,0c0-0.8,0.3-1.2,1.2-1.2c0-0.5,0-0.9,0-1.3c-0.2,0-0.4,0-0.6,0c-2.6,0-5.1,0-7.7,0c-0.1,0-0.3,0-0.4,0
		c-0.2-0.1-0.3-0.2-0.5-0.3c0.2-0.1,0.3-0.4,0.5-0.4c0.6,0,1.3,0,2,0c0-0.5,0-1,0-1.4c-1.3-0.3-2.2-1.1-2.4-2.5
		c-0.1-0.6,0.1-0.8,0.7-0.7c0.6,0.1,1.1,0.4,1.6,0.6c-0.6-0.9-0.8-2-0.2-3.1c0.2-0.3,0.5-0.7,0.7-0.7s0.6,0.4,0.7,0.7
		c0.6,1.1,0.5,2.2-0.2,3.1c0.5-0.2,1.1-0.5,1.6-0.6c0.6-0.1,0.8,0.1,0.7,0.7c-0.2,1.2-0.8,2-1.9,2.3c-0.5,0.2-0.6,0.4-0.6,0.8
		c0,0.2,0,0.5,0,0.7c1.8,0,3.6,0,5.5,0c0-0.5,0-0.9,0-1.4c-1.2-0.3-2-0.9-2.4-2.1c-0.1-0.3-0.1-0.8,0.1-1c0.2-0.2,0.6-0.1,1,0
		s0.8,0.3,1.2,0.5c-0.5-0.8-0.8-1.7-0.4-2.6c0.2-0.5,0.6-0.9,0.9-1.3c0.1-0.1,0.1-0.2,0.1-0.3c0-0.7,0-1.3,0-2
		c-1-0.5-1.4-0.9-1.2-1.7C11,7.8,12.1,8,13,8c0-0.8,0-1.6,0-2.3l-0.1-0.1c-0.9-0.1-1.1-0.3-0.8-1.2S13.1,3,14,3c0.6-0.1,1.2,0,1.7,0
		c1,0.1,1.8,0.9,2,1.8c0.1,0.6,0,0.7-0.6,0.8c-0.1,0-0.2,0-0.3,0c0,0.8,0,1.5,0,2.4c0.3,0,0.6,0,0.8,0c0.8,0,1.4,0.4,1.5,1.1
		s-0.2,1.2-1,1.5c-0.1,0-0.1,0.1-0.2,0.1c0,0.7,0,1.3,0,2c0,0.1,0,0.3,0.1,0.3c1.2,1,1.4,2.5,0.5,3.8c0,0,0,0.1,0,0
		c0.5-0.2,1.1-0.4,1.7-0.5c0.4-0.1,0.6,0.2,0.6,0.6c0,1.1-0.8,2.1-1.9,2.5c-0.5,0.2-0.6,0.4-0.6,0.9c0,0.2,0,0.5,0,0.7
		c1.8,0,3.6,0,5.4,0c0-0.5,0-0.9,0-1.3c-0.5-0.3-1-0.4-1.4-0.7c-0.7-0.5-1-1.2-1.1-2c0-0.5,0.2-0.7,0.6-0.6c0.5,0.1,1,0.3,1.6,0.5
		c-0.1-0.3-0.2-0.6-0.3-0.9c-0.3-0.9,0-1.8,0.6-2.5c0.3-0.4,0.6-0.4,0.9,0C25.9,14.5,25.9,15.9,25.2,17z M12.8,17
		c0.5-0.2,1-0.4,1.6-0.5s0.8,0.1,0.7,0.7c-0.2,1.4-1.1,2.2-2.4,2.5c0,0.5,0,0.9,0,1.4c1.8,0,3.6,0,5.4,0c0-0.5,0-1,0-1.4
		c-1.4-0.3-2.2-1.1-2.4-2.5c-0.1-0.6,0.1-0.8,0.6-0.7c0.6,0.1,1.2,0.4,1.7,0.6c-0.5-0.7-0.6-1.6-0.5-2.6c0.2-1.2,0.1-2.4,0.2-3.6
		c-1.6,0-3.1,0-4.6,0c0,0.5,0,1,0,1.4c0,0.6-0.1,1.3,0.1,1.9C13.3,15.2,13.3,16.1,12.8,17z M18.7,24c-2.2,0-4.4,0-6.5,0
		c-0.1,0-0.3,0.2-0.3,0.3c0,0.7,0,1.5,0,2.2c2.3,0,4.6,0,6.8,0C18.7,25.7,18.7,24.9,18.7,24z M15.3,10.1c0.9,0,1.8,0,2.8,0
		c0.4,0,0.7-0.1,0.7-0.6s-0.3-0.6-0.7-0.6c-1.8,0-3.7,0-5.5,0c-0.4,0-0.7,0.2-0.7,0.6c0,0.4,0.3,0.6,0.7,0.6
		C13.4,10.1,14.4,10.1,15.3,10.1z M11,25.2c-2.6,0-5.1,0-7.7,0c0,0.3,0,0.6,0,0.9c2.6,0,5.1,0,7.7,0C11,25.8,11,25.5,11,25.2z
		 M13,21.9c0,0.5,0,0.9,0,1.3c1.5,0,3,0,4.5,0c0-0.5,0-0.9,0-1.3C16,21.9,14.5,21.9,13,21.9z M16.3,8.1c0-0.8,0-1.6,0-2.3
		c-0.7,0-1.4,0-2.1,0c0,0.8,0,1.6,0,2.3C14.9,8.1,15.6,8.1,16.3,8.1z M13.2,4.9c1.4,0,2.7,0,4.1,0c-0.2-0.7-0.6-1-1.2-1
		c-0.4,0-0.9,0-1.3,0C14,3.9,13.5,4.2,13.2,4.9z M11.7,18.9c-0.2-0.9-0.9-1.5-1.6-1.5C10.4,18.1,10.8,18.6,11.7,18.9z M14.2,17.3
		c-0.8,0.1-1.4,0.8-1.5,1.5C13.4,18.6,14,18.1,14.2,17.3z M18.8,18.9c0.9-0.3,1.4-0.8,1.6-1.6C19.5,17.5,19.1,18,18.8,18.9z
		 M5.9,16.4c0.5-0.8,0.5-1.5,0-2.1C5.4,15,5.4,15.7,5.9,16.4z M18.4,16.5c0.5-0.8,0.5-1.5,0-2.2C17.9,15,18,15.7,18.4,16.5z
		 M12.2,14.3c-0.5,0.7-0.5,1.6,0,2.2C12.6,15.7,12.6,15,12.2,14.3z M24.7,16.5c0.4-0.8,0.4-1.5,0-2.2C24.2,14.9,24.2,15.6,24.7,16.5
		z M22.6,17.3c0.2,0.9,0.8,1.5,1.5,1.5C23.9,18,23.5,17.5,22.6,17.3z M3.9,17.3c0.2,0.9,0.8,1.4,1.5,1.5C5.2,18,4.8,17.5,3.9,17.3z
		 M6.3,18.9c1-0.3,1.5-0.9,1.5-1.6C7.1,17.5,6.6,18,6.3,18.9z M18,18.9c-0.3-0.9-0.8-1.4-1.6-1.6C16.6,18.1,17.1,18.6,18,18.9z
		 M25.1,18.9c0.9-0.3,1.4-0.8,1.6-1.6C25.8,17.5,25.3,18,25.1,18.9z"/>
	<path class="st0" d="M20.8,3.8C21,4,21.2,4.1,21.2,4.3c0,0.4-0.4,0.5-0.7,0.5c-0.1,0-0.3-0.2-0.4-0.3C20.3,4.3,20.5,4.1,20.8,3.8z"
		/>
	<path class="st0" d="M25,2.7c0.3,0.3,0.4,0.4,0.6,0.6c-0.2,0.1-0.4,0.3-0.6,0.4c-0.3,0.1-0.6,0-0.6-0.4C24.5,3.1,24.8,2.9,25,2.7z"
		/>
	<path class="st0" d="M22.7,3.9C22.4,4,22.2,4.2,22,4.2c-0.1,0-0.3-0.2-0.5-0.3c0.2-0.2,0.4-0.4,0.7-0.5c0.1,0,0.3,0.1,0.5,0.2
		C22.7,3.7,22.7,3.8,22.7,3.9z"/>
	<path class="st0" d="M7.2,6.7C6.9,6.4,6.8,6.3,6.6,6.1C6.8,6,7,5.7,7.2,5.8c0.2,0,0.4,0.2,0.6,0.4C7.6,6.3,7.5,6.4,7.2,6.7z"/>
	<path class="st0" d="M19.5,7.1c-0.2-0.3-0.4-0.4-0.4-0.5c0-0.4,0.4-0.4,0.7-0.5c0.1,0,0.3,0.2,0.4,0.3C20,6.7,19.8,6.8,19.5,7.1z"
		/>
	<path class="st0" d="M4.8,3.8C4.6,3.6,4.3,3.4,4.3,3.2c0-0.4,0.3-0.4,0.6-0.4c0.2,0,0.4,0.2,0.6,0.4C5.2,3.4,5.1,3.6,4.8,3.8z"/>
	<path class="st0" d="M23.6,2.8C23.8,3.1,24,3.2,24,3.3c0,0.5-0.4,0.5-0.7,0.5c-0.1,0-0.3-0.2-0.4-0.4C23.1,3.3,23.3,3.1,23.6,2.8z"
		/>
	<path class="st0" d="M7.7,3.2C8,3.5,8.2,3.7,8.3,3.9C8.2,4,8,4.3,7.9,4.2c-0.3,0-0.7-0.1-0.6-0.5C7.3,3.6,7.5,3.5,7.7,3.2z"/>
	<path class="st0" d="M21,6.8c-0.2-0.3-0.4-0.4-0.4-0.6c0-0.4,0.3-0.4,0.6-0.4c0.2,0,0.3,0.2,0.5,0.4C21.5,6.4,21.3,6.6,21,6.8z"/>
	<path class="st0" d="M7.5,8.9C7.3,9,7.1,9.2,6.8,9.2C6.7,9.2,6.5,9,6.4,8.9c0.2-0.2,0.4-0.4,0.7-0.5c0.1,0,0.3,0.2,0.5,0.2
		C7.5,8.7,7.5,8.8,7.5,8.9z"/>
	<path class="st0" d="M20,8.8c-0.3-0.3-0.5-0.4-0.6-0.6c-0.1-0.3,0.2-0.4,0.5-0.4c0.2,0.1,0.4,0.2,0.6,0.4C20.4,8.3,20.2,8.5,20,8.8
		z"/>
	<path class="st0" d="M9.8,8.7C9.6,8.5,9.4,8.3,9.4,8.2c0-0.4,0.3-0.4,0.6-0.4c0.2,0,0.3,0.2,0.5,0.3C10.3,8.3,10.1,8.5,9.8,8.7z"/>
	<path class="st0" d="M3.3,4.4C3.1,4.1,2.9,3.9,2.9,3.9c0.2-0.2,0.4-0.4,0.6-0.6l0.4,0.3C3.8,3.8,3.6,4,3.3,4.4z"/>
	<path class="st0" d="M11.1,5.3c-0.1,0.1-0.3,0.3-0.4,0.2C10.5,5.4,10.2,5.1,10,5c0.1-0.1,0.3-0.4,0.4-0.3c0.3,0.1,0.5,0.3,0.8,0.4
		C11.2,5.1,11.1,5.2,11.1,5.3z"/>
	<path class="st0" d="M19.9,5.1c-0.3,0.1-0.5,0.3-0.8,0.4c-0.1,0-0.2-0.2-0.4-0.3C19,5,19.2,4.7,19.5,4.6c0.1,0,0.3,0.2,0.4,0.3
		C19.9,5,19.9,5,19.9,5.1z"/>
	<path class="st0" d="M5.8,5.7C6,5.9,6.1,6.1,6.2,6.2C6,6.3,5.8,6.6,5.6,6.6c-0.1,0-0.3-0.2-0.5-0.4C5.3,6.1,5.5,5.9,5.8,5.7z"/>
	<path class="st0" d="M8.6,5.7C8.9,6,9.1,6.1,9.3,6.3C9.1,6.4,8.9,6.6,8.8,6.6c-0.2,0-0.4-0.2-0.7-0.4C8.3,6.1,8.4,5.9,8.6,5.7z"/>
	<path class="st0" d="M10.2,7.1C10,6.8,9.8,6.6,9.6,6.5c0.2-0.1,0.3-0.3,0.5-0.3c0.3,0,0.7,0.1,0.6,0.5C10.7,6.8,10.5,6.9,10.2,7.1z
		"/>
	<path class="st0" d="M25.4,6.1c0.3,0.3,0.5,0.5,0.7,0.7l-0.3,0.4c-0.3-0.1-0.5-0.3-0.7-0.6C25,6.6,25.2,6.4,25.4,6.1z"/>
	<path class="st0" d="M21.4,7.8c0.3,0.3,0.5,0.5,0.6,0.7c-0.2,0.1-0.3,0.3-0.5,0.3c-0.3,0-0.7,0-0.6-0.5C20.9,8.2,21.1,8.1,21.4,7.8
		z"/>
	<path class="st0" d="M24.9,9.6c-0.1,0.1-0.3,0.3-0.4,0.3c-0.3-0.1-0.5-0.3-0.7-0.5C23.9,9.2,24,9,24.1,9c0.3,0.1,0.5,0.2,0.8,0.4
		C24.9,9.4,24.9,9.5,24.9,9.6z"/>
	<path class="st0" d="M5,10.2c-0.4,0.3-0.6,0.5-0.9,0.6c0,0-0.3-0.3-0.3-0.4C4,10.2,4.3,10,4.5,9.8C4.6,9.8,4.8,10,5,10.2z"/>
	<path class="st0" d="M4.2,11.5c-0.3,0.3-0.5,0.4-0.7,0.6c-0.1-0.2-0.3-0.3-0.3-0.5c0-0.3,0.1-0.7,0.5-0.6
		C3.8,11.1,3.9,11.3,4.2,11.5z"/>
	<path class="st0" d="M26.9,11.7c-0.3,0.2-0.4,0.3-0.5,0.4c-0.2-0.2-0.4-0.4-0.5-0.7c0-0.1,0.2-0.3,0.3-0.4
		C26.4,11.2,26.6,11.4,26.9,11.7z"/>
	<path class="st0" d="M6.2,2.8c0.3,0.3,0.5,0.5,0.6,0.7C6.7,3.6,6.5,3.8,6.4,3.8C6.2,3.7,6,3.5,5.8,3.4C5.9,3.2,6,3.1,6.2,2.8z"/>
	<path class="st0" d="M26.3,3c0.3,0.3,0.5,0.6,0.6,0.8c0,0.1-0.2,0.2-0.3,0.4C26.4,4,26.1,3.8,26,3.6C25.9,3.5,26.1,3.3,26.3,3z"/>
	<path class="st0" d="M22.7,6.7c-0.3-0.2-0.5-0.4-0.5-0.5c-0.1-0.4,0.3-0.5,0.5-0.4c0.2,0,0.4,0.2,0.5,0.4
		C23.1,6.3,22.9,6.4,22.7,6.7z"/>
	<path class="st0" d="M24.3,6.8c-0.3-0.2-0.5-0.4-0.7-0.6c0.1-0.1,0.3-0.4,0.4-0.4c0.3,0,0.7,0,0.7,0.4C24.7,6.4,24.5,6.6,24.3,6.8z
		"/>
	<path class="st0" d="M5,6.7C4.6,6.9,4.3,7.1,4.1,7.2C4,7.2,3.9,6.9,3.7,6.8C4,6.6,4.2,6.4,4.5,6.3C4.5,6.3,4.7,6.5,5,6.7z"/>
	<path class="st0" d="M8.3,9C8.1,8.7,7.9,8.6,7.8,8.4C8.1,8.3,8.3,8.1,8.5,8C8.6,8,8.8,8.3,9,8.4C8.8,8.6,8.6,8.7,8.3,9z"/>
	<path class="st0" d="M23,9.4c-0.3-0.3-0.4-0.5-0.6-0.7c0.2-0.1,0.4-0.4,0.5-0.3c0.2,0.1,0.4,0.3,0.6,0.5C23.3,9,23.2,9.2,23,9.4z"
		/>
	<path class="st0" d="M25.6,11c-0.3-0.3-0.5-0.6-0.6-0.8c0-0.1,0.2-0.3,0.3-0.4c0.2,0.2,0.5,0.4,0.6,0.6C26,10.5,25.8,10.7,25.6,11z
		"/>
	<path class="st0" d="M9.8,4.6C9.6,4.7,9.4,4.9,9.4,4.8C9.1,4.7,8.9,4.5,8.6,4.3C8.8,4.2,9,4,9.1,4c0.2,0,0.5,0.2,0.7,0.4
		C9.8,4.4,9.8,4.5,9.8,4.6z"/>
	<path class="st0" d="M6.1,9.5C5.9,9.6,5.6,9.8,5.4,9.9C5.3,9.9,5.1,9.6,5,9.5C5.2,9.3,5.4,9.1,5.7,9C5.8,9,6,9.2,6.1,9.3
		C6.1,9.3,6.1,9.4,6.1,9.5z"/>
	<path class="st0" d="M3.2,8.5C3,8.2,2.8,8,2.9,7.9C3,7.7,3.2,7.5,3.4,7.3c0.1,0.1,0.4,0.3,0.3,0.4C3.6,7.9,3.5,8.1,3.2,8.5z"/>
	<path class="st0" d="M26.5,8.5c-0.2-0.4-0.3-0.6-0.4-0.8c0-0.1,0.2-0.2,0.4-0.4C26.7,7.5,26.9,7.7,27,8C27,8,26.8,8.2,26.5,8.5z"/>
</g>
</svg>
