<?xml version="1.0" encoding="utf-8"?>
<!-- Generator: Adobe Illustrator 24.0.2, SVG Export Plug-In . SVG Version: 6.00 Build 0)  -->
<svg version="1.1" id="Слой_1" xmlns="http://www.w3.org/2000/svg" xmlns:xlink="http://www.w3.org/1999/xlink" x="0px" y="0px"
	 viewBox="0 0 30 30" style="enable-background:new 0 0 30 30;" xml:space="preserve">
<style type="text/css">
	.st0{fill-rule:evenodd;clip-rule:evenodd;fill:#32B9AE;}
	.st1{fill:#32B9AE;}
</style>
<g>
	<path class="st0" d="M20.4,11.8h1.1c-0.2-2.1-0.7-5.7-1.2-7.5c-0.4-0.8-0.4-0.8-0.9-1h-4.6L5.7,3.8l2.1,3.9c0.6,1.3,1,3.3,1.5,5.1
		L20.4,11.8z"/>
	<path class="st0" d="M16.3,17.4c0.8-0.3,2,0,2.8-0.5c0.9-0.3,0.9-2.6,1.2-4.6l-10.7,1c-0.5,5.9-4.1,0.8-2.7-3.9l0.5-1.5
		c-0.2-1-0.5-1.5-0.9-2.1C4.7,12,6.2,17.7,7.9,18.5C8.4,18.7,15.3,17.7,16.3,17.4L16.3,17.4z"/>
	<path class="st0" d="M20.1,22.6c1.3,0.3,4.6,2.3,5.5,1.5c0.9-4.9-0.5-4.6-2.6-4.9c-1.8,0-3.4-0.3-5.3-0.3c0.4-1.3,0.2,0.5,0.2-1.3
		h-1.6c-0.5,0.3-1.3,0-1.6,0.5l0.7,2.3c0.5,1,0.8,0.8,1.5,1C17.8,21.6,19,22.3,20.1,22.6L20.1,22.6z"/>
	<path class="st0" d="M2.5,6.4C3,7.7,3.3,7.9,3.8,9.7c0.3,1,0.7,2.8,0.9,4.1h0.9c-0.5-3.1,0.1-5.7,0.6-8.2L5.4,4.3
		c-0.8-0.8-2,0.5-2.7,1.8L2.5,6.4z"/>
	<path class="st0" d="M9.4,13.6v-0.3c-0.1,0.3-0.1,0-0.1,0c-0.7-1.8-0.6-0.3-1.1-1.5C7.9,11,8.1,10.5,8.1,10S8,9.5,7.9,8.7
		c-1.6,0.8-1.2,6.7,0.5,6.7C9.1,15.4,9.2,14.9,9.4,13.6L9.4,13.6z"/>
	<path class="st1" d="M27.1,18.5c-0.7-1.8-1.4-1-1.9,0.8l0.5,0.8c0.5,1.3,0.5,3.6-0.1,4.1c0,0.3-0.1,0.3-0.1,0.3c0,0.5,0,0-0.1,0.3
		c0,0.3,0,0-0.1,0.5c0.2,0.5,0.5,1.3,0.8,1.5c0.2,0,0.5,0,0.7-0.3c0.4-0.5,0.2-0.5,0.4-1c0.3-0.5,0.1-0.5,0.3-1.3
		C27.6,22.1,27.6,20,27.1,18.5z"/>
</g>
</svg>
