<?xml version="1.0" encoding="utf-8"?>
<!-- Generator: Adobe Illustrator 24.0.2, SVG Export Plug-In . SVG Version: 6.00 Build 0)  -->
<svg version="1.1" id="Слой_1" xmlns="http://www.w3.org/2000/svg" xmlns:xlink="http://www.w3.org/1999/xlink" x="0px" y="0px"
	 viewBox="0 0 30 30" style="enable-background:new 0 0 30 30;" xml:space="preserve">
<style type="text/css">
	.st0{fill-rule:evenodd;clip-rule:evenodd;fill:#FF8900;}
	.st1{fill:#FF8900;}
</style>
<g>
	<path class="st0" d="M10.4,5.8C8.1,6.2,7.8,10,11.3,10c2,0,6.5,0.1,8.1-0.1c2-0.3,2.8-4.3-0.9-4.3C16.8,5.6,11.7,5.5,10.4,5.8
		L10.4,5.8z"/>
	<path class="st0" d="M5.5,12c0.5,0,17.5,0.3,18.7,0c0.4-1.3-0.5-1-1.5-1H6.9C5.9,11,5.3,10.7,5.5,12L5.5,12z"/>
	<path class="st0" d="M22.4,7.8c0.1,0.7-0.1,0.3,0.3,0.4c0.7,0.1,3.9-0.8,4.2,1.4c0.3,1.1-0.1,2-0.7,2.6c-0.8,0.7-1.5,0.6-1.7,0.7
		C23.7,13,24,12.4,24,13.3c0.5,0.6,3.9,0,3.5-3.7c-0.3-2.3-2-2.1-3.5-2.1c-0.3,0-0.7,0-0.9,0C22,7.5,22.5,7.6,22.4,7.8L22.4,7.8z"/>
	<path class="st0" d="M18.1,13.6c0.5,0,5,0.1,5.5-0.1v-1h-5.5V13.6z"/>
	<polygon class="st0" points="6.3,13.6 11.7,13.6 11.7,12.4 6.2,12.4 	"/>
	<rect x="12.1" y="12.6" class="st0" width="5.5" height="1"/>
	<path class="st0" d="M2.7,20.1C3,20,2.8,20.1,3.1,20c1.1-1.3,1.1-5.2,1.2-5.8c0.3-0.3,0.3-0.4,0.7-0.6c0.9-0.1,0.8,0.3,0.9-0.6
		c-0.1,0-0.1-0.1-0.1,0l-0.1-0.1c0,0-2.2-0.6-2.2,3c0,1.4-0.1,2.3-0.8,3.4C2.4,19.7,2.4,19.7,2.7,20.1L2.7,20.1z"/>
	<path class="st0" d="M11.7,14H6.3c-0.1,1.7,0.1,5,0.1,6.8c0.1,2.4-0.1,4.8,2.6,4.8c2.6,0,2.4-2.3,2.4-4.5
		C11.5,18.8,11.7,16.3,11.7,14z M8,24.9c-0.1-0.1,0,0-0.1-0.3c0-0.3,0,0,0-0.3L7.7,17c-0.1-1.1-0.3-2.1,0.1-2.4
		c0.4,0.6,0.3,8.1,0.4,9.3C8.2,24.5,8.4,24.6,8,24.9z M9.1,15.8v8.6c0,0.6,0,0.1-0.1,0.4c-0.4-0.3-0.3-4.4-0.3-5.2
		c0-0.9-0.1-4.7,0.3-5.1C9.2,14.9,9.2,15.3,9.1,15.8z M10.3,19.8c0,0.7,0,4.7-0.3,5.1c-0.3-0.1-0.3,0.3-0.3-1.1
		c0.1-1.7,0-8.8,0.4-9.2C10.6,15.1,10.3,19.1,10.3,19.8z"/>
	<path class="st0" d="M12.3,14c-0.3,1.6,0.1,5.4,0.1,7.1c0.1,2.4-0.1,4.5,2.6,4.5c2.6-0.1,2.3-2.1,2.4-4.7c0.1-2.1,0.3-4.8,0.3-6.9
		H12.3z M13.9,24.9c-0.4-0.4-0.3-1.8-0.3-2.6L13.5,17c0-0.4,0-1,0-1.4c0-1.1,0.1-1,0.3-1c0.3,0.6,0.3,6.2,0.3,7.8
		C14,23.1,14.3,24.5,13.9,24.9z M15.1,24.8L15,24.9c-0.4-0.1-0.1,0.3-0.3-0.4V17c0-0.6-0.3-2.1,0.3-2.4l0.1,10.1
		C15.1,24.6,15.1,24.6,15.1,24.8z M16.3,15.1l-0.1,7.4c0,1.1,0.1,2.1-0.3,2.4c-0.3-0.3-0.1-0.8-0.1-1.3l0.1-4c0-0.9,0-1.8,0-2.7
		c0-0.6-0.1-2.1,0.3-2.4c0.1,0.1,0.1,0,0.1,0.3C16.3,15,16.3,15,16.3,15.1z"/>
	<path class="st0" d="M23.4,14h-5.4c0,2.1,0.1,4.7,0.3,6.8c0,2.4-0.3,4.7,2.4,4.8c2.7,0,2.4-2.1,2.6-4.5
		C23.3,19.3,23.7,15.6,23.4,14z M19.8,24.9c-0.4-0.1-0.1,0.3-0.3-0.4L19.3,15c0.1-0.6,0.1-0.3,0.3-0.4
		C19.8,14.9,19.9,24.5,19.8,24.9z M20.7,24.9c-0.1-0.1-0.1,0-0.1-0.3v-5c0-0.7-0.3-4.5,0.1-5.1c0.4,0.4,0.1,4.4,0.1,5.2
		C20.9,20.5,21.1,24.6,20.7,24.9z M22.2,15.7l-0.1,4c0,1,0,1.8,0,2.8C22,22.9,22,23.4,22,23.8v1c0,0-0.1,0.1-0.1,0v0.1
		c-0.3-0.3-0.1,0.4-0.3-0.6c0,0,0-0.6,0-0.7l0.4-9.1C22.4,14.9,22.2,15.1,22.2,15.7z"/>
	<path class="st0" d="M7.4,8.1c0.1-1.1-0.5-0.1-0.9-1.3C6.1,6.2,6.2,5.2,6.1,4.4H5.5C5.5,6.1,5.7,8.3,7.4,8.1L7.4,8.1z"/>
	<path class="st0" d="M8.4,10.6V6.9H8V10C8,10.6,7.8,10.6,8.4,10.6L8.4,10.6z"/>
	<path class="st1" d="M21.7,6.9c-0.4,0.3-0.3,3.4-0.1,3.7h0.3c0.1-0.1,0.1,0,0.1-0.3c0-0.1,0-0.4,0-0.6v-2C22,7.1,22.1,7.2,21.7,6.9
		z"/>
</g>
</svg>
