<?xml version="1.0" encoding="utf-8"?>
<!-- Generator: Adobe Illustrator 24.0.2, SVG Export Plug-In . SVG Version: 6.00 Build 0)  -->
<svg version="1.1" id="Слой_1" xmlns="http://www.w3.org/2000/svg" xmlns:xlink="http://www.w3.org/1999/xlink" x="0px" y="0px"
	 viewBox="0 0 30 30" style="enable-background:new 0 0 30 30;" xml:space="preserve">
<style type="text/css">
	.st0{fill-rule:evenodd;clip-rule:evenodd;fill:#FF8900;}
</style>
<path class="st0" d="M18.6,22l0.9,0.6c0.3,0.2,0.6,0.3,1,0.5c0.6,0.3,1.3,0.8,1.9,1c0.5-0.6,1.1-1.1,1.6-1.6l-1.4-2.8
	c-0.2-0.2-0.2-0.2-0.3-0.3c-0.2-0.3,0.2,0-0.2-0.3c-0.2-0.2,0-0.2-0.2-0.2L18.6,22z"/>
<path class="st0" d="M13.5,9.1c0.5-0.3,1-0.8,1.1-1.3c-1.9-1.6-5.2-6.2-6.3-5.2c-1,0.8,1.1,2.4,2.2,3.5L13.5,9.1z"/>
<path class="st0" d="M22.9,24.3c1,0.8,2.4,2.7,3.3,3.2l1.3-1.3l-3.3-3.3C23.7,23.4,23.2,23.9,22.9,24.3L22.9,24.3z"/>
<path class="st0" d="M22.6,13.9l-4.9-5.1c0.3-0.5,1.7-1.4,0.8-2.4c-1-0.8-1.9,0.5-2.4,0.8c-1.1,1.3-2.4,2.4-3.5,3.6l-4.4,4.3
	C6.7,17,5.9,17,6.4,18.5c1.7,1,1.1,0,2.2-0.6c0.5,0.5,0.8,0.8,1.1,1.3l3.2,3c1.3,1.3,3.3,1.4,4.4,0.5l5.1-4.9
	C23.1,16.7,23.5,15.1,22.6,13.9z M16.4,17.2c-1.7,0.6-2.7-1.9-1-2.5C17.3,13.9,18.1,16.7,16.4,17.2z"/>
<path class="st0" d="M8.6,13.4L8.6,13.4l-2.6-2.7L5.5,9.9C5,9.4,3.6,7.7,2.8,8.3c-0.9,0.8,1.1,2.7,1.8,3l1.7,1.7
	c0.5,0.6,1.1,1.1,1.6,1.7c0.3-0.3,0.8-0.6,1.1-1.1L8.6,13.4z"/>
</svg>
