<?xml version="1.0" encoding="utf-8"?>
<!-- Generator: Adobe Illustrator 24.0.2, SVG Export Plug-In . SVG Version: 6.00 Build 0)  -->
<svg version="1.1" id="Слой_1" xmlns="http://www.w3.org/2000/svg" xmlns:xlink="http://www.w3.org/1999/xlink" x="0px" y="0px"
	 viewBox="0 0 30 30" style="enable-background:new 0 0 30 30;" xml:space="preserve">
<style type="text/css">
	.st0{fill-rule:evenodd;clip-rule:evenodd;fill:#FF8900;}
</style>
<path class="st0" d="M24,11.6C21.4,8,23,9.2,18.1,8C15.7,7.6,4.1,5,2.5,4.7c2.6,4.9,5.4,9.4,7.5,13.7c0.7,1.2,0.7,1.4,1.7,1.9
	l-3.5,4.9H15c0.2-0.5,0.9-5.4,1.4-5.9c0.9-0.5,9.4-1.7,11.1-1.9C27,15.8,24.9,13.2,24,11.6z M25.6,15.6c-1.2,0.5-1.4,0.2-1.9-0.7
	C25.1,14.6,25.1,14.4,25.6,15.6z M24.4,13.5l0.5,0.9c-1.7,0-1.7,0.2-2.1-0.9H24.4z M20.2,12.8c-0.2-0.5-0.2-0.5-0.5-1.2l1.7,0.2
	c0,0.5,0.2,0.7,0.5,1.2L20.2,12.8z M20.7,14.4h-1.4l-0.7-1.2h1.6L20.7,14.4z M18.8,10.2c1.4,0.2,1.6,0,2.1,1.2
	C19,11.3,19.5,11.6,18.8,10.2z M19,11.6l0.7,1.2h-1.6l-0.5-1.2H19z M18.5,14.4h-1.4L16.4,13l1.4,0.2L18.5,14.4z M17.1,11.1
	c-0.2-0.5-0.5-0.9-0.7-1.4c1.7,0.2,1.9,0.2,2.4,1.4H17.1z M16.9,11.3c0.2,0.5,0.5,0.7,0.7,1.4h-1.6l-0.7-1.4H16.9z M13.6,13l0.9,1.6
	h-1.6L12.2,13H13.6z M11.9,12.5L11,10.9h1.4c0.2,0.5,0.7,0.9,0.9,1.6H11.9z M14.3,13c1.7,0,1.9,0,2.1,1.4h-1.2
	C14.8,14.2,14.5,13.7,14.3,13z M15,10.9l-0.7-1.4c1.7,0.2,1.7,0,2.1,1.4H15z M15.5,12.8l-1.7-0.2l-0.7-1.4
	C15,11.1,14.8,11.1,15.5,12.8z M12.6,10.6L11.9,9c1.9,0.2,1.9,0.2,2.4,1.9L12.6,10.6z M12.2,10.6l-1.4-0.2L9.8,8.7
	C11.5,8.7,11.7,9.2,12.2,10.6z M10,10.4c-2.1-0.2-2.1-0.5-2.6-2.1C9.1,8.5,9.6,8.7,10,10.4z M10,10.9c0.5,0.2,0.9,0.9,1.2,1.6H9.6
	l-0.9-1.9L10,10.9z M11.2,13c0.7,0.5,0.9,0.7,1.2,1.6h-1.7L10,12.8L11.2,13z M12.6,15.1l0.9,1.7h-1.4l-0.9-1.7H12.6z M13.3,14.9h1.4
	c0.5,0.5,0.5,0.9,0.9,1.7h-1.7L13.3,14.9z M15.5,14.9h1.4c0.2,0.5,0.5,0.9,0.7,1.7h-1.4L15.5,14.9z M17.4,14.9H19l0.7,1.4h-1.4
	L17.4,14.9z M19.5,14.9h1.7l0.5,1.2h-1.4L19.5,14.9z M21.1,14.4l-0.5-1.2c1.9,0,1.4-0.2,2.1,1.2H21.1z M23,14.9l0.7,0.9l-1.4,0.2
	l-0.7-1.2H23z M24,13c-1.6,0-1.6,0.2-2.1-1.2C23.5,12,23.5,11.8,24,13z M23,11.6h-1.4c-0.2-0.5-0.2-0.5-0.7-1.2
	C22.5,10.6,22.5,10.6,23,11.6z M22.1,10.2c-1.2,0-1.7,0-1.9-1.2C21.4,9.2,21.6,9,22.1,10.2z M19.5,9l0.5,0.9
	c-1.2-0.2-1.9-0.2-2.1-1.4L19.5,9z M17.6,9.5c-1.4-0.2-1.6,0-2.1-1.4C16.9,8.3,17.1,8.3,17.6,9.5z M15.5,9.2C14.1,9,13.8,9,13.3,7.6
	C14.8,7.8,15,8,15.5,9.2z M13.1,8.7c-1.9-0.2-1.6,0-2.4-1.6C12.4,7.3,12.6,7.3,13.1,8.7z M10.3,7.1L11,8.5C9.1,8.3,9.1,8,8.4,6.6
	L10.3,7.1z M7.9,6.6L8.6,8L7,7.8L6.3,6.2L7.9,6.6z M3.9,5.7c1.7,0.2,1.9,0.5,2.6,1.9C4.6,7.6,4.4,7.3,3.9,5.7z M5.1,8
	C7.4,8.3,7,8.5,7.7,10.2L6,9.9L5.1,8z M6.5,10.4l1.6,0.2c0.2,0.7,0.5,0.9,0.9,1.6H7.4L6.5,10.4z M7.9,12.8h1.4l0.9,1.9H8.9L7.9,12.8
	z M9.1,15.1h1.4c0.5,0.5,0.9,0.9,0.9,1.9H10L9.1,15.1z M11.5,19.4c-0.5-0.7-0.9-1.2-0.9-1.9l1.4-0.2c0.2,0.7,0.7,1.2,0.9,1.9
	L11.5,19.4z M11,24.8H9.1c0.5-0.9,1.2-1.9,1.9-2.8c0.7-1.2,0.7-1.9,2.6-2.1L11,24.8z M13.3,19.1c-0.2-0.7-0.7-1.2-0.9-1.9h1.4
	l0.9,1.6L13.3,19.1z M15.5,18.7c-0.2,0-0.2,0-0.5-0.2L14.5,17h1.4l0.7,1.6H15.5z M17.4,18.4C15.9,17,16.6,17,16.6,17l1.4-0.2
	c0.2,0.7,0.5,0.9,0.5,1.6H17.4z M19.2,18.2l-0.7-1.4h1.6l0.5,1.2L19.2,18.2z M21.1,17.9c-0.2-0.7-0.5-0.7-0.5-1.4h1.4l0.7,1.2
	L21.1,17.9z M23.3,17.5l-0.7-1.2h1.7l0.5,1.2H23.3z M24.7,16.3c0.5,0,0.9-0.2,1.2,0c0.7,0.2,0.5,0.5,0.7,0.7l-1.4,0.2L24.7,16.3z"/>
</svg>
