<?xml version="1.0" encoding="utf-8"?>
<!-- Generator: Adobe Illustrator 24.0.2, SVG Export Plug-In . SVG Version: 6.00 Build 0)  -->
<svg version="1.1" id="Слой_1" xmlns="http://www.w3.org/2000/svg" xmlns:xlink="http://www.w3.org/1999/xlink" x="0px" y="0px"
	 viewBox="0 0 30 30" style="enable-background:new 0 0 30 30;" xml:space="preserve">
<style type="text/css">
	.st0{fill-rule:evenodd;clip-rule:evenodd;fill:#FF8900;}
	.st1{fill:#FF8900;}
</style>
<g>
	<path class="st0" d="M14.8,20.3h3.9c0.6-1.1,0.4-3.3,0.4-4.9h-4.6C14.4,16.9,14.2,19.2,14.8,20.3L14.8,20.3z"/>
	<path class="st0" d="M2.5,21.5v5.1c1.2,0.7,2.2,0.3,3.7,0.5v-6C4.8,21.1,3.5,20.6,2.5,21.5L2.5,21.5z"/>
	<path class="st0" d="M18.7,20.8h-3.7C14.8,24.9,18.7,24.7,18.7,20.8L18.7,20.8z"/>
	<path class="st0" d="M6.7,20.6c-0.2,0.5-0.2,6.2,0,6.7c1.4,0.7,1-0.8,1-3.3C7.7,21.3,8.1,20,6.7,20.6L6.7,20.6z"/>
	<path class="st0" d="M14.2,14.8c0.5,0.2,4.6,0.2,5.1,0c0.6-1.8-0.6-1.3-1.9-1.3c-0.9,0-2.5-0.2-3.2,0V14.8z"/>
	<path class="st0" d="M25.6,27.5l0.9-0.2c0.1-0.5,0.1-5.1,0.1-6c-0.1-0.8-0.4-0.8-1-0.8C25.5,21.3,25.5,26.7,25.6,27.5L25.6,27.5z"
		/>
	<path class="st0" d="M14.5,12.8L19,13v-0.8c-0.8,0-4-0.2-4.5,0.2V12.8z"/>
	<path class="st0" d="M27.2,27c0.4-0.3,0.1,0,0.3-0.5v-4.9c0-0.5,0.1-0.3-0.3-0.7c-0.4,0.3-0.1-0.2-0.2,0.5l-0.1,4.9
		C27,27,26.9,26.7,27.2,27L27.2,27z"/>
	<polygon class="st0" points="8.1,26.8 8.6,27 8.7,21.1 8.2,21 	"/>
	<path class="st1" d="M21,21.6l-2-0.2c-0.3,0.8-0.3,1.3-0.6,2c-1,1.1-2.4,1-3.2,0c-0.5-0.7-0.4-1.1-0.7-2H9.1v5.1c0.5,0.2,5.5,0,6,0
		c1.1,0,5.3,0.2,6-0.2c0.1-0.7,0.1-1.5,0.1-2.3C21.1,23.4,21.3,22.1,21,21.6z"/>
	<path class="st0" d="M22,21.1c-0.9,0.5-0.6,1-0.6,2.3c0,1,0,2,0,3.1l0.5,0.3c0.5,0.3,2.9,0.2,3.4,0.2v-6
		C24.8,20.8,22.4,20.8,22,21.1z"/>
	<path class="st1" d="M18.3,2.5H17c-0.1,0-0.3,0-0.4,0l0,0h-1.8c0,1.5,0,3.1,0,4.6v4.1c0.1,0.6,0,0.3,0.1,0.5h3.7V2.8
		c0,0-0.1-0.1-0.1-0.1c0.1,0,0.1,0.1,0.1,0.1C18.5,2.3,18.9,2.7,18.3,2.5z M17.3,2.5C17.3,2.5,17.3,2.5,17.3,2.5
		C17.3,2.5,17.3,2.5,17.3,2.5z M18.2,2.7c0,0-0.1,0-0.1,0C18.2,2.6,18.2,2.6,18.2,2.7z M18,2.6C18,2.6,18,2.6,18,2.6
		C18,2.6,18,2.6,18,2.6z M17.8,2.6C17.8,2.6,17.7,2.6,17.8,2.6C17.7,2.6,17.8,2.6,17.8,2.6z M17.5,2.5C17.5,2.5,17.5,2.5,17.5,2.5
		C17.5,2.5,17.5,2.5,17.5,2.5z M15.1,2.6c-0.1,0-0.1,0-0.2,0C15,2.7,15,2.6,15.1,2.6z M16.4,2.5C16.4,2.5,16.4,2.5,16.4,2.5
		C16.4,2.5,16.4,2.5,16.4,2.5z M16.2,2.5C16.2,2.5,16.1,2.5,16.2,2.5C16.1,2.5,16.2,2.5,16.2,2.5z M15.9,2.5
		C15.9,2.5,15.9,2.5,15.9,2.5C15.9,2.5,15.9,2.5,15.9,2.5z M15.7,2.6C15.7,2.6,15.7,2.6,15.7,2.6C15.7,2.6,15.7,2.6,15.7,2.6z
		 M15.5,2.6C15.5,2.6,15.4,2.6,15.5,2.6C15.4,2.6,15.5,2.6,15.5,2.6z M15.3,2.6C15.2,2.6,15.2,2.6,15.3,2.6
		C15.2,2.6,15.2,2.6,15.3,2.6z M18.3,2.7c0,0,0.1,0,0.1,0C18.4,2.7,18.4,2.7,18.3,2.7z"/>
</g>
</svg>
