<?xml version="1.0" encoding="utf-8"?>
<!-- Generator: Adobe Illustrator 24.0.2, SVG Export Plug-In . SVG Version: 6.00 Build 0)  -->
<svg version="1.1" id="Слой_1" xmlns="http://www.w3.org/2000/svg" xmlns:xlink="http://www.w3.org/1999/xlink" x="0px" y="0px"
	 viewBox="0 0 30 30" style="enable-background:new 0 0 30 30;" xml:space="preserve">
<style type="text/css">
	.st0{fill-rule:evenodd;clip-rule:evenodd;fill:#FF8900;}
</style>
<g>
	<path class="st0" d="M23,19V6.3C23,4.4,23,5,17.5,5H8.9c-1.8,0-2-0.3-2,1.2C7,7,7,8,7,8.8L6.9,21.9c0,1.4,0.4,1.1,2.2,1.1h13.1
		C23.6,22.8,23,21.7,23,19z M17.7,20.5h-5.5v-4.1h5.5V20.5z"/>
	<path class="st0" d="M13.5,4.6H17c0-0.6,0.2-0.4,0.2-1.1c0.2-0.4,0.2-0.7,0.4-1h-5C13.1,3.2,12.6,4.3,13.5,4.6L13.5,4.6z"/>
	<polygon class="st0" points="19.6,24.9 19.4,27.5 21.2,27.5 21.2,24.9 	"/>
	<polygon class="st0" points="12.6,27.5 14.2,27.5 14.2,24.9 12.6,24.8 	"/>
	<path class="st0" d="M8.9,27.5h1.7c0-0.7,0.2-1.9,0-2.6H9.1L8.9,27.5z"/>
	<path class="st0" d="M14.8,23.4H12c0,1,0.2,1.1,1.3,1.1C14.6,24.5,14.8,24.3,14.8,23.4L14.8,23.4z"/>
	<path class="st0" d="M19,24.2c0.6,0.3,0.9,0.3,1.8,0.3c0.9-0.1,0.9-0.4,0.7-1.1H19V24.2z"/>
	<path class="st0" d="M8.7,24.3c1.5,0.3,2.6,0.3,2.4-1H8.3C8.3,23.8,8.5,24.1,8.7,24.3L8.7,24.3z"/>
	<path class="st0" d="M12.7,16.8v3.3h4.4l0.2-3.3H12.7z M14.8,19.7h-1.5l0.2-0.6h1.3V19.7z M16.6,19.7h-1.3v-0.6h1.3V19.7z"/>
</g>
</svg>
