<?xml version="1.0" encoding="utf-8"?>
<!-- Generator: Adobe Illustrator 24.0.2, SVG Export Plug-In . SVG Version: 6.00 Build 0)  -->
<svg version="1.1" id="Слой_1" xmlns="http://www.w3.org/2000/svg" xmlns:xlink="http://www.w3.org/1999/xlink" x="0px" y="0px"
	 viewBox="0 0 30 30" style="enable-background:new 0 0 30 30;" xml:space="preserve">
<style type="text/css">
	.st0{fill-rule:evenodd;clip-rule:evenodd;fill:#FF8900;}
</style>
<g>
	<path class="st0" d="M13.4,15.1c-0.5,0.2-1.5,1.1-1.6,1.3c-0.7,0-2,0-2.6,0v9.2c1.5,0.2,2.1-0.2,3.1,0.7c3.4,3.1,5.1-0.7,6.9-0.7
		c0.6,0,1.1,0,1.8,0v-9.2c-0.7,0-2.1,0-2.6,0c-0.2-0.2-1.1-1.1-1.6-1.3v-2.6h-3.3V15.1z"/>
	<path class="st0" d="M17,6.9c-1,0-4.2-0.4-4.9,0.2c-0.3,0.4-0.2,0.2-0.2,2c0,0.9-0.2,1.5,0.2,2.2c0.6,0.4,5.1,0.4,6,0.2
		c0.3-2-0.5-2.4,0.5-3.7c0.7-0.7,1.1-1.3,1.6-2.2c0.8,0,1.8,0,2.8,0c1.5,0,1.5,0.7,2.3,0.7c1.8-0.2,1.5-4.2-0.5-3.7
		c-1,0.4,0.2,0.7-2.3,0.7c-0.7,0-2.1-0.2-2.8,0C19.1,3.4,17.3,6.3,17,6.9L17,6.9z"/>
	<path class="st0" d="M5.1,14.6c-2,0-1.5-0.4-1.5,6.2c0,7.9-0.8,6.6,3.3,6.6c1,0,1.5,0.4,1.6-0.9v-8.6C8.5,14.2,9.1,14.6,5.1,14.6z
		 M7.8,23.9c-0.5,0.4-3.1,0.4-3.6,0v-0.4C4.7,23,5.4,23.2,6,23.2c0.7,0,1.3-0.2,1.8,0.2V23.9z M7.8,18.6c-0.3,0.2,0,0-0.3,0.2
		c-0.2,0-2.8,0.2-3.3-0.2v-0.4c0.5-0.4,3.1-0.4,3.6,0V18.6z"/>
	<path class="st0" d="M26.3,14.9c-0.7-0.4-3.6-0.2-4.6-0.2c-0.2,1.1-0.2,11.4,0,12.7c1,0,3.9,0.2,4.6-0.2l0.2-1.3
		C26.4,24.1,26.6,15.3,26.3,14.9z M23.2,17.9c2.9,0,2.4-0.2,2.6,0.7c-0.5,0.4-1.2,0.2-1.8,0.2c-2.3,0-1.5,0.2-1.6-0.4
		C22.5,18.1,21.9,17.9,23.2,17.9z M25.8,23.9c-0.5,0.2-1.2,0.2-1.8,0.2c-2.1,0-1.5,0.2-1.6-0.4c0.2-0.4-0.5-0.4,0.8-0.4
		C26.3,23,25.8,23,25.8,23.9z"/>
	<path class="st0" d="M13.4,6.3h3.3C16.5,5.4,16,5.2,15,5.2C13.9,5.2,13.5,5.6,13.4,6.3L13.4,6.3z"/>
</g>
</svg>
