<?xml version="1.0" encoding="utf-8"?>
<!-- Generator: Adobe Illustrator 24.0.2, SVG Export Plug-In . SVG Version: 6.00 Build 0)  -->
<svg version="1.1" id="Слой_1" xmlns="http://www.w3.org/2000/svg" xmlns:xlink="http://www.w3.org/1999/xlink" x="0px" y="0px"
	 viewBox="0 0 30 30" style="enable-background:new 0 0 30 30;" xml:space="preserve">
<style type="text/css">
	.st0{fill-rule:evenodd;clip-rule:evenodd;fill:#FF8900;stroke:#FF8900;stroke-width:0.5;stroke-miterlimit:10;}
</style>
<g>
	<path class="st0" d="M15.6,18.2c0,0.1,0.1,0,0.1,0.1l0.5,0.7c0.2,0.1,0.5,0.7,0.5,0.7c-0.3-0.1-0.7-0.2-1-0.6
		c-0.8-0.6-2.2-0.1-1.7,1.2c0.1,0.2,0.2,0.3,0.3,0.6c0.2,0.2,0.2,0.1,0.3,0.5c0.2,0.2,0.2,0.2,0.5,0.6c0.2,0.2,1,0.7,1.4,0.9
		c0.7,0.3,1,0.6,2,0.6c2.1,0.1,2.5,0.1,4.4,0.7l0.1-0.8c-0.3,0.2-1-0.2-2.4-0.5c-0.8,0-2.4,0-2.9-0.2c-0.2,0-2-1-2-1.2l-1-1.3
		c-0.2-0.5-0.2-0.3,0.1-0.6c0.5-0.3,1.4,1.2,2.9,1c0-0.5-0.1-0.7-0.2-1.3c-0.3-0.9-2-2.4-2.8-3.1l-2.3-2c-0.5-0.2-0.7-0.5-0.5-1
		C12.6,13,14,14,15,14.6c0.9,0.6,3.3,2.5,3.1,1.3c-0.1-0.3,0,0-0.3-0.2c-0.2-0.2-0.3-0.2-0.6-0.5c-0.3-0.2-1.2-0.6-1.3-0.9
		c0.8-0.2,0.9,0.2,1.4,0.3c0.7,0.1,0.5-0.5,1.5,0.2c0.8,0.7,0.6-0.1,1.2,0.1c0.7,0.1,2.9,2.4,3.2,2.9L25,20l0.6-0.3
		c-0.8-0.8-2.1-2.9-3.2-3.7l-2-1.5c-0.7-0.6-0.8,0-1.3-0.2c-0.3-0.1-0.3-0.3-1.4-0.5h-0.6l-0.8-0.3l-0.7,0.1
		c-0.2,0.2-0.2,0.1-0.3,0.5c-0.8-0.3-1.8-1.3-2.7-1.5c-1.4-0.5-2.1,1-1.3,1.8l1.2,0.9C13.6,16.3,14.7,17.2,15.6,18.2L15.6,18.2z"/>
	<path class="st0" d="M14.2,20.9c-0.1-0.2-0.2-0.3-0.3-0.6l-7.1,3.5V11.2c0.1-0.3,3.8-2.1,4.4-2.3c1.4-0.7,3.1-1.7,4.5-2.3v7.1
		l0.7-0.1c-0.1-1.7,0.2-6.6-0.1-7.7c-0.7-0.1-4.3,2-5.1,2.3l-5,2.5c-0.2,0.2-0.1,11-0.1,13.2c0,0.1,0,0.3,0.1,0.5v0.3
		c0.2,0.5,3.6-1.5,4-1.7C11.3,22.4,13.2,21.2,14.2,20.9L14.2,20.9z"/>
	<path class="st0" d="M15.6,2.5h-0.8L2.5,8.8v17c3.2,1.5,1.7,1.6,6.2-0.7L15,22c-0.2-0.3-0.2-0.3-0.5-0.6L5.3,26V10.3l11.9-5.9v9.5
		h0.6V3.7L15.6,2.5z M4.7,26l-1.5-0.7V9.6l1.5,0.7V26z M6.8,8.8C5.3,9.6,5.1,10,3.7,9l6.4-3.4c1.2-0.5,2.2-1,3.3-1.6
		c2-1,1.3-1,3.2-0.2L6.8,8.8z"/>
	<path class="st0" d="M25.5,19.7L25,20.1c-1,0.7-1.7,1.6-2.1,3.2l-0.1,0.8c0.1,1.2,0.2,1.5,0.9,2c0.2,0.2,1.4,1.2,1.5,1.4h1.2
		c-0.6-0.8-2.5-1.7-2.8-2.5c-0.6-2,1.3-4.6,2.6-4.6c0.6,0,0.9,0.3,1.3,0.6v-0.8C26.5,19.6,26.9,19.6,25.5,19.7L25.5,19.7z"/>
	<path class="st0" d="M15.6,19.2c0.3,0.3,0.7,0.5,1,0.6c0,0-0.2-0.6-0.5-0.7l-0.5-0.7c0-0.1-0.1,0-0.1-0.1v0.9H15.6z"/>
</g>
</svg>
