<?xml version="1.0" encoding="utf-8"?>
<!-- Generator: Adobe Illustrator 24.0.2, SVG Export Plug-In . SVG Version: 6.00 Build 0)  -->
<svg version="1.1" id="Слой_1" xmlns="http://www.w3.org/2000/svg" xmlns:xlink="http://www.w3.org/1999/xlink" x="0px" y="0px"
	 viewBox="0 0 30 30" style="enable-background:new 0 0 30 30;" xml:space="preserve">
<style type="text/css">
	.st0{fill-rule:evenodd;clip-rule:evenodd;fill:#FF8900;}
</style>
<g>
	<path class="st0" d="M22,15.4c-2,1.4-1.3,10.3,0.8,8.7C24.8,22.8,24.1,13.9,22,15.4L22,15.4z"/>
	<path class="st0" d="M24.6,14.3c-1.1-2.6-2.4-2.5-4.9-2.2C20,10,22.2,6.3,21.5,4c-0.5-1.5-1.3-1.5-2.7-1.5h-7.5
		c-1.4,0-2.3-0.2-2.9,1.4c-0.8,2.3,1.6,6.3,1.8,8.3c-2.4-0.3-3.8-0.5-4.9,2c-1.8,4.3-0.9,12.7,2,13.2c0.7,0.2,2.4,0.2,3.1,0
		c1-0.2,1.5-1.1,2-1.8c2,0.9,2.4,1.8,5.1,0c0.5,0.8,1,1.7,1.9,1.8c0.7,0.2,2.4,0.2,3.1,0C25.5,27.1,26.4,18.6,24.6,14.3z M8,26.2
		c-3,1.4-4-11.2-0.8-12.7c1.8-0.9,2.7,3.2,2.8,5.7c0.1,1.5-0.1,3.1-0.4,4.5C9.3,24.6,8.8,25.8,8,26.2z M12,24.6
		c-0.6,1.4-1.2,1.7-2.7,1.7c1-2.2,1.4-3.4,1.5-6.5c0-1.7-0.2-2.5-0.4-3.8c-0.1-0.5-0.3-0.9-0.5-1.4c-0.1-0.5-0.4-0.9-0.5-1.4
		c1.6,0,2.1,0.2,2.7,1.8c0.4,1.4,0.7,3.1,0.7,4.8C12.8,21.5,12.5,23.2,12,24.6z M15.5,25.1c-0.7,0.6-1.4,0-1.6-0.8
		c-0.5-1.1-0.1-2,0.5-2.6C15.8,20.3,17,24,15.5,25.1z M13.8,9l-0.9,1.4c-0.4,0.6-1,1.7-1.4,2C11.3,12,9.3,5.7,9.3,5.4
		C9.2,3.6,10.8,4,11.8,4h6.7c0.9,0,2.5-0.5,2.3,1.5c-0.1,0.3-2,6.3-2.2,6.8c-0.7-1.1-1.4-2.2-2.1-3.2C15.7,7.9,14.6,7.3,13.8,9z
		 M18,24.5c-1-2.6-1-6.8,0-9.5c0.6-1.4,1.2-1.8,2.7-1.7c-0.3,0.9-0.7,0.9-1.1,2.8c-0.2,1.2-0.3,2.6-0.3,3.8c0,1.2,0.1,2.6,0.4,3.7
		c0.5,2.1,0.7,2,1,2.8C19.1,26.5,18.6,26,18,24.5z M20.7,24.3c-1.3-3.5-0.7-10.1,1.4-11.1c1.7-0.6,2.6,3.5,2.7,6
		C24.9,24.8,22.5,28.9,20.7,24.3z"/>
	<path class="st0" d="M9.1,18.2c-0.1-1.7-1-4-2.2-2.6C5.3,17.7,6,25.2,8,24.3c0.9-0.6,1.2-2.9,1.2-4.9L9.1,18.2z"/>
</g>
</svg>
