<?xml version="1.0" encoding="utf-8"?>
<!-- Generator: Adobe Illustrator 24.0.2, SVG Export Plug-In . SVG Version: 6.00 Build 0)  -->
<svg version="1.1" id="Слой_1" xmlns="http://www.w3.org/2000/svg" xmlns:xlink="http://www.w3.org/1999/xlink" x="0px" y="0px"
	 viewBox="0 0 30 30" style="enable-background:new 0 0 30 30;" xml:space="preserve">
<style type="text/css">
	.st0{fill-rule:evenodd;clip-rule:evenodd;fill:#FF8900;}
</style>
<g>
	<path class="st0" d="M4.3,16.8c0.6,1.2,2.1,0.6,4.9,0.6h14.1c0.3,0,1.5,0,1.5,0c1.5-0.3,0.6,0.3,0.9-0.6
		C24.8,16.1,5.2,16.1,4.3,16.8L4.3,16.8z"/>
	<path class="st0" d="M13.2,13.1c0.3-2.1-0.6-3.4-1.8-4c-0.6,0.6-1.8,2.2-1.5,3.4C10.1,14.3,12.2,13.7,13.2,13.1L13.2,13.1z"/>
	<path class="st0" d="M6.7,15.9C7,15.5,7,16.5,7,14.6c0.3-4-0.9-8.9,1.2-11.3c3.1-0.3,1.5,0.6,3.4,0.9C10.4,1.4,6.4,2,6.4,6
		C6.4,7.3,6.1,14.9,6.7,15.9L6.7,15.9z"/>
	<path class="st0" d="M14.4,7.3c-0.3-1.5-0.9-2.5-2.4-2.8c-0.9,0-1.5,0.3-2.2,0.6C8.9,5.7,9.2,5.7,8.9,6.6c-0.3,0.6,0,0-0.3,0.6
		c0,0.3,0,0.9-0.3,0.9h6.4L14.4,7.3z"/>
	<path class="st0" d="M8,25.3C7.3,24.4,8.6,24.1,7,25c-0.6,0.3-0.3,0.3-0.9,0.9c-0.6,0.6-0.6,0.3-0.9,1.5h2.5
		c-0.3-1.2-0.3-0.6-0.6-1.8L8,25.3z"/>
	<path class="st0" d="M23,25.3c0,1.8-0.3,0.9-0.6,2.2h2.4c-0.3-1.2-0.3-1.5-1.5-1.8L23,25.3z"/>
	<path class="st0" d="M25.1,17.7H4.9c0,3.7-0.6,4.9,1.8,7c0.6-1.2,1.2-1.8,2.8-1.2l0.3,1.2c-0.6,0.6-0.3,0.3-0.9,0.6
		c-0.3,0-0.5,0-0.6,0c0,0,0,0,0,0H8c0,0,0,0,0,0c0,0.1-0.1,0.2-0.3,0.3c3.1,1.2,11.6,0.9,14.7,0l-1.5-0.3c-0.1-0.2-0.2-0.3-0.2-0.3
		c0.4,1.1-0.4-0.6,0,0c0-0.1-0.1-0.2-0.1-0.3c0-0.6,0-0.3,0-0.9l1.2-0.6l0.6,0.6c0.3,0.3,0.6,0.6,1.2,0.9
		C25.4,22.6,25.1,21.1,25.1,17.7z"/>
	<path class="st0" d="M21.1,25.3c1.8-0.6,0.3-0.6,1.8,0l0.3,0.3c-0.3-2.1-0.6,0-0.9-1.8C20.8,23.5,20.8,23.8,21.1,25.3L21.1,25.3z"
		/>
	<path class="st0" d="M8.3,25.3L8.9,25l0.6-1.2C7.6,23.5,7.6,23.8,8.3,25.3L8.3,25.3z"/>
</g>
</svg>
