<?xml version="1.0" encoding="utf-8"?>
<!-- Generator: Adobe Illustrator 24.0.2, SVG Export Plug-In . SVG Version: 6.00 Build 0)  -->
<svg version="1.1" id="Слой_1" xmlns="http://www.w3.org/2000/svg" xmlns:xlink="http://www.w3.org/1999/xlink" x="0px" y="0px"
	 viewBox="0 0 30 30" style="enable-background:new 0 0 30 30;" xml:space="preserve">
<style type="text/css">
	.st0{fill-rule:evenodd;clip-rule:evenodd;fill:#FF8900;}
</style>
<g>
	<path class="st0" d="M2.5,24.1v0.3h6.2c-0.3-1.4-1.6-1-2.9-1C4.4,23.5,3.5,23.1,2.5,24.1L2.5,24.1z"/>
	<path class="st0" d="M8.4,18.7l8.3-5.3c1.9-1,4.9-2.9,7.1-2.9c0.7,0,2.6,0.2,3-0.2c-0.7-0.3-4.1-0.2-5.5,0.5
		c-2.9,1.2-6.2,3.4-8.9,5C11.9,16.1,8.7,18,8.4,18.7L8.4,18.7z"/>
	<path class="st0" d="M7.7,11H3.6c-0.3,0.9-0.1,3.2-0.1,4.4v1c0.1,0.3-0.1,0,0.1,0.3h4c0.1-0.2,0.1,0.3,0.1-1.2c0-0.5,0-1,0-1.5
		C7.7,13,7.8,12,7.7,11z"/>
	<path class="st0" d="M13.3,5.5c-3.6,0-9.9-0.5-9.9,5.1h4.1c0.4-1,0.1-2.4,2.7-3.4c2.6-1.2,4.1-0.3,4.5-1.2
		C14.7,5.5,14.7,5.5,13.3,5.5z M7.7,6.6C5.6,7.1,4.8,7.8,4.1,9.8C3.9,10.3,4,10,3.9,10.1c0.1-1.4,1-2.6,2.1-3.2
		c0.8-0.3,3-1.2,3.8-0.7C9.3,6.4,8.5,6.4,7.7,6.6z"/>
	<path class="st0" d="M27.3,10c-0.8-0.7-4.9,0-5.9,0.5c-2.6,1-6.7,3.4-9.2,5c-1.4,0.9-3,2-4.4,2.7c-0.1-0.2,0,0-0.1-0.3
		c-0.1-0.2,0-0.2-0.1-0.5H3.5v5.6h4.1c0.4-1.4,0.1-1,1.1-1.7l4.9-3.6l0.4-0.3c1.2-0.3,6.7-5,9.6-5.5c0.7,1-0.7,0.9,3.3,0.9l0.6-1
		C27.5,11,27.5,10.3,27.3,10z"/>
</g>
</svg>
