<?xml version="1.0" encoding="utf-8"?>
<!-- Generator: Adobe Illustrator 24.0.2, SVG Export Plug-In . SVG Version: 6.00 Build 0)  -->
<svg version="1.1" id="Слой_1" xmlns="http://www.w3.org/2000/svg" xmlns:xlink="http://www.w3.org/1999/xlink" x="0px" y="0px"
	 viewBox="0 0 30 30" style="enable-background:new 0 0 30 30;" xml:space="preserve">
<style type="text/css">
	.st0{fill-rule:evenodd;clip-rule:evenodd;fill:#FF8900;}
</style>
<g>
	<path class="st0" d="M15,23.7c0-1.2,0-2.5,0-3.7c0-3,0-2-4.6-6.7c-1.3-1-6.9-6.9-7.9-7.2c0,7.4-1,4.4,4.8,10.1
		C8.4,17.6,14,23.2,15,23.7L15,23.7z"/>
	<path class="st0" d="M15,26C14.8,25.2,3.9,14.6,2.6,13.9c-0.3,6.9-0.3,5.2,3.3,8.9C9.7,26.7,7.9,26,15,26L15,26z"/>
	<path class="st0" d="M15,16.1v-3.9c0-2.7-0.5-2.2-3.1-4.9c-0.8-0.7-1.3-1.2-2-2C8.4,3.7,8.9,4,5.4,4H2.6L15,16.1z"/>
	<path class="st0" d="M24.2,18.6c2,0.5,2,3-0.8,3.2c-2.3,0-4.6,0-6.9,0v1.7c4.1,0,10.9,1.2,10.9-3.5s-6.9-3.5-10.9-3.5v1.7
		C17.8,18.3,23.2,18.1,24.2,18.6L24.2,18.6z"/>
	<path class="st0" d="M24.4,11.4c-0.5,0.5-6.6,0.2-7.9,0.2l0.3,1.7c1.8,0,5.1,0,6.9,0c2-0.2,3.8-1.5,3.8-3.5c0-4.7-6.9-3.4-10.9-3.4
		v1.7c3.3,0,8.1-0.7,8.9,1C26,10.7,25.2,11.2,24.4,11.4L24.4,11.4z"/>
	<path class="st0" d="M15,8.2V4h-4.3C11.5,5,14,7.4,15,8.2L15,8.2z"/>
	<polygon class="st0" points="2.6,26 7.2,26 2.6,21.8 	"/>
</g>
</svg>
