<?xml version="1.0" encoding="utf-8"?>
<!-- Generator: Adobe Illustrator 24.0.2, SVG Export Plug-In . SVG Version: 6.00 Build 0)  -->
<svg version="1.1" id="Слой_1" xmlns="http://www.w3.org/2000/svg" xmlns:xlink="http://www.w3.org/1999/xlink" x="0px" y="0px"
	 viewBox="0 0 30 30" style="enable-background:new 0 0 30 30;" xml:space="preserve">
<style type="text/css">
	.st0{fill-rule:evenodd;clip-rule:evenodd;fill:#FF8900;}
</style>
<g>
	<rect x="11.1" y="4.7" class="st0" width="16.4" height="2.6"/>
	<rect x="3" y="11.7" class="st0" width="3.1" height="14"/>
	<path class="st0" d="M17.7,13c0.8,0.1,8.7,0.1,9.8,0v-2.5c-1.1-0.1-9-0.1-9.8,0V13z"/>
	<rect x="9.7" y="17.3" class="st0" width="2.9" height="8.4"/>
	<path class="st0" d="M8.6,5.4c0.8-0.1,1.1-0.1,1.8-0.1c-0.5,0.3-1.1,0.3-1.7,0c0,0.6-0.1,2,0,2.5c0.6,0,1.2,0,1.7-0.1
		c0.3-0.4,0.2-2.6,0-3.1L9.7,4.3c-0.3,0-0.6,0-0.9,0L8.6,5.4z"/>
	<path class="st0" d="M2.7,11.3h0.6c0.6-0.6,0-1.1,0.5-1.4v1.4H5c0.3-0.5,0-0.9,0.3-1.4c0.2,0.3,0,0.7,0.2,1.1
		c0,0.3,0.2,0.3,0.2,0.4h0.6c0.1-0.3,0.1,0,0.1-0.4c0.2-0.1,0.2-0.1,0.2-0.4c0-0.1,0-0.7-0.2-0.8H2.5c0,0.3,0,0.5,0,0.8L2.7,11.3z"
		/>
	<path class="st0" d="M9.6,15.1h3.1c0-0.8,0-1.3,0.5-1.8l1.8-0.3l0.1-2.5C8.6,10.5,9.9,9.7,9.6,15.1z M10.5,11.3
		c-0.3,0.4-0.2,2-0.2,2.6c0,0.8-0.2,0.7-0.3,0.8c-0.1-1.3-0.1-2.6,0.2-3.8c0.8-0.1,3.2-0.3,4.1-0.1c0.3,0,0.2,0,0.3,0.1
		C13.4,11.3,11.4,10.6,10.5,11.3z"/>
	<path class="st0" d="M15.4,12.3c0.8-0.1,1.1-0.1,1.8,0.1v-1.3c-0.8,0.1-1.1,0.1-1.8,0V12.3z"/>
	<path class="st0" d="M10.5,17h1.4c-0.2-0.6-0.2-0.9,0-1.6h-1.4C10.6,16,10.6,16.4,10.5,17L10.5,17z"/>
	<path class="st0" d="M3.3,5C2.8,5.4,3,8.5,3,9.3H6c0-2.2,0-1.8,2.1-2l0.2-2.6C7.4,4.7,3.7,4.6,3.3,5z M7,5.2c-3.8,0-3.4-0.4-3.4,3
		c0,0.9-0.2,0.6-0.3,0.6c0-0.8-0.2-3.1,0.5-3.7C4.2,4.8,7.4,5,7.9,5.1L7,5.2z"/>
	<polygon class="st0" points="17.2,10.1 15.5,10.1 15.4,11 17.4,11 	"/>
	<polygon class="st0" points="13.1,16.9 13.1,15.5 12,15.3 12,17 	"/>
	<polygon class="st0" points="15.5,13.5 17.2,13.4 17.2,12.6 15.4,12.4 	"/>
	<polygon class="st0" points="9.2,16.9 10.3,17 10.2,15.3 9.2,15.5 	"/>
</g>
</svg>
