<?xml version="1.0" encoding="utf-8"?>
<!-- Generator: Adobe Illustrator 24.0.2, SVG Export Plug-In . SVG Version: 6.00 Build 0)  -->
<svg version="1.1" id="Слой_1" xmlns="http://www.w3.org/2000/svg" xmlns:xlink="http://www.w3.org/1999/xlink" x="0px" y="0px"
	 viewBox="0 0 30 30" style="enable-background:new 0 0 30 30;" xml:space="preserve">
<style type="text/css">
	.st0{fill-rule:evenodd;clip-rule:evenodd;fill:#FF8900;}
</style>
<g>
	<path class="st0" d="M12.9,11.8c2.2-0.3,2.2-1.9,5.8-0.3c3-3,2.8-1.4,6.1-3.3c0.3-2.8-0.6-3.6-2.5-4.7C15.7-0.4,9.6,8.2,12.9,11.8
		L12.9,11.8z"/>
	<path class="st0" d="M18.7,19.7c1.1,3.6-0.8,4.1,0,7.2c0.6,0.8,4.4,1.1,6.1-1.4c2.2-2.8,3-5.2,0.8-8.5c-0.8-1.7-1.9-3-4.4-2.8
		C20.3,18.9,21.4,16.7,18.7,19.7L18.7,19.7z"/>
	<path class="st0" d="M15.7,11.5c-5,1.1-3.9,8.8,1.7,8C22.3,18.4,20.6,10.4,15.7,11.5L15.7,11.5z"/>
	<path class="st0" d="M11.5,15.3c-3.3-0.3-3.6-3-5.8-3.3c-3.6-0.6-4.1,9.6,2.5,11c3,0.6,6.1-0.6,6.6-2.8
		C14,19.2,11.8,19.2,11.5,15.3z M3.8,16.2l0.8,1.9c0.3,0.6,0.6,1.1,0.8,1.7c0.6,0.8,1.9,1.9,2.8,2.5C5.7,21.7,3.8,18.9,3.8,16.2z"/>
</g>
</svg>
